<svg width="536" height="698" viewBox="0 0 536 698" fill="none" xmlns="http://www.w3.org/2000/svg">
<g clip-path="url(#clip0_11_1865)">
<path d="M-13.5597 483.756C-88.7915 371.737 -59.9828 220.142 50.7132 145.799C161.409 71.4554 312.636 102.139 387.868 214.158C463.1 326.176 434.262 477.791 323.595 552.115C212.928 626.439 61.672 595.775 -13.5597 483.756ZM394.396 209.773C316.711 94.1017 160.533 62.4455 46.2707 139.184C-67.9914 215.922 -97.8015 372.488 -20.1167 488.16C57.5681 603.831 213.746 635.487 328.037 558.73C442.328 481.972 472.081 325.444 394.396 209.773Z" fill="#F8F7ED"/>
<path d="M56.8836 160.392C55.9951 159.069 56.3657 157.818 57.8805 156.843C59.3954 155.867 60.7886 155.891 61.5226 156.984L65.8105 163.369C66.5831 164.519 66.1355 165.78 64.5919 166.775C64.3238 167.001 64.0117 167.169 63.675 167.268C63.3383 167.368 62.9847 167.396 62.6366 167.351C62.2885 167.306 61.9536 167.189 61.6531 167.007C61.3526 166.826 61.0931 166.584 60.8912 166.297L56.8836 160.392ZM60.4941 170.987C62.5056 170.684 64.4181 169.914 66.0785 168.739C71.0827 165.378 72.4419 161.002 69.6215 156.678C69.0059 155.284 67.948 154.132 66.6115 153.4C65.275 152.668 63.7344 152.397 62.2284 152.629C60.2098 152.872 58.2818 153.608 56.6145 154.772C55.1996 155.633 53.9507 156.74 52.9266 158.042C51.9127 159.262 51.3481 160.793 51.3272 162.379C51.3064 163.965 51.8305 165.511 52.812 166.757C53.476 168.187 54.579 169.369 55.9605 170.13C57.342 170.891 58.9302 171.191 60.4941 170.987" fill="#F8F7ED"/>
<path d="M131.736 135.578L118.422 139.553C119.767 137.605 121.51 135.964 123.537 134.741C127.897 131.478 129.573 129.81 128.922 127.66C128.707 126.888 128.26 126.2 127.641 125.69C127.022 125.18 126.262 124.873 125.463 124.809C122.839 124.529 120.186 124.816 117.683 125.652C112.615 127.178 109.685 130.022 110.472 132.623C110.734 133.247 111.114 133.813 111.592 134.291L117.03 131.391C116.752 131.138 116.54 130.822 116.412 130.47C116.178 129.625 117.078 128.729 118.566 128.272C120.054 127.816 121.718 128.242 122.155 129.701C122.592 131.16 121.578 132.384 117.411 136.184C113.752 139.434 112.548 141.37 113.633 144.105L132.495 138.448L131.736 135.578Z" fill="#F8F7ED"/>
<path d="M139.863 132.331L138.446 125.312C138.152 123.757 138.946 122.764 140.684 122.432C142.422 122.099 143.741 122.632 143.985 123.929L145.549 131.476C145.812 132.801 144.913 133.822 143.155 134.126C142.809 134.238 142.444 134.276 142.082 134.238C141.721 134.2 141.371 134.086 141.056 133.904C140.741 133.722 140.468 133.476 140.254 133.182C140.04 132.888 139.891 132.552 139.815 132.197L139.863 132.331ZM143.845 136.334C149.789 135.18 152.669 131.576 151.643 126.506C151.559 124.993 150.993 123.546 150.028 122.377C149.062 121.208 147.749 120.379 146.278 120.01C144.312 119.49 142.25 119.445 140.263 119.877C138.625 120.143 137.046 120.695 135.599 121.507C134.206 122.253 133.11 123.453 132.493 124.908C131.876 126.362 131.774 127.983 132.205 129.503C132.29 131.088 132.874 132.606 133.874 133.838C134.875 135.07 136.239 135.955 137.773 136.364C139.786 136.84 141.881 136.859 143.903 136.42" fill="#F8F7ED"/>
<path d="M192.209 126.513L198.84 121.225L198.494 126.924L192.209 126.513ZM198.235 132.69L204.963 133.138L205.124 129.774L208.354 129.984L208.461 127.534L205.232 127.324L205.8 116.675L199.958 116.426L188.392 125.613L188.239 128.803L198.474 129.441L198.235 132.69Z" fill="#F8F7ED"/>
<path d="M216.81 130.147L217.891 123.12C218.097 121.563 219.2 120.905 220.911 121.092C222.622 121.278 223.74 122.322 223.475 123.543L222.358 131.137C222.141 132.493 220.971 133.112 219.269 132.752C218.919 132.731 218.576 132.639 218.262 132.483C217.947 132.327 217.667 132.109 217.438 131.843C217.209 131.577 217.035 131.268 216.927 130.934C216.819 130.6 216.779 130.247 216.809 129.897L216.81 130.147ZM213.486 133.089C215.174 134.219 217.094 134.954 219.105 135.241C225.104 136.22 229.045 133.824 229.815 128.758C230.284 127.306 230.26 125.741 229.748 124.304C229.236 122.867 228.264 121.64 226.983 120.812C225.304 119.628 223.362 118.869 221.325 118.602C219.698 118.297 218.031 118.273 216.396 118.532C214.816 118.709 213.351 119.442 212.264 120.601C211.176 121.76 210.537 123.268 210.46 124.855C210.006 126.371 210.046 127.991 210.575 129.482C211.103 130.972 212.093 132.256 213.4 133.147" fill="#F8F7ED"/>
<path d="M271.495 145.085C271.592 144.639 271.798 144.225 272.095 143.88C272.393 143.534 272.772 143.269 273.198 143.107C273.624 142.945 274.083 142.892 274.535 142.953C274.987 143.014 275.416 143.187 275.784 143.456C277.536 144.199 277.904 145.245 277.123 147.064C276.341 148.883 274.923 150.002 272.816 149.164C270.708 148.325 270.58 147.202 271.495 145.085ZM266.967 147.291C268.603 149.184 270.667 150.659 272.987 151.594C278 153.778 282.178 153.225 283.522 150.069C284.866 146.913 282.992 143.873 278.739 142.014C277.038 141.2 275.126 140.938 273.269 141.264C274.356 138.781 275.395 136.539 278.417 137.807C280.072 138.531 280.642 139.442 280.118 140.837L285.795 143.076C285.91 142.422 285.834 141.748 285.577 141.136C284.219 138.794 282.054 137.029 279.487 136.17C277.644 135.327 275.681 134.773 273.669 134.527C272.176 134.509 270.706 134.899 269.42 135.657C268.133 136.414 267.079 137.509 266.37 138.823C265.662 140.137 265.327 141.621 265.402 143.112C265.476 144.603 265.958 146.045 266.794 147.282" fill="#F8F7ED"/>
<path d="M294.279 148.812C295.053 147.416 296.321 147.191 297.928 148.031C299.536 148.871 300.174 150.195 299.525 151.34L295.848 157.983C295.161 159.196 293.835 159.335 292.237 158.447C291.915 158.306 291.624 158.102 291.382 157.847C291.14 157.591 290.951 157.29 290.828 156.961C290.704 156.632 290.647 156.282 290.661 155.93C290.675 155.579 290.759 155.234 290.908 154.915L294.279 148.812ZM286.62 156.794C287.86 158.446 289.453 159.799 291.284 160.756C296.588 163.745 301.111 162.961 303.594 158.456C304.525 157.258 305.036 155.787 305.05 154.27C305.064 152.753 304.58 151.273 303.671 150.058C302.497 148.369 300.938 146.985 299.122 146.019C297.688 145.162 296.121 144.55 294.485 144.209C292.951 143.814 291.326 143.982 289.905 144.683C288.485 145.385 287.363 146.572 286.744 148.031C285.799 149.291 285.279 150.818 285.257 152.392C285.234 153.967 285.712 155.508 286.62 156.794" fill="#F8F7ED"/>
<path d="M340.012 184.284C338.662 183.021 338.525 182.07 339.626 180.913C340.727 179.757 341.918 179.666 343.296 180.91C344.674 182.155 344.861 183.24 343.693 184.483C342.525 185.727 341.448 185.615 340.012 184.284V184.284ZM338.542 189.987C337.298 191.366 336 191.36 334.411 190.049C334.083 189.816 333.815 189.509 333.628 189.153C333.441 188.797 333.34 188.402 333.334 188C333.328 187.597 333.417 187.199 333.593 186.838C333.769 186.476 334.028 186.161 334.348 185.918C335.737 184.443 336.88 184.468 338.557 185.971C340.234 187.474 340.122 188.301 338.533 190.16L338.542 189.987ZM348.993 189.02C350.601 187.313 348.83 183.495 344.55 179.484C340.27 175.473 336.557 174.294 334.911 176.067C334.25 176.761 334.187 177.847 334.701 179.296C335.047 180.314 335.55 181.272 336.19 182.135C334.602 181.199 331.164 179.126 329.125 181.372C327.086 183.617 328.897 187.618 333.379 191.869C337.495 195.698 341.785 196.991 343.766 194.908C345.748 192.826 343.672 189.547 342.696 188.157C344.381 189.112 347.404 190.754 349.06 188.933" fill="#F8F7ED"/>
<path d="M354.112 205.279C352.177 206.996 350.726 207.011 349.307 205.334C347.889 203.657 348.088 202.648 349.841 201.095C351.594 199.542 353.007 199.595 354.301 201.522C355.595 203.448 355.472 204.074 353.996 205.356L354.112 205.279ZM347.26 193.897C346.115 194.693 345.248 195.829 344.784 197.145C344.319 198.46 344.28 199.889 344.672 201.228C345.353 203.585 346.578 205.75 348.249 207.548C351.885 211.657 355.992 212.863 358.617 210.558C361.242 208.253 360.884 204.862 357.749 201.25C356.53 199.785 354.889 198.731 353.05 198.23C355.139 196.494 357.017 194.94 359.264 197.479C360.422 198.83 360.589 199.886 359.536 201.052L363.893 205.429C364.265 204.889 364.476 204.255 364.502 203.601C364.257 200.9 363.028 198.384 361.048 196.531C359.742 194.969 358.194 193.628 356.461 192.559C355.058 191.632 353.365 191.246 351.699 191.474C350.032 191.703 348.506 192.53 347.404 193.801" fill="#F8F7ED"/>
<path d="M378.085 230.535C379.519 232.013 381.072 233.37 382.73 234.593L372.68 240.383L376.256 246.578L390.42 238.401L387.51 233.385C385.067 232.283 382.84 230.755 380.933 228.872L378.085 230.535Z" fill="#F8F7ED"/>
<path d="M395.847 254.995C396.584 256.713 396.367 258.068 395.168 258.582L388.212 261.709C386.975 262.29 385.81 261.611 385.045 259.913C384.865 259.615 384.748 259.282 384.702 258.937C384.656 258.591 384.682 258.24 384.778 257.905C384.874 257.57 385.039 257.258 385.261 256.99C385.484 256.721 385.759 256.502 386.07 256.345L392.479 253.46C393.908 252.792 395.092 253.374 395.847 254.995V254.995ZM386.822 248.329C385.316 248.759 383.988 249.662 383.034 250.904C382.08 252.146 381.55 253.661 381.522 255.227C381.554 257.283 382.044 259.306 382.955 261.15C385.501 266.743 389.668 268.785 394.331 266.655C395.772 266.243 397.041 265.374 397.946 264.179C398.852 262.984 399.345 261.527 399.353 260.028C399.401 257.976 398.952 255.944 398.045 254.104C397.368 252.571 396.427 251.169 395.264 249.962C394.257 248.735 392.848 247.904 391.287 247.615C389.726 247.327 388.114 247.6 386.735 248.387" fill="#F8F7ED"/>
<path d="M404.307 275.98C404.909 277.746 404.548 279.073 403.291 279.5L396.054 281.898C394.74 282.364 393.67 281.58 393.03 279.756C392.873 279.444 392.784 279.102 392.768 278.752C392.752 278.403 392.809 278.054 392.937 277.728C393.064 277.402 393.259 277.107 393.508 276.861C393.757 276.616 394.055 276.425 394.383 276.302L401.178 273.992C402.675 273.488 403.792 274.156 404.432 275.98L404.307 275.98ZM390.131 274.818C389.959 276.866 390.245 278.926 390.968 280.849C392.929 286.627 396.895 289.054 401.781 287.442C403.267 287.182 404.628 286.443 405.656 285.338C406.684 284.233 407.324 282.823 407.477 281.321C407.7 279.287 407.446 277.229 406.736 275.309C406.253 273.703 405.483 272.199 404.463 270.868C403.551 269.573 402.224 268.629 400.701 268.194C399.179 267.759 397.553 267.858 396.095 268.475C394.548 268.742 393.129 269.506 392.053 270.65C390.977 271.794 390.302 273.257 390.131 274.818" fill="#F8F7ED"/>
<path d="M410.984 303.755L407.757 304.294C408.588 306.188 409.585 308.004 410.735 309.723L399.25 311.635L400.513 318.674L416.743 316.121L415.743 310.407C413.796 308.532 412.21 306.316 411.061 303.87" fill="#F8F7ED"/>
<path d="M411.41 324.584L413.074 330.603C413.373 330.38 413.728 330.242 414.101 330.206C414.936 330.145 415.622 331.229 415.839 332.794C416.056 334.36 415.215 335.842 413.755 335.905C412.295 335.968 411.272 334.693 408.478 329.725C406.109 325.39 404.615 323.974 401.57 324.224L403.117 344.051L406.028 343.849L404.981 329.862C406.638 331.647 407.882 333.775 408.624 336.095C410.88 341.132 412.127 343.175 414.356 343.013C415.154 342.987 415.924 342.709 416.554 342.218C417.184 341.728 417.642 341.05 417.863 340.282C418.702 337.791 418.991 335.148 418.711 332.535C418.308 327.213 416.202 323.703 413.474 323.866C412.812 323.935 412.177 324.161 411.621 324.526" fill="#F8F7ED"/>
<path d="M416.801 355.726C416.76 357.59 415.946 358.679 414.621 358.693L406.962 358.412C405.597 358.368 404.815 357.266 404.914 355.363C404.894 355.031 404.939 354.699 405.047 354.384C405.156 354.07 405.325 353.78 405.545 353.531C405.766 353.283 406.033 353.08 406.332 352.934C406.631 352.789 406.956 352.704 407.288 352.684L414.408 352.91C415.975 352.943 416.795 353.978 416.744 355.765L416.801 355.726ZM411.473 345.867C409.931 345.577 408.337 345.794 406.928 346.484C405.519 347.175 404.371 348.302 403.655 349.699C402.799 351.561 402.366 353.591 402.388 355.641C402.293 361.714 405.189 365.403 410.301 365.559C411.782 365.835 413.313 365.62 414.661 364.948C416.009 364.276 417.102 363.183 417.773 361.834C418.705 360.01 419.179 357.987 419.156 355.939C419.225 354.272 419.022 352.604 418.553 351.003C418.143 349.463 417.215 348.112 415.926 347.177C414.636 346.241 413.064 345.779 411.473 345.867" fill="#F8F7ED"/>
<path d="M411.464 388.481L399.994 386.377L398.789 393.405L414.931 396.377L416.065 390.733C414.877 388.318 414.13 385.711 413.858 383.034L410.627 382.45C410.773 384.505 411.109 386.543 411.628 388.538" fill="#F8F7ED"/>
<path d="M406.182 411.809L400.892 410.146L402.543 404.029L406.182 411.809ZM398.382 409.578L395.141 408.666L393.395 415.139L396.588 416.041L395.773 419.176L398.11 419.86L398.974 416.734L409.264 419.629L410.802 413.965L404.174 400.555L401.106 399.652L398.382 409.578Z" fill="#F8F7ED"/>
<path d="M401.837 433.673C401.199 435.396 400.049 436.168 398.961 435.605L391.774 432.795C390.504 432.271 390.154 431.004 390.791 429.282C390.876 428.942 391.031 428.624 391.245 428.348C391.459 428.071 391.729 427.841 392.036 427.674C392.344 427.507 392.682 427.405 393.031 427.376C393.38 427.346 393.731 427.389 394.062 427.502L400.691 430.103C402.173 430.694 402.58 431.922 401.875 433.481L401.837 433.673ZM391.521 423.408C390.099 424.85 389.015 426.59 388.348 428.502C386.167 434.14 387.71 438.612 392.511 440.479C393.814 441.242 395.331 441.559 396.831 441.38C398.331 441.202 399.731 440.538 400.819 439.49C402.306 438.098 403.433 436.366 404.107 434.444C404.705 432.91 405.025 431.282 405.052 429.637C405.2 428.046 404.796 426.454 403.905 425.128C403.015 423.802 401.693 422.824 400.165 422.36C398.802 421.574 397.223 421.245 395.66 421.424C394.097 421.602 392.633 422.278 391.482 423.351" fill="#F8F7ED"/>
<path d="M385.687 462.506L375.636 456.737L372.102 462.908L386.36 471.151L389.197 466.116C388.885 463.469 389.064 460.788 389.727 458.207L386.839 456.516C386.287 458.494 385.914 460.518 385.726 462.563" fill="#F8F7ED"/>
<path d="M369.944 481.008C368.873 482.52 367.769 482.678 366.141 481.559C364.022 480.019 363.7 478.608 364.972 476.836C366.244 475.063 367.291 475.069 369.169 476.437C371.048 477.805 371.331 479.158 369.915 481.027L369.944 481.008ZM367.942 471.502C365.883 472.683 364.132 474.332 362.827 476.314C359.71 480.745 359.446 485.012 362.23 486.982C365.013 488.952 368.325 487.855 371.012 484.089C372.131 482.537 372.732 480.673 372.732 478.76C374.958 480.395 376.904 481.926 374.944 484.661C373.93 486.135 372.941 486.465 371.507 485.759L368.258 490.987C368.86 491.253 369.531 491.315 370.171 491.163C372.735 490.375 374.894 488.625 376.198 486.281C377.377 484.634 378.313 482.825 378.976 480.91C379.57 479.315 379.557 477.557 378.939 475.971C378.32 474.386 377.14 473.083 375.622 472.312C374.599 471.375 373.309 470.781 371.932 470.613C370.554 470.446 369.159 470.713 367.942 471.377" fill="#F8F7ED"/>
<path d="M361.156 501.6C359.931 503.007 358.596 503.319 357.584 502.496L351.792 497.414C350.771 496.514 350.881 495.188 352.078 493.8C352.26 493.484 352.511 493.212 352.812 493.005C353.112 492.798 353.455 492.66 353.815 492.602C354.176 492.543 354.545 492.566 354.896 492.668C355.246 492.77 355.569 492.949 355.842 493.192L361.23 497.92C362.424 498.953 362.371 500.241 361.233 501.59L361.156 501.6ZM354.943 488.621C353.093 489.486 351.467 490.763 350.19 492.356C346.198 496.914 346.138 501.545 350.031 504.982C353.009 507.614 355.211 508.096 358.195 506.885C360.066 506.096 361.715 504.86 362.997 503.285C364.123 502.062 365.025 500.65 365.663 499.115C366.314 497.673 366.453 496.051 366.054 494.519C365.655 492.987 364.745 491.638 363.473 490.696C360.389 487.968 358.023 487.429 354.962 488.65" fill="#F8F7ED"/>
<path d="M334.849 524.567L327.381 515.561L322.035 520.028L332.571 532.733L336.988 529.057C337.605 526.466 338.705 524.014 340.23 521.83L338.011 519.147C336.818 520.807 335.763 522.562 334.858 524.394" fill="#F8F7ED"/>
<path d="M313.487 540.792C312.54 539.383 312.854 538.296 314.483 537.243C316.113 536.19 316.95 536.38 317.819 537.674C318.689 538.968 318.539 540.237 317.015 541.26C315.491 542.284 314.356 542.086 313.487 540.792ZM310.194 530.484C311.805 529.402 313.065 529.725 314.223 531.45C315.382 533.176 315.041 534.282 313.209 535.47C311.378 536.658 310.551 536.296 309.276 534.398C308.001 532.499 308.555 531.585 310.194 530.484V530.484ZM323.736 534.368C323.196 533.562 322.166 533.21 320.668 533.34C319.596 533.439 318.544 533.695 317.547 534.101C318.83 532.78 321.607 529.955 319.917 527.376C318.227 524.797 313.868 525.638 308.767 528.98C304.166 532.07 301.892 535.893 303.456 538.222C305.021 540.552 308.515 539.541 310.223 538.853C308.921 540.27 306.653 542.795 308.024 544.837C309.395 546.879 313.428 546.048 318.269 542.88C323.111 539.712 325.088 536.381 323.736 534.368" fill="#F8F7ED"/>
<path d="M299.476 548.824C300.365 550.147 299.764 551.427 298.2 552.269C296.637 553.11 295.234 553.009 294.615 551.839L290.922 545.097C290.149 543.946 290.798 542.676 292.419 541.796C292.704 541.592 293.028 541.45 293.37 541.379C293.713 541.307 294.066 541.307 294.409 541.379C294.752 541.451 295.075 541.593 295.36 541.797C295.645 542 295.884 542.261 296.063 542.562L299.476 548.824ZM296.845 538.072C294.814 538.223 292.846 538.845 291.096 539.888C285.783 542.789 284.116 547.08 286.505 551.693C287.007 553.129 287.967 554.36 289.237 555.196C290.508 556.032 292.018 556.427 293.535 556.32C295.559 556.225 297.531 555.645 299.285 554.629C300.766 553.887 302.098 552.879 303.214 551.656C304.349 550.549 305.056 549.077 305.211 547.499C305.365 545.922 304.958 544.34 304.059 543.034C303.506 541.539 302.486 540.263 301.15 539.393C299.815 538.524 298.235 538.108 296.644 538.207" fill="#F8F7ED"/>
<path d="M252.566 559.63L265.656 555.012C264.402 557.047 262.723 558.786 260.735 560.112C256.557 563.585 254.968 565.32 255.822 567.585C256.074 568.342 256.549 569.005 257.185 569.486C257.822 569.968 258.589 570.245 259.386 570.282C261.967 570.455 264.555 570.07 266.973 569.151C271.963 567.386 274.768 564.417 273.827 561.835C273.58 561.217 273.205 560.658 272.727 560.196L267.433 563.375C267.701 563.621 267.906 563.926 268.032 564.267C268.323 565.073 267.462 566.027 265.984 566.56C264.506 567.094 262.871 566.773 262.338 565.295C261.804 563.817 262.819 562.593 266.802 558.583C270.298 555.15 271.3 553.225 270.195 550.461L251.654 557.03L252.566 559.63Z" fill="#F8F7ED"/>
<path d="M244.661 563.27L246.395 570.202C246.784 571.776 246.038 572.778 244.272 573.255C242.506 573.732 241.188 573.198 240.847 571.883L238.967 564.424C238.636 563.06 239.458 562.049 241.263 561.629C241.593 561.509 241.944 561.457 242.294 561.476C242.645 561.495 242.988 561.585 243.302 561.74C243.617 561.895 243.897 562.112 244.126 562.379C244.354 562.645 244.527 562.955 244.632 563.29L244.661 563.27ZM240.4 559.288C234.525 560.73 231.818 564.467 233.075 569.507C233.227 571.024 233.86 572.452 234.882 573.583C235.905 574.714 237.262 575.488 238.756 575.791C240.743 576.217 242.805 576.151 244.76 575.598C246.393 575.269 247.949 574.634 249.347 573.728C250.706 572.937 251.744 571.692 252.277 570.213C252.809 568.733 252.803 567.113 252.26 565.637C252.107 564.059 251.455 562.571 250.399 561.389C249.343 560.207 247.937 559.393 246.386 559.066C244.378 558.691 242.311 558.78 240.343 559.326" fill="#F8F7ED"/>
<path d="M223.528 567.656L224.618 574.686C224.835 576.251 224.021 577.215 222.283 577.423C220.545 577.63 219.207 577.068 219.039 575.762L217.879 568.195C217.673 566.831 218.631 565.896 220.369 565.688C220.713 565.594 221.072 565.573 221.424 565.627C221.776 565.68 222.113 565.806 222.414 565.996C222.715 566.187 222.973 566.438 223.171 566.734C223.37 567.029 223.504 567.363 223.566 567.714L223.528 567.656ZM219.737 563.317C213.754 564.163 210.7 567.633 211.476 572.704C211.479 574.226 211.969 575.707 212.874 576.932C213.779 578.156 215.051 579.059 216.506 579.508C218.456 580.128 220.526 580.269 222.541 579.92C224.195 579.757 225.803 579.285 227.283 578.53C228.738 577.893 229.916 576.754 230.601 575.321C231.285 573.888 231.432 572.257 231.013 570.725C231.01 569.141 230.502 567.599 229.563 566.324C228.624 565.049 227.302 564.106 225.791 563.632C223.823 563.071 221.753 562.963 219.737 563.317Z" fill="#F8F7ED"/>
<path d="M195.585 575.823L189.526 576.929C189.735 577.24 189.837 577.611 189.818 577.985C189.821 578.859 188.708 579.44 187.142 579.407C185.576 579.374 184.121 578.514 184.126 576.967C184.13 575.42 185.473 574.56 190.624 572.227C195.057 570.252 196.685 568.824 196.569 565.855L176.813 565.519L176.813 568.44L190.747 568.681C188.878 570.128 186.718 571.151 184.415 571.681C179.271 573.467 177.161 574.55 177.121 576.789C177.118 577.591 177.356 578.377 177.803 579.043C178.251 579.709 178.888 580.226 179.632 580.528C182.032 581.599 184.638 582.128 187.266 582.077C192.59 582.175 196.157 580.279 196.225 577.646C196.212 576.979 196.032 576.325 195.7 575.745" fill="#F8F7ED"/>
<path d="M167.397 576.851C167.304 577.706 166.114 578.172 164.576 577.994C163.038 577.817 161.642 576.794 161.79 575.275C161.939 573.756 163.397 573.069 168.752 571.225C173.378 569.663 175.18 568.369 175.304 565.447L155.667 563.237L155.37 566.149L169.221 567.697C167.189 568.994 164.894 569.822 162.503 570.122C157.232 571.409 155.016 572.271 154.774 574.52C154.677 575.312 154.826 576.114 155.202 576.818C155.577 577.522 156.16 578.092 156.872 578.453C159.16 579.737 161.7 580.509 164.316 580.714C169.613 581.33 173.413 579.905 173.702 577.166C173.71 576.503 173.594 575.845 173.359 575.226L167.182 575.785C167.354 576.113 167.429 576.482 167.397 576.851" fill="#F8F7ED"/>
<path d="M146.644 565.958L145.275 572.929C144.973 574.467 143.831 575.067 142.053 574.718C140.274 574.368 139.309 573.305 139.632 572.17L141.134 564.651C141.399 563.305 142.608 562.743 144.319 563.18C144.67 563.209 145.011 563.311 145.321 563.478C145.63 563.645 145.902 563.874 146.12 564.151C146.337 564.428 146.495 564.747 146.583 565.088C146.672 565.428 146.69 565.784 146.635 566.131L146.644 565.958ZM150.152 563.102C148.443 561.918 146.489 561.133 144.436 560.806C138.494 559.539 134.446 561.715 133.455 566.762C132.916 568.185 132.86 569.744 133.295 571.202C133.731 572.659 134.634 573.932 135.865 574.825C137.488 576.073 139.385 576.916 141.398 577.285C143.021 577.674 144.7 577.776 146.357 577.585C147.939 577.499 149.436 576.844 150.574 575.743C151.713 574.641 152.415 573.166 152.554 571.588C153.092 570.101 153.14 568.482 152.693 566.965C152.245 565.449 151.324 564.116 150.065 563.16" fill="#F8F7ED"/>
<path d="M118.204 566.238C118.383 565.597 118.429 564.927 118.341 564.268L112.198 563.26C112.311 563.618 112.289 564.005 112.135 564.346C111.849 565.164 110.61 565.37 109.109 564.751C107.608 564.131 106.576 562.905 106.965 561.558C107.355 560.212 109.035 559.793 114.664 559.351C119.573 559.017 121.607 558.193 122.481 555.394L103.903 548.424L102.894 551.147L116.036 556.05C113.726 556.801 111.277 557.02 108.871 556.69C103.365 556.632 101.011 556.918 100.25 559.016C99.9615 559.76 99.9096 560.575 100.101 561.35C100.293 562.125 100.719 562.822 101.322 563.345C103.285 565.064 105.578 566.364 108.061 567.166C113.063 569.022 117.289 568.48 118.069 566.036" fill="#F8F7ED"/>
<path d="M88.7783 553.616L91.2016 548.525L96.9187 551.321L88.7783 553.616ZM101.529 550.854L92.2606 546.312L93.7204 543.328L87.5995 540.428L86.1397 543.412L83.2236 541.99L82.1646 544.203L85.0808 545.625L80.5108 555.163L85.8139 557.777L99.906 553.905L101.529 550.854Z" fill="#F8F7ED"/>
<path d="M71.8076 544.565C70.9954 545.904 69.6794 545.995 68.0817 545.231C66.4841 544.468 65.9312 542.962 66.6965 541.989L70.6522 535.451C71.3592 534.267 72.6367 534.118 74.2545 535.16C74.8532 535.468 75.307 535.998 75.5177 536.637C75.7285 537.277 75.679 537.974 75.3806 538.577L71.8076 544.565ZM79.7948 536.823C78.6353 535.123 77.102 533.712 75.3127 532.697C70.1228 529.505 65.5513 530.155 62.8951 534.526C61.905 535.687 61.3258 537.143 61.2476 538.667C61.1694 540.191 61.5967 541.698 62.4627 542.954C63.5831 544.671 65.0881 546.104 66.8584 547.138C68.2603 548.055 69.8099 548.722 71.4389 549.111C72.9525 549.58 74.5849 549.485 76.0333 548.842C77.4817 548.199 78.6478 547.053 79.3154 545.616C80.3139 544.408 80.9038 542.914 81.0003 541.35C81.0969 539.785 80.6951 538.231 79.8528 536.909" fill="#F8F7ED"/>
<path d="M38.2754 519.553C39.3854 518.223 40.8283 518.632 46.2912 520.179C50.9849 521.576 53.1659 521.53 54.9739 519.189L39.9306 506.172L38.0739 508.379L48.6748 517.577C47.0321 517.678 45.8582 517.298 41.75 515.717C36.6413 513.765 34.3045 513.206 32.8691 514.921C32.3368 515.528 32.007 516.285 31.9254 517.088C31.8437 517.891 32.0144 518.699 32.4137 519.4C33.6009 521.767 35.2749 523.857 37.3255 525.533C41.3538 529.045 45.3255 530.05 47.2301 527.853C47.6254 527.323 47.8988 526.712 48.0311 526.063L42.6398 523.007C42.5866 523.374 42.4236 523.716 42.1723 523.989C41.646 524.634 40.3768 524.36 39.1818 523.326C37.9868 522.293 37.4243 520.709 38.5159 519.6" fill="#F8F7ED"/>
<path d="M25.9468 499.581C27.8239 497.778 29.2553 497.734 30.7597 499.353C32.2641 500.972 32.0854 502.01 30.477 503.716C28.8686 505.422 27.3884 505.331 25.893 503.54C24.3975 501.748 24.6067 501.065 26.0241 499.696L25.9468 499.581ZM33.2398 510.875C34.3523 510.036 35.1714 508.868 35.581 507.536C35.9905 506.205 35.9695 504.778 35.5206 503.459C34.7596 501.129 33.4431 499.02 31.6849 497.313C27.8953 493.348 23.7695 492.238 21.4519 494.504C19.1344 496.769 19.5217 500.391 22.752 503.771C24.0332 505.167 25.6975 506.154 27.5369 506.609C25.5542 508.441 23.7342 510.081 21.4005 507.6C20.1373 506.278 19.8552 505.3 20.9464 504.066L16.4354 499.834C16.0943 500.389 15.9166 501.029 15.9227 501.681C16.2395 504.367 17.5547 506.835 19.6072 508.596C21.0059 510.087 22.6122 511.37 24.3764 512.404C25.8139 513.268 27.5161 513.582 29.1673 513.286C30.8184 512.991 32.306 512.107 33.3546 510.798" fill="#F8F7ED"/>
<path d="M7.37158 490.564C6.32857 489.011 6.13212 487.724 7.16704 486.904L13.1562 482.214C14.3066 481.441 15.4992 481.726 16.686 483.182C16.9315 483.433 17.1229 483.731 17.2485 484.058C17.3741 484.386 17.431 484.735 17.416 485.086C17.401 485.436 17.314 485.78 17.1608 486.096C17.0077 486.411 16.7917 486.692 16.5258 486.92L11.0829 491.243C9.78869 492.113 8.57736 491.925 7.45794 490.506L7.37158 490.564ZM21.2625 486.827C20.774 484.835 19.8303 482.983 18.5055 481.418C14.7129 476.578 10.1839 475.614 6.16874 478.769C4.8837 479.52 3.87476 480.665 3.29104 482.034C2.70732 483.403 2.57984 484.924 2.92773 486.371C3.92396 489.987 6.15865 493.139 9.24189 495.276C10.5046 496.236 12.0692 496.713 13.6528 496.621C15.2364 496.529 16.7349 495.875 17.8783 494.776C19.2497 493.995 20.3315 492.791 20.9622 491.345C21.5928 489.898 21.7385 488.286 21.3773 486.75" fill="#F8F7ED"/>
<path d="M-5.62589 468.788C-5.07185 468.419 -4.59678 467.944 -4.22796 467.39L-8.31799 462.667C-8.48426 462.989 -8.73575 463.259 -9.04535 463.447C-9.76434 463.93 -10.8914 463.185 -11.6648 461.784C-12.4383 460.384 -12.4341 458.712 -11.1201 457.997C-9.80622 457.281 -8.35289 458.016 -3.71977 461.373C0.296969 464.309 2.38427 464.994 4.85802 463.458L-4.99227 446.119L-7.49508 447.55L-0.535129 459.777C-2.79419 458.858 -4.82796 457.462 -6.49678 455.684C-10.6599 452.095 -12.6727 450.776 -14.5812 451.85C-15.2844 452.218 -15.8538 452.798 -16.2085 453.508C-16.5631 454.218 -16.6849 455.022 -16.5566 455.805C-16.2484 458.434 -15.3742 460.965 -13.9946 463.224C-11.3364 467.865 -7.91766 470.16 -5.58728 468.845" fill="#F8F7ED"/>
<path d="M-14.1582 240.404L-11.6406 234.832C-12.2565 234.536 -13.6424 233.839 -12.477 231.846C-11.3116 229.853 -10.7829 229.957 -9.21361 230.865C-7.64434 231.772 -7.8809 232.849 -9.75248 236.276L-7.87495 237.394C-5.59129 233.649 -4.61423 232.742 -1.97616 234.309C-0.676447 235.063 -0.585403 236.379 -1.39629 238.093C-2.20717 239.806 -3.4069 240.194 -4.56196 239.593C-4.82009 239.446 -5.06244 239.273 -5.28459 239.076L-9.0056 243.912C-8.70134 244.267 -8.35141 244.579 -7.96482 244.841C-5.6637 246.217 -2.36676 243.794 0.661256 238.547C3.68927 233.3 3.79185 229.475 1.30788 228.014C-1.94655 226.026 -4.54685 229.984 -5.62772 231.42C-5.019 229.592 -3.79252 225.764 -6.09321 224.513C-8.39389 223.262 -11.3644 225.674 -14.125 230.449C-16.8855 235.224 -17.2375 239.05 -15.1385 240.311C-14.8695 240.441 -14.5893 240.546 -14.3015 240.625" fill="#F8F7ED"/>
<path d="M2.48886 213.616L7.07374 216.964L3.39207 222.107L2.48886 213.616ZM9.0868 218.407L11.7938 220.387L15.6857 214.936L12.9791 212.956L14.8631 210.355L12.8788 208.892L10.966 211.512L2.50799 205.132L-0.925133 209.899L0.681922 224.72L3.28247 226.604L9.0868 218.407Z" fill="#F8F7ED"/>
<path d="M14.3011 194.916C15.5262 193.509 16.8607 193.197 17.8917 194.049L23.6457 199.198C24.6672 200.098 24.5276 201.444 23.3119 202.803C23.1294 203.119 22.8786 203.391 22.578 203.598C22.2774 203.805 21.9347 203.943 21.5743 204.001C21.2138 204.059 20.845 204.037 20.4945 203.935C20.1439 203.833 19.8203 203.654 19.5474 203.411L14.2177 198.644C13.0322 197.563 13.0566 196.294 14.2435 194.955L14.3011 194.916ZM20.4182 208.001C22.2664 207.143 23.9024 205.887 25.2098 204.324C29.2204 199.794 29.3389 195.124 25.4548 191.64C22.5056 188.989 20.3134 188.458 17.31 189.64C15.4296 190.405 13.7667 191.622 12.4694 193.183C11.3459 194.401 10.4379 195.801 9.78375 197.324C9.1028 198.769 8.94237 200.405 9.32937 201.955C9.71637 203.506 10.6271 204.874 11.9074 205.83C14.9434 208.548 17.3186 209.165 20.3795 207.944" fill="#F8F7ED"/>
<path d="M41.7455 446.613C-12.742 365.482 8.13762 255.644 88.3195 201.794C168.501 147.944 278.124 170.304 332.534 251.32C386.945 332.336 366.142 442.289 285.989 496.12C205.836 549.951 96.2523 527.773 41.7455 446.613ZM275.962 511.451L283.3 524.676L285.812 523.322L278.436 510.04C282.224 507.913 285.964 505.652 289.635 503.227L306.575 528.45L308.933 526.866L291.975 501.615C295.627 499.162 299.115 496.527 302.488 493.844L312.031 505.63L314.235 503.816L304.74 492.04C308.132 489.261 311.38 486.329 314.54 483.33L355.213 525.622L357.253 523.626L316.58 481.334C319.731 478.258 322.747 475.106 325.589 471.82L336.971 481.745L338.837 479.615L327.465 469.642C330.297 466.279 333.015 462.868 335.578 459.352L360.102 477.227L361.804 474.915L337.261 457.012C339.785 453.438 342.156 449.76 344.439 446.014L357.429 453.984L358.909 451.528L346.017 443.703C348.214 439.891 350.247 436.021 352.146 432.075L404.668 458.022L405.899 455.442L353.425 429.505C355.256 425.521 356.991 421.518 358.572 417.41L372.668 422.925L373.696 420.231L359.553 414.706C360.999 410.647 362.388 406.501 363.68 402.211L392.736 410.741L393.534 407.951L364.401 399.432C365.674 395.113 366.592 390.949 367.442 386.623L382.258 389.609L382.816 386.772L367.951 383.777C368.717 379.451 369.347 375.105 369.838 370.741L427.76 377.078L428.048 374.213L370.049 367.762C370.418 363.341 370.672 358.997 370.84 354.711L385.927 355.054L385.994 352.171L370.888 351.8C370.93 347.389 370.79 343.018 370.401 338.647L400.517 336.7L400.305 333.837L370.189 335.785C369.828 331.395 369.343 327.005 368.674 322.655L383.502 320.375L383.041 317.513L368.184 319.813C367.439 315.472 366.541 311.151 365.517 306.831L421.91 292.995L421.19 290.182L364.797 304.018C363.687 299.756 362.414 295.561 360.997 291.338L375.152 286.505L374.22 283.751L360.065 288.584C358.609 284.428 356.914 280.35 355.141 276.282L382.619 264.13L381.418 261.473L353.96 273.654C352.15 269.653 350.157 265.692 348.03 261.779L361.111 254.537L359.709 252.015L346.599 259.276C344.434 255.43 342.154 251.662 339.691 247.932L387.806 215.618L386.183 213.203L338.039 245.536C335.548 241.826 332.893 238.309 330.124 234.869L341.766 225.422L339.962 223.17L328.349 232.597C325.531 229.148 322.58 225.872 319.561 222.683L341.128 201.73L339.113 199.661L317.556 220.566C314.46 217.386 311.269 214.313 307.973 211.394L317.755 200.109L315.586 198.185L305.795 209.518C302.442 206.637 298.993 203.862 295.467 201.222L329.388 154.112L327.047 152.429L293.126 199.539C289.543 196.938 285.826 194.51 282.109 192.207L289.762 179.306L287.287 177.796L279.635 190.697C275.841 188.404 271.952 186.342 267.996 184.367L281.106 157.159L278.507 155.899L265.427 183.088C261.461 181.161 257.439 179.397 253.455 177.69L258.778 163.557L256.084 162.529L250.761 176.662C246.73 175.196 242.469 173.634 238.352 172.476L254.082 116.3L251.322 115.483L235.447 171.506C231.129 170.233 226.955 169.239 222.638 168.341L225.431 153.486L222.624 152.909L219.801 167.783C215.494 166.962 211.159 166.285 206.814 165.781L209.776 135.581L206.94 135.274L203.94 165.416C199.499 165.018 195.136 164.735 190.831 164.538L191.038 149.375L188.155 149.308L187.976 164.452C183.71 164.313 179.233 164.482 174.842 164.718L170.435 106.332L167.582 106.496L171.961 164.9C167.628 165.223 163.248 165.66 158.907 166.28L156.415 151.261L153.583 151.703L156.074 166.722C151.743 167.419 147.499 168.308 143.179 169.207L135.718 139.831L132.935 140.532L140.414 169.937C136.161 170.999 131.976 172.224 127.81 173.602L122.852 159.322L120.126 160.234L125.065 174.486C120.987 175.932 116.918 177.579 112.879 179.332L88.9252 125.769L86.2774 126.922L110.26 180.465C106.308 182.285 102.384 184.21 98.5288 186.299L91.1908 173.074L88.6683 174.476L96.0544 187.71C92.2663 189.837 88.5266 192.098 84.8548 194.522L67.9156 169.3L65.5287 170.903L82.4679 196.125C78.825 198.572 75.317 201.178 71.9443 203.944L62.4301 192.139L60.1784 193.943L69.7021 205.7C66.2814 208.499 63.0628 211.411 59.9022 214.41L19.2487 172.147L17.161 174.133L58.0062 216.31C54.8748 219.414 51.8394 222.538 48.9969 225.824L37.6154 215.899L35.7205 218.048L47.1406 228.031C44.2886 231.365 41.5714 234.775 38.9796 238.311L14.4555 220.436L12.8011 222.757L37.3251 240.632C34.7719 244.225 32.4016 247.903 30.1467 251.629L17.1287 243.68L15.6765 246.115L28.5691 253.941C26.3722 257.753 24.3578 261.652 22.4399 265.569L-30.0818 239.622L-31.3415 242.221L21.1612 268.139C19.3236 272.155 17.6081 276.186 16.014 280.234L1.88999 274.738L0.880651 277.461L15.0046 282.957C13.558 287.016 12.1692 291.162 10.8771 295.452L-18.2079 286.942L-18.9767 289.712L10.1276 298.251C8.85475 302.569 7.95612 306.762 7.11554 311.04L-7.72995 308.074L-8.26776 310.939L6.60652 313.886C5.83333 318.203 5.2042 322.548 4.73878 326.95L-53.2895 320.518L-53.5774 323.382L4.40285 329.805C4.03357 334.226 3.77926 338.57 3.70787 343L-11.3978 342.629L-11.417 345.521L3.66966 345.863C3.62703 350.274 3.78611 354.674 4.15642 359.016L-25.9596 360.963L-25.7289 363.855L4.36786 361.878C4.72872 366.268 5.21454 370.658 5.90205 375.037L-8.92581 377.317L-8.4837 380.15L6.39222 377.879C7.10849 382.239 8.0164 386.512 9.01125 390.852L-47.353 404.668L-46.661 407.5L9.76093 393.645C10.8708 397.907 12.1344 402.15 13.561 406.325L-0.623931 411.177L0.336736 413.912L14.4641 409.098C15.9483 413.235 17.6149 417.332 19.4158 421.381L-8.04227 433.562L-6.86117 436.19L20.5875 424.057C22.4267 428.039 24.3715 431.991 26.5275 435.884L13.4172 443.145L14.8192 445.667L27.9484 438.436C30.1232 442.233 32.4039 446.001 34.8668 449.731L-13.2768 482.064L-11.6737 484.451L36.4987 452.098C38.971 455.78 41.6445 459.326 44.3657 462.756L32.7238 472.202L34.5569 474.435L46.1416 465.027C48.9878 468.457 51.9298 471.782 54.9481 474.971L33.3905 495.876L35.4058 497.944L57.0031 477.472C60.0982 480.651 63.2605 483.744 66.5566 486.663L56.7944 497.977L58.9722 499.853L68.7632 488.52C72.1361 491.429 75.5854 494.204 79.0918 496.815L44.9886 543.965L47.3195 545.696L81.2692 498.566C84.8331 501.139 88.5214 503.586 92.2862 505.898L84.5856 518.79L87.0888 520.281L94.7319 507.427C98.5349 509.672 102.424 511.735 106.351 513.729L93.2703 540.918L95.8402 542.197L108.921 515.008C112.915 516.916 116.957 518.709 120.892 520.406L115.569 534.539L118.234 535.587L123.586 521.434C127.617 522.9 131.85 524.481 135.995 525.62L120.265 581.797L123.026 582.613L138.765 526.389C143.003 527.604 147.264 528.666 151.546 529.574L148.752 544.428L151.608 545.014L154.382 530.131C158.689 530.952 163.054 531.61 167.418 532.143L164.407 562.333L167.291 562.65L170.244 532.498C174.685 532.896 179.048 533.179 183.353 533.376L183.174 548.519L186.057 548.587L186.236 533.443C190.502 533.582 194.979 533.413 199.273 533.033L203.998 591.581L206.861 591.37L202.453 532.984C206.827 532.662 211.188 532.195 215.535 531.585L218.027 546.604L220.86 546.162L218.368 531.143C222.671 530.465 226.915 529.576 231.245 528.629L238.532 558.122L241.317 557.421L234.029 527.928C238.234 526.857 242.448 525.613 246.613 524.234L251.591 538.543L254.297 537.602L249.329 523.37C253.437 521.905 257.505 520.257 261.516 518.524L285.498 572.067L288.146 570.915L264.163 517.371C268.106 515.6 272.039 513.626 275.895 511.538" fill="#F8F7ED"/>
<path d="M253.624 447.121L187.625 348.849L212.134 353.839L215.678 361.85L253.624 447.121ZM225.089 309.5L200.163 320.481L197.429 296.402L186.096 317.617L167.013 297.716C176.801 293.924 187.471 293.022 197.756 295.118C208.041 297.214 217.508 302.219 225.031 309.538L225.089 309.5ZM186.106 317.694L197.181 296.902L192.046 323.929L186.106 317.694ZM284.582 283.441L187.49 348.648L192.191 324.082L200.144 320.577L284.582 283.441ZM284.841 283.267L251.542 315.521L244.58 322.241L284.841 283.267ZM212.181 353.724L218.32 347.765L239.315 359.204L212.181 353.724ZM226.842 386.986L215.658 361.821L239.71 359.357L218.378 347.726L237.953 328.779C241.895 338.51 242.954 349.169 241.002 359.486C239.051 369.802 234.172 379.338 226.948 386.957L226.842 386.986ZM149.833 387.96L174.692 377.066L177.416 401.193L177.513 401.337L177.685 401.221L189.047 379.986L208.053 399.772C198.266 403.568 187.595 404.472 177.309 402.376C167.023 400.28 157.556 395.273 150.035 387.95L149.833 387.96ZM173.435 377.618L174.884 376.978L149.967 387.911L173.435 377.618ZM132.641 395.542L90.0809 414.193L145.324 389.945L132.641 395.542ZM148.157 310.463L159.34 335.628L135.366 338.083L156.65 349.705L137.055 368.623C133.143 358.89 132.102 348.24 134.056 337.934C136.01 327.629 140.877 318.099 148.08 310.473L148.157 310.463ZM121.751 250.827L187.422 348.61L162.981 343.658L121.751 250.827ZM156.63 349.676L135.799 338.293L162.789 343.745L156.63 349.676ZM182.827 373.396L174.855 376.873L91.0401 413.632L187.644 348.753L182.827 373.396ZM188.931 379.813L177.837 400.576L182.991 373.578L188.931 379.813ZM251.782 315.568L285.206 283.189L242.742 301.859C232.168 289.282 217.647 280.655 201.545 277.382C185.442 274.11 168.706 276.385 154.062 283.837L121.201 249.945L120.969 249.6L121.201 249.945L140.295 292.916C127.851 303.646 119.405 318.273 116.334 334.415C113.262 350.557 115.746 367.263 123.38 381.814L89.6873 414.29L89.371 414.503L89.6873 414.29L132.305 395.601C142.886 408.172 157.411 416.791 173.515 420.055C189.619 423.318 206.354 421.034 220.994 413.574L253.568 447.534L234.503 404.669C246.947 393.939 255.392 379.312 258.464 363.17C261.535 347.028 259.052 330.322 251.418 315.771" fill="#F8F7ED"/>
<path d="M293.717 262.867L294.292 276.461L306.658 282.136L306.083 268.542L293.717 262.867Z" fill="#F8F7ED"/>
<path d="M80.003 434.357L79.4282 420.763L67.062 415.088L67.6368 428.682L80.003 434.357Z" fill="#F8F7ED"/>
<path d="M112.043 447.017L106.857 442.404L94.0127 456.956C92.0888 459.125 90.3601 459.409 88.741 457.993C87.122 456.576 87.0662 454.319 89.5164 451.505L91.4601 449.49L85.3823 447.896C84.1631 449.084 83.2226 450.528 82.6291 452.124C82.0584 453.864 82.0637 455.743 82.6442 457.48C83.2247 459.217 84.3495 460.721 85.852 461.769C87.635 463.368 93.2539 468.316 99.1402 461.609L112.043 447.017Z" fill="#F8F7ED"/>
<path d="M126.503 472.527C123.906 477.234 119.934 478.9 115.967 476.598C112.001 474.296 111.333 470.071 113.969 465.421C116.605 460.771 120.491 459.163 124.486 461.445C128.482 463.728 129.159 467.906 126.542 472.584L126.503 472.527ZM127.447 456.16C125.801 455.137 123.959 454.47 122.04 454.203C120.12 453.936 118.166 454.075 116.303 454.61C114.441 455.145 112.711 456.065 111.226 457.31C109.741 458.555 108.534 460.098 107.683 461.839C106.603 463.477 105.884 465.325 105.572 467.261C105.26 469.198 105.362 471.178 105.873 473.072C106.383 474.966 107.29 476.73 108.533 478.247C109.776 479.764 111.327 481 113.083 481.873C114.728 482.901 116.57 483.572 118.49 483.843C120.411 484.114 122.366 483.978 124.231 483.446C126.096 482.913 127.828 481.995 129.316 480.751C130.803 479.507 132.013 477.965 132.867 476.224C133.951 474.584 134.674 472.732 134.987 470.792C135.3 468.851 135.197 466.866 134.684 464.969C134.172 463.071 133.261 461.304 132.014 459.786C130.766 458.267 129.209 457.031 127.447 456.16" fill="#F8F7ED"/>
<path d="M158.451 469.391L153.742 486.116C153.669 486.858 153.421 487.572 153.018 488.2C152.616 488.827 152.07 489.35 151.426 489.726C150.782 490.101 150.058 490.318 149.314 490.36C148.569 490.401 147.826 490.265 147.144 489.963C146.433 489.837 145.761 489.546 145.183 489.114C144.604 488.682 144.134 488.121 143.81 487.476C143.486 486.83 143.316 486.118 143.316 485.396C143.315 484.674 143.483 483.962 143.807 483.316L148.534 466.495L141.975 464.557L136.744 483.177C135.054 489.236 137.807 493.271 145.559 495.618C153.311 497.965 158.262 495.892 159.808 489.93L165.058 471.339L158.451 469.391Z" fill="#F8F7ED"/>
<path d="M186.385 481.22C186.286 483.248 184.666 484.378 182.244 484.251L175.516 483.803L175.822 477.547L182.684 477.947C183.143 477.915 183.603 477.974 184.039 478.122C184.474 478.27 184.876 478.503 185.22 478.808C185.565 479.112 185.845 479.483 186.045 479.897C186.245 480.311 186.36 480.761 186.385 481.22V481.22ZM193.534 481.551C193.768 476.679 189.827 473.358 183.531 472.87L169.269 472.016L167.894 499.981L174.727 500.4L175.303 488.829L179.705 489.17L186.039 501.149L193.516 501.595L186.785 488.713C188.597 488.567 190.29 487.753 191.537 486.43C192.783 485.107 193.495 483.369 193.534 481.551" fill="#F8F7ED"/>
<path d="M215.115 470.313L218.072 486.522L205.503 471.969L197.6 473.312L202.604 500.958L209.066 499.831L205.952 482.643L219.245 498.086L226.611 496.812L221.626 469.195L215.115 470.313Z" fill="#F8F7ED"/>
<path d="M236.852 493.482L255.006 486.089L252.089 481.746L241.18 486.193L238.573 479.889L248.351 475.869L246.384 471.138L236.616 475.111L234.378 469.728L244.99 465.397L244.003 460.26L226.146 467.537L236.852 493.482Z" fill="#F8F7ED"/>
<path d="M269.192 464.834L268.085 444.545L262.161 448.524L263.119 461.819L251.252 455.892L245.289 459.938L263.536 468.591L269.552 477.487L275.189 473.702L269.192 464.834Z" fill="#F8F7ED"/>
<path d="M284.739 442.249C281.068 445.048 279.59 445.707 278.25 444.395C276.91 443.083 277.498 440.727 280.017 438.201C280.989 436.984 282.31 436.094 283.803 435.651C285.296 435.208 286.889 435.233 288.368 435.722L288.752 430.081C286.847 429.482 281.926 428.99 276.402 434.745C274.735 436.392 273.395 438.339 272.453 440.485C271.805 442.066 271.658 443.807 272.032 445.474C272.405 447.141 273.281 448.654 274.541 449.808C278.542 453.714 284.164 451.274 288.792 447.539C292.452 444.539 294.64 443.82 295.952 445.276C297.264 446.732 296.676 448.963 293.958 451.999C292.842 453.518 291.234 454.602 289.408 455.067C287.582 455.532 285.651 455.35 283.944 454.551L283.811 460.566C288.1 461.609 291.876 461.452 297.678 455.427C299.134 454.239 300.319 452.754 301.154 451.071C301.988 449.387 302.453 447.545 302.516 445.667C302.468 444.549 302.197 443.452 301.718 442.44C301.24 441.428 300.563 440.523 299.729 439.777C295.516 435.679 290.517 437.617 284.71 442.269" fill="#F8F7ED"/>
<path d="M292.123 415.589L316.232 429.987L319.661 424.095L295.572 409.726L292.123 415.589Z" fill="#F8F7ED"/>
<path d="M304.838 388.229L320.213 394.096L301.458 397.426L298.678 404.969L324.848 414.978L327.113 408.783L310.835 402.564L330.684 399.124L333.292 392.072L307.123 382.062L304.838 388.229Z" fill="#F8F7ED"/>
<path d="M324.014 345.137L323.395 358.072L328.325 358.391L328.555 352.52L332.178 352.757C333.169 354.27 333.615 356.075 333.445 357.874C333.248 362.18 330.228 364.208 324.501 363.881C318.773 363.555 315.547 361.548 315.741 356.369C315.876 355.03 316.338 353.744 317.084 352.625C317.831 351.505 318.84 350.585 320.024 349.945L316.011 345.337C314.187 346.467 312.674 348.032 311.607 349.893C310.539 351.753 309.952 353.85 309.898 355.995C309.206 367.393 318.076 370.658 324.208 371.089C326.079 371.319 327.978 371.151 329.78 370.598C331.582 370.044 333.247 369.117 334.666 367.876C336.085 366.635 337.227 365.109 338.017 363.397C338.806 361.685 339.226 359.826 339.249 357.941C339.377 355.752 339.028 353.561 338.227 351.52C337.425 349.479 336.19 347.636 334.606 346.119L324.014 345.137Z" fill="#F8F7ED"/>
<path d="M310.275 339.842L337.996 337.124L337.262 330.314L309.512 333.051L310.275 339.842Z" fill="#F8F7ED"/>
<path d="M304.091 310.067L319.796 305.613L306.872 319.551L309.118 327.306L335.9 319.711L334.052 313.356L317.369 318.093L331.145 303.374L329.026 296.117L302.244 303.712L304.091 310.067Z" fill="#F8F7ED"/>
<path d="M262.285 250.925L267.422 255.529L280.296 240.957C282.22 238.789 283.948 238.504 285.587 239.949C287.225 241.395 287.262 243.624 284.792 246.409C284.39 246.679 283.806 247.489 282.848 248.424L288.927 250.017C290.158 248.839 291.1 247.392 291.679 245.79C292.116 243.717 291.884 241.56 291.018 239.628C290.151 237.695 288.694 236.087 286.856 235.036C285.018 233.984 282.893 233.542 280.788 233.773C278.683 234.005 276.705 234.898 275.14 236.324L262.285 250.925Z" fill="#F8F7ED"/>
<path d="M247.824 225.415C250.441 220.737 254.365 219.061 258.36 221.344C262.355 223.627 262.841 228.016 260.33 232.541C257.818 237.065 253.836 238.78 249.841 236.497C245.846 234.214 245.169 230.037 247.785 225.358L247.824 225.415ZM246.88 241.782C248.525 242.809 250.367 243.481 252.287 243.751C254.207 244.022 256.163 243.887 258.028 243.354C259.893 242.822 261.625 241.904 263.112 240.66C264.6 239.416 265.81 237.873 266.664 236.132C267.72 234.484 268.421 232.634 268.719 230.699C269.018 228.765 268.908 226.79 268.398 224.9C267.887 223.01 266.987 221.248 265.755 219.728C264.523 218.207 262.986 216.96 261.244 216.069C259.598 215.046 257.756 214.379 255.836 214.112C253.917 213.845 251.963 213.983 250.1 214.518C248.238 215.054 246.508 215.974 245.023 217.219C243.538 218.464 242.331 220.007 241.479 221.748C240.4 223.385 239.68 225.233 239.369 227.17C239.057 229.106 239.159 231.087 239.67 232.981C240.18 234.874 241.087 236.638 242.33 238.155C243.573 239.673 245.124 240.909 246.88 241.782" fill="#F8F7ED"/>
<path d="M215.877 228.551L220.557 211.845C220.684 211.132 220.958 210.452 221.363 209.851C221.768 209.25 222.294 208.74 222.907 208.355C223.52 207.969 224.208 207.716 224.925 207.611C225.642 207.507 226.373 207.554 227.071 207.748C227.769 207.943 228.418 208.282 228.977 208.743C229.537 209.203 229.993 209.776 230.318 210.424C230.643 211.071 230.829 211.78 230.864 212.504C230.899 213.227 230.782 213.95 230.521 214.626L225.764 231.467L232.324 233.405L237.555 214.785C239.245 208.726 236.502 204.642 228.768 202.324C221.035 200.006 216.065 202.05 214.5 207.984L209.269 226.604L215.877 228.551Z" fill="#F8F7ED"/>
<path d="M187.943 216.722C188.042 214.694 189.662 213.565 192.084 213.691L198.792 214.11L198.506 220.395L191.702 220.082C191.247 220.111 190.791 220.051 190.359 219.903C189.928 219.756 189.53 219.525 189.188 219.224C188.846 218.922 188.566 218.556 188.366 218.147C188.166 217.737 188.048 217.292 188.02 216.837L187.943 216.722ZM180.842 216.525C180.618 221.349 184.55 224.718 190.826 225.177L205.078 226.08L206.453 198.114L199.649 197.677L199.073 209.247L194.652 208.878L188.318 196.898L180.841 196.453L187.591 209.363C185.774 209.511 184.076 210.327 182.824 211.653C181.572 212.979 180.856 214.721 180.813 216.544" fill="#F8F7ED"/>
<path d="M159.145 227.591L156.207 211.411L168.758 225.935L176.68 224.62L171.676 196.974L165.213 198.101L168.327 215.29L155.034 199.846L147.669 201.121L152.654 228.738L159.145 227.591Z" fill="#F8F7ED"/>
<path d="M137.409 204.422L119.303 211.825L122.19 216.187L133.1 211.739L135.706 218.043L125.91 222.035L127.896 226.794L137.663 222.822L139.901 228.204L129.289 232.536L130.277 237.673L148.134 230.396L137.409 204.422Z" fill="#F8F7ED"/>
<path d="M112.119 249.409L111.16 236.114L123.028 242.041L128.991 237.994L110.743 229.342L104.727 220.445L99.0901 224.231L105.087 233.099L106.194 253.388L112.119 249.409Z" fill="#F8F7ED"/>
<path d="M89.6179 255.673C93.2691 252.846 94.7659 252.216 96.0772 253.547C97.3885 254.878 96.8294 257.215 94.3397 259.722C93.3616 260.931 92.04 261.815 90.5491 262.257C89.0582 262.7 87.4681 262.68 85.9887 262.2L85.5851 267.813C87.4896 268.412 92.3823 268.924 97.9068 263.169C99.5895 261.556 100.929 259.62 101.846 257.477C102.484 255.894 102.626 254.155 102.253 252.49C101.88 250.825 101.01 249.313 99.7581 248.154C95.7285 244.267 90.1156 246.659 85.5355 250.403C81.856 253.375 79.6871 254.122 78.3561 252.637C77.0251 251.152 77.6611 248.931 80.3701 245.943C81.4788 244.424 83.0829 243.34 84.9057 242.877C86.7286 242.415 88.6559 242.603 90.3544 243.41L90.4877 237.395C86.2275 236.333 82.4424 236.538 76.6784 242.496C75.2205 243.687 74.0357 245.177 73.2042 246.866C72.3728 248.555 71.9142 250.403 71.8596 252.284C71.9717 254.539 72.9741 256.658 74.6468 258.175C78.8597 262.273 83.8303 260.353 89.6659 255.683" fill="#F8F7ED"/>
<path d="M82.1562 282.343L58.0187 267.965L54.5988 273.809L78.7075 288.207L82.1562 282.343Z" fill="#F8F7ED"/>
<path d="M69.4413 309.703L54.0669 303.837L72.821 300.506L75.6009 292.964L49.4318 282.954L47.1661 289.15L63.4448 295.369L43.567 298.828L40.9871 305.861L67.1563 315.87L69.4413 309.703Z" fill="#F8F7ED"/>
<path d="M50.3134 352.805L50.9323 339.87L45.9736 339.57L45.7438 345.441L42.1491 345.185C41.1634 343.688 40.7137 341.901 40.8732 340.116C41.0699 335.811 44.1184 333.763 49.8174 334.109C55.5164 334.455 58.7997 336.423 58.606 341.602C58.4765 342.949 58.0148 344.243 57.2623 345.367C56.5098 346.492 55.4902 347.412 54.2946 348.045L58.3361 352.634C60.166 351.511 61.6845 349.947 62.7526 348.085C63.8207 346.223 64.404 344.123 64.4491 341.976C65.1405 330.578 56.2703 327.313 50.1386 326.882C48.2638 326.656 46.3624 326.828 44.5583 327.386C42.7542 327.944 41.0879 328.875 39.668 330.12C38.2481 331.365 37.1064 332.896 36.3174 334.611C35.5284 336.327 35.1097 338.19 35.0887 340.078C34.9591 342.261 35.3084 344.446 36.112 346.48C36.9156 348.513 38.1541 350.347 39.7408 351.852L50.3134 352.805Z" fill="#F8F7ED"/>
<path d="M63.9851 358.062L36.2836 360.809L37.0178 367.619L64.7386 364.901L63.9851 358.062Z" fill="#F8F7ED"/>
<path d="M70.188 387.866L54.4837 392.32L67.4077 378.382L65.1424 370.598L38.3799 378.222L40.2271 384.576L56.9105 379.84L43.1341 394.559L45.2534 401.816L72.0352 394.221L70.188 387.866Z" fill="#F8F7ED"/>
</g>
<defs>
<clipPath id="clip0_11_1865">
<rect width="499.32" height="505.348" fill="white" transform="translate(-161 278.387) rotate(-33.8853)"/>
</clipPath>
</defs>
</svg>
