<svg width="267" height="50" viewBox="0 0 267 50" fill="none" xmlns="http://www.w3.org/2000/svg">
<g clip-path="url(#clip0_2298_439)">
<path d="M104.1 15.7435C104.163 15.6266 104.208 15.5028 104.254 15.3965C104.347 15.1892 104.453 14.988 104.572 14.7942C104.704 14.5778 104.888 14.416 105.028 14.1986C105.151 13.9988 105.307 13.8214 105.446 13.6138C105.57 13.4276 105.607 13.2492 105.731 13.0962C105.848 12.9598 106.009 12.8594 106.142 12.6956C106.225 12.5884 106.249 12.4334 106.35 12.3262C106.467 12.1732 106.675 12.0484 106.844 11.87C106.998 11.716 107.131 11.523 107.287 11.3827C107.628 11.0902 108.012 10.8378 108.353 10.559C108.476 10.4616 108.561 10.3173 108.687 10.2286C108.809 10.1194 108.965 10.0639 109.089 9.97225C109.228 9.84943 109.357 9.74026 109.506 9.62525C109.656 9.51023 109.823 9.43908 109.976 9.32504C110.134 9.2039 110.284 9.07165 110.423 8.9293C110.58 8.82013 110.716 8.71194 110.874 8.59692C111.032 8.48191 111.184 8.34155 111.329 8.24408C111.493 8.14661 111.678 8.0735 111.85 7.96628C112.002 7.85094 112.168 7.755 112.344 7.68069C112.715 7.50817 113.027 7.27131 113.363 7.11828C113.541 7.02081 113.72 6.97694 113.891 6.89897C114.664 6.54515 115.824 6.40576 116.734 6.12992C117.448 5.90378 118.188 5.61039 119.148 5.61039C120.026 5.59807 120.901 5.70765 121.748 5.93595C122.101 6.02757 122.45 6.18937 122.83 6.31219C123.176 6.43013 123.542 6.60948 123.96 6.64457C124.454 6.69135 124.978 6.60948 125.512 6.64457C126.031 6.68321 126.552 6.66458 127.067 6.58901C127.392 6.52858 127.742 6.44475 128.086 6.358C128.422 6.28422 128.753 6.19147 129.079 6.08021C129.469 5.95739 129.914 5.74296 130.364 5.56361C130.779 5.39498 131.243 5.27119 131.663 5.086C132.082 4.9008 132.512 4.7468 132.958 4.59279C133.386 4.45243 133.872 4.33644 134.228 4.09958C134.39 3.97969 134.569 3.73504 134.692 3.57909C135.161 3.06346 135.557 2.44549 136.044 1.97373C136.401 1.64232 136.863 1.50197 137.466 1.40352C138.552 1.23295 139.587 1.07114 140.771 0.955152C141.465 0.902517 142.162 0.787501 142.895 0.815768C143.768 0.863529 144.715 0.747536 145.669 0.770929C146.093 0.787499 146.556 0.88692 146.991 0.868401C147.31 0.845721 147.625 0.789195 147.931 0.699777C148.427 0.581836 148.852 0.334257 149.346 0.204619C150.255 -0.0351607 151.29 -0.0117669 152.419 0.019424C152.843 0.026247 153.246 0.102276 153.627 0.133467C153.95 0.15686 154.261 0.142239 154.544 0.230939C154.732 0.283573 154.91 0.402486 155.109 0.487286C155.673 0.714112 156.194 1.0348 156.65 1.43569C156.943 1.68814 157.293 1.90452 157.599 2.1443C158.25 2.63653 158.807 3.02155 159.34 3.64829C159.465 3.79742 159.571 3.9407 159.688 4.09958C159.817 4.24256 159.935 4.39469 160.042 4.55478C160.128 4.66784 160.238 4.76824 160.335 4.89983C160.584 5.25462 160.908 5.52364 161.202 5.86479C161.384 6.06559 161.54 6.35215 161.717 6.59778C162.073 7.06314 162.354 7.58111 162.549 8.13296C162.647 8.39613 162.91 8.53259 163.026 8.81526C163.079 8.96244 162.994 9.30262 163.088 9.48684C163.353 9.9742 163.772 10.4196 164.111 10.8514C164.342 11.1575 164.511 11.523 164.744 11.8262C165.161 12.3603 165.577 12.7843 165.953 13.3623C166.067 13.6255 166.235 13.8799 166.321 14.1587C166.407 14.4374 166.478 14.6899 166.568 14.9618C166.6 15.0915 166.616 15.2221 166.659 15.3634C166.725 15.532 166.87 15.6402 166.922 15.803C167.326 16.0701 167.78 16.2738 167.95 16.768C168.426 16.7036 168.873 16.2874 169.35 16.46C169.428 16.8498 168.98 16.8898 168.855 17.1549C169.678 17.2368 170.653 17.3372 171.504 17.1549C172.035 17.0653 172.555 16.8781 173.242 16.7465C173.644 16.6861 174.966 16.2221 175 16.4161C175.034 16.6101 173.588 17.6364 173.425 17.7359C173.228 17.8896 173.016 18.022 172.791 18.1306C172.037 18.4232 171.25 18.6225 170.447 18.7242C169.554 18.8217 168.624 18.8636 167.728 18.7398C167.855 19.2494 167.888 19.7779 167.825 20.2994C167.793 20.4598 167.779 20.6232 167.783 20.7867C167.794 21.1191 167.953 21.353 168.023 21.6435C168.084 21.907 168.105 22.178 168.086 22.4476C168.057 22.587 167.932 22.7556 167.932 22.897C167.932 23.0383 168.073 23.1738 168.086 23.32C168.099 23.4662 167.952 23.6758 167.952 23.8639C167.952 24.0335 168.04 24.17 168.022 24.3025C167.993 24.4867 167.838 24.6193 167.782 24.8035C167.691 25.1349 167.776 25.5112 167.622 25.8445C167.524 26.0638 167.403 26.0551 167.337 26.2919C167.389 26.4049 167.412 26.529 167.405 26.653C167.397 26.7771 167.359 26.8975 167.294 27.0035C167.264 27.0561 167.18 27.0873 167.155 27.1604C167.128 27.2676 167.155 27.3748 167.128 27.4528C167.056 27.66 166.968 27.8612 166.864 28.0542C166.937 28.2462 166.964 28.4525 166.942 28.6566C166.924 28.8515 166.787 29.0318 166.755 29.2414C166.727 29.373 166.779 29.5338 166.755 29.6576C166.727 29.8584 166.57 30.0202 166.516 30.181C166.553 30.3516 166.602 30.376 166.586 30.5154C166.57 30.682 166.37 30.7298 166.353 30.8682C166.34 30.953 166.45 31.0787 166.47 31.1918C166.489 31.3049 166.424 31.455 166.424 31.6168C166.437 31.8644 166.57 32.0067 166.401 32.2357C166.47 32.3907 166.524 32.4443 166.516 32.6149C166.516 32.7358 166.418 32.8225 166.401 32.9463C166.37 33.1773 166.516 33.4483 166.304 33.6286C166.423 33.8138 166.461 34.1442 166.304 34.3304C166.428 34.5692 166.394 34.8616 166.401 35.1638C166.401 35.2486 166.347 35.3324 166.353 35.3967C166.37 35.6053 166.586 35.8578 166.353 36.0654C166.508 36.2506 166.401 36.4397 166.375 36.6609C166.347 36.9923 166.462 37.3793 166.305 37.6581C166.332 37.8033 166.384 37.8803 166.375 38.0363C166.359 38.1523 166.293 38.2312 166.277 38.3443C166.264 38.5441 166.356 38.7692 166.187 38.8989C166.233 39.1708 166.154 39.4477 166.094 39.6787C166.071 39.7947 165.996 39.8736 165.958 39.9798C165.93 40.0627 165.93 40.1465 165.907 40.2187C165.869 40.3327 165.738 40.4136 165.692 40.5345C165.669 40.6095 165.699 40.7177 165.676 40.7811C165.63 40.8971 165.497 40.9955 165.426 41.1222C165.344 41.29 165.252 41.4527 165.151 41.6096C165.04 41.7577 164.76 41.9273 164.533 42.1281C163.85 42.7227 162.825 43.2978 161.744 43.4167C160.942 43.5327 159.791 43.4167 159.09 43.3767C158.82 43.3631 158.329 43.0531 158.19 42.8835C157.957 42.6301 157.943 42.1281 158.439 42.1418C158.795 41.7412 159.039 40.9721 159.436 40.6446C159.505 40.5851 159.892 40.5471 160.032 40.5657C160.227 40.6222 160.377 40.7986 160.497 40.9224C160.575 41.0014 160.713 41.3328 160.85 41.3649C161.087 41.4478 161.709 41.1095 161.855 40.9916C162.476 40.4848 162.615 39.0948 162.528 37.929C162.49 37.3442 162.349 36.7097 162.241 36.0595C162.134 35.4094 162.195 34.7252 162.125 34.039C161.995 32.7377 161.8 31.4277 161.702 30.183C161.686 29.8418 161.718 29.5055 161.702 29.1878C161.668 28.3008 161.668 27.3748 161.564 26.4333C161.458 25.4215 160.805 24.6427 160.576 23.7226C160.498 23.4068 160.444 23.0968 160.341 22.8054C160.239 22.5139 160.095 22.2429 160.056 21.9554C160.017 21.6679 160.045 21.2556 159.978 20.969C159.668 19.6102 157.944 19.5927 156.817 19.1307C156.258 19.5206 155.547 20.6902 155.547 20.6902C155.547 20.6902 155.219 21.1201 154.972 21.2546C154.834 21.3218 154.646 21.4135 154.46 21.508C153.968 21.7396 153.439 21.8828 152.897 21.931C152.078 21.9997 151.263 22.1106 150.456 22.2634C150.299 22.2936 150.101 22.3492 149.948 22.3784C149.795 22.4077 149.701 22.4652 149.557 22.4866C149.353 22.512 149.101 22.549 148.914 22.5841C148.542 22.6816 148.295 22.6387 148.035 22.8697C147.928 22.9672 147.887 23.0149 147.804 23.087C147.55 23.282 147.294 23.7333 147.218 24.0364C147.18 24.1282 147.15 24.2227 147.127 24.3191C146.989 25.1603 146.676 25.9098 146.561 26.7822C146.521 27.0922 146.582 27.447 146.561 27.7793C146.458 28.7277 146.458 29.6235 146.676 30.4803C146.832 31.1265 146.879 31.6499 147.092 32.2348C147.263 32.6588 147.695 33.0906 147.924 33.5019C148.013 33.6535 148.093 33.8108 148.162 33.9727C148.252 34.1881 148.377 34.4815 148.503 34.7369C148.61 34.9599 148.736 35.1734 148.879 35.3753C149.074 35.6472 149.397 35.8929 149.599 36.1872C149.813 36.5128 150.001 36.9894 150.211 37.4378C150.406 37.8481 150.687 38.3024 150.797 38.6893C151.021 39.436 151.117 40.1397 150.965 40.9497C150.945 41.1033 150.914 41.2554 150.874 41.4049C150.839 41.5599 150.789 41.7119 150.759 41.8455C150.674 42.1223 150.466 42.4868 150.381 42.8494C150.27 43.2276 149.855 43.7198 149.462 43.9119C148.949 44.484 148.533 44.6448 148.095 45.1419C147.831 45.4091 147.62 45.7228 147.471 46.0669C147.418 46.213 147.375 46.3629 147.344 46.5153C147.342 46.6659 147.358 46.8161 147.392 46.9627C147.392 47.4793 147.174 48.0749 146.993 48.4755C146.657 49.1929 145.994 49.5418 144.952 49.5262C144.797 49.5262 144.642 49.5418 144.464 49.5418C144.33 49.5287 144.195 49.5235 144.06 49.5262C143.884 49.5418 143.707 49.5067 143.521 49.5262C143.336 49.5457 143.173 49.5418 142.997 49.5418C142.821 49.5418 142.643 49.5262 142.44 49.5262C142.238 49.5262 142.087 49.5486 141.886 49.5652C141.762 49.5798 141.623 49.6159 141.467 49.6247C140.694 49.6559 139.759 49.88 139.271 49.4716C139.121 49.2809 139.018 49.0579 138.97 48.8205C138.9 48.5281 138.992 48.1645 138.924 47.8331C138.906 47.6981 138.879 47.5643 138.844 47.4325C138.8 47.2781 138.764 47.1212 138.738 46.9627C138.684 46.643 138.606 46.3516 138.621 46.0358C138.619 45.0726 138.562 44.1103 138.451 43.1535C138.412 42.7227 138.334 42.3221 138.318 41.8952C138.266 41.0403 138.342 40.1592 138.22 39.3336C138.189 39.126 138.122 38.9008 138.079 38.6689C138.039 38.4552 137.985 38.2446 137.917 38.0382C137.784 37.621 137.569 37.2175 137.49 36.8481C137.382 36.3471 137.445 35.8071 137.306 35.4045C137.247 35.2647 137.175 35.1309 137.09 35.0049C137.044 34.9016 136.992 34.8187 136.927 34.7027C136.843 34.5409 136.712 34.3684 136.64 34.2154C136.554 34.003 136.445 33.8007 136.315 33.612C136.239 33.4736 136.069 33.343 135.939 33.2095C135.683 32.956 135.45 32.3166 135.295 31.8595C135.214 31.5786 135.116 31.3026 135.002 31.0329C134.905 30.7951 134.709 30.3769 134.536 30.3506C134.306 30.3155 133.904 30.6304 133.64 30.7464C133.285 30.9169 132.951 30.9628 132.651 31.0797C132.372 31.1928 132.123 31.3166 131.878 31.4092C131.011 31.7269 130.161 32.0115 129.31 32.3663C129.071 32.4531 128.919 32.5369 128.677 32.6373C128.537 32.6841 128.321 32.7533 128.211 32.8001C128.086 32.8381 128.016 32.8976 127.886 32.9297C127.789 32.9609 127.67 32.9999 127.577 33.0379C127.292 33.1295 127.029 33.2797 126.75 33.3947C126.475 33.499 126.206 33.6201 125.946 33.7573C125.821 33.8265 125.667 33.9171 125.55 33.9795C125.228 34.1277 125.056 34.077 124.625 34.3226C124.234 34.3674 123.896 34.4825 123.509 34.5175C123.362 34.5253 123.186 34.4883 123.037 34.5331C122.806 34.6189 122.646 35.1959 122.519 35.4357C122.348 35.7428 122.303 35.7691 122.187 36.0547C122.058 36.3861 122.038 36.7175 121.941 37.1736C121.917 37.3432 121.807 37.6142 121.792 37.7916C121.7 38.4739 121.854 38.9233 121.979 39.5354C122.148 40.3824 122.303 41.2723 122.498 42.1047C122.553 42.3445 122.595 42.5619 122.666 42.8523C122.768 43.3027 123.022 43.7617 123.154 44.1965C123.23 44.4479 123.301 44.7004 123.395 44.9373C123.49 45.1741 123.555 45.4314 123.649 45.6381C123.774 45.8866 123.96 46.1118 124.105 46.3438C124.437 46.914 125.072 47.3234 125.614 47.7152C125.733 47.7907 125.847 47.8737 125.955 47.9637C126.081 48.0773 126.181 48.2166 126.248 48.3722C126.302 48.5271 126.371 49.1441 126.296 49.3829C126.248 49.5535 125.923 49.9151 125.71 49.9473C125.192 50.034 124.513 49.9853 123.894 49.9473C123.275 49.9093 122.635 49.8644 122.24 49.7231C122.119 49.681 121.994 49.6484 121.868 49.6256C121.389 49.5106 120.881 49.5662 120.413 49.5282C120.18 49.5096 119.945 49.5096 119.712 49.5282C119.472 49.5418 119.21 49.5944 119.021 49.5486C118.698 49.4716 118.528 49.0262 118.391 48.5739C118.241 48.1421 118.081 47.6782 118.065 47.3165C118.05 47.1538 118.094 46.9822 118.081 46.8233C118.05 46.3136 117.908 45.8272 117.871 45.3076C117.834 44.7881 117.693 44.2969 117.63 43.827C117.612 43.6958 117.587 43.5657 117.555 43.4372C117.512 43.2866 117.457 43.1396 117.391 42.9976C117.281 42.6506 117.261 42.1642 117.195 41.8016C117.147 41.4224 117 41.0988 116.87 40.7567C116.745 40.4506 116.584 40.1426 116.427 39.8405C116.081 39.2137 115.786 38.7303 115.168 38.3443C114.765 38.0743 114.142 38.0353 113.703 37.891C113.029 37.6561 112.66 37.1922 112.026 36.736C111.653 37.0762 111.237 37.2078 110.747 37.4622C110.552 37.5694 110.422 37.7546 110.231 37.891C109.854 38.1669 109.521 38.3443 109.164 38.6913C109.019 38.8453 108.8 39.0227 108.713 39.1611C108.678 39.2586 108.638 39.3853 108.592 39.4915C108.546 39.5978 108.486 39.7099 108.436 39.8258C108.344 40.1105 108.406 40.4272 108.297 40.7567C108.219 40.9828 108.027 41.0667 107.918 41.284C107.881 41.3688 107.835 41.4897 107.787 41.6144C107.746 41.7006 107.709 41.7891 107.678 41.8796C107.556 42.2889 107.509 42.79 107.4 43.291C107.302 43.7218 107.215 44.1955 107.122 44.6809C107.015 45.1683 106.999 45.6761 106.953 46.1868C106.907 46.72 106.835 47.2288 106.855 47.7201C106.855 47.9072 107.087 48.2006 107.119 48.3702C107.227 49.0096 107.289 49.5116 106.695 49.6178C106.322 49.6822 105.679 49.5964 105.225 49.5964C104.334 49.5964 103.476 49.6178 102.649 49.6266C101.877 49.6266 100.902 49.8839 100.87 49.0418C100.87 48.8322 101.026 48.7094 101.065 48.494C101.12 48.2688 101.041 48.0398 101.181 47.8692C100.986 47.4657 101.228 47.0582 101.336 46.6995C101.384 46.4832 101.398 46.2599 101.452 46.0894C101.6 45.527 101.831 45.0308 101.97 44.4138C102.008 44.2062 102 43.982 102.068 43.7949C102.113 43.6487 102.191 43.5278 102.239 43.3641C102.29 43.1175 102.283 42.7958 102.314 42.5073C102.381 42.0858 102.472 41.6683 102.585 41.2567C102.615 41.12 102.628 40.9803 102.624 40.8405C102.624 40.6456 102.561 40.4925 102.545 40.3005C102.545 40.1524 102.501 39.9682 102.513 39.7917C102.527 39.6297 102.532 39.467 102.53 39.3044C102.534 39.095 102.524 38.8857 102.501 38.6776C102.486 38.5324 102.47 38.2877 102.452 38.1386C102.416 37.9749 102.452 37.7604 102.416 37.5752C102.353 37.0957 102.353 36.619 102.329 36.1531C102.314 35.8315 102.298 35.2973 102.298 35.2973C102.298 35.2973 102.252 34.3021 102.252 33.7134C102.252 33.1247 102.267 32.5106 102.298 31.8527C102.353 30.6274 102.677 29.1537 102.677 27.8622C102.267 29.4393 101.966 31.107 101.573 32.7962C101.295 33.9659 101.032 35.2817 100.721 36.4699C100.612 36.8598 100.428 37.3111 100.413 37.6512C100.419 37.7451 100.435 37.8382 100.46 37.929C100.488 38.5772 100.295 39.2576 100.056 39.8356C99.9703 40.0598 99.8004 40.2518 99.652 40.4984C99.5243 40.7423 99.3835 40.9792 99.2301 41.208C98.8805 41.6505 98.2849 42.2743 97.6589 42.4673C97.3952 42.5424 96.9626 43.0522 96.9949 42.7246C97.0251 42.4225 97.5808 41.7187 97.8132 41.4653C98.0608 41.1719 98.2548 40.8374 98.3864 40.477C98.6354 39.6358 98.6169 38.6406 99.0905 38.122C99.1823 38.0138 99.3747 37.9515 99.4372 37.8657C99.5622 37.7117 99.6325 37.1736 99.7467 36.8403C99.9879 36.1385 100.079 35.4757 100.197 34.6784C100.256 34.3187 100.366 33.9756 100.413 33.6549C100.427 33.5448 100.475 33.3752 100.482 33.2894C100.514 33.0195 100.563 32.7519 100.629 32.4882C100.705 32.2172 100.757 31.9399 100.784 31.6597C100.816 31.4647 100.86 31.337 100.891 31.1889C100.921 31.0203 100.937 30.8448 100.953 30.6791C101 30.3253 101.06 30.0407 101.094 29.602C101.145 28.8359 101.353 27.8476 101.378 26.9996C101.388 26.6906 101.432 26.4235 101.475 26.1223C101.518 25.8211 101.56 25.5082 101.585 25.2178C101.608 24.9107 101.66 24.6329 101.682 24.3532C101.761 23.7196 101.807 23.0568 101.823 22.4242C101.869 21.7069 101.761 20.9339 101.877 20.3325C101.921 20.1171 102.062 19.8939 102.164 19.6502C102.503 18.8012 102.841 17.844 103.246 17.1267L104.1 15.7435ZM145.108 41.8474C145.235 41.7918 145.358 41.7297 145.477 41.6612C145.756 41.4517 145.724 41.2587 145.787 40.9049C145.847 40.59 146.047 40.3337 145.925 40.0335C145.842 39.8093 145.386 39.5705 145.076 39.3921C144.676 39.1601 144.406 38.9272 144.169 38.7683C144.137 38.8252 144.121 38.8894 144.122 38.9544C144.075 39.3833 144.091 39.9565 144.044 40.4565C144.012 40.8532 144.028 41.2587 144.004 41.6135C143.982 41.8796 143.874 42.133 144.044 42.326C144.601 42.3484 144.692 42.0921 145.108 41.8474Z" fill="#056839"/>
</g>
<line x1="267" y1="29.5" x2="192" y2="29.5" stroke="#056839"/>
<line x1="75" y1="29.5" y2="29.5" stroke="#056839"/>
<defs>
<clipPath id="clip0_2298_439">
<rect width="78" height="50" fill="white" transform="translate(97)"/>
</clipPath>
</defs>
</svg>
