<svg width="471" height="505" viewBox="0 0 471 505" fill="none" xmlns="http://www.w3.org/2000/svg">
<g opacity="0.05" clip-path="url(#clip0_2439_439)">
<path d="M78.1772 331.201L95.0307 322.461L93.2754 318.898L73.5445 329.153L79.6709 341.554L82.7549 340.485L78.1772 331.201Z" fill="#056839"/>
<path d="M92.911 344.203L98.2412 352.525L100.981 350.703L95.6506 342.347L100.376 339.149L105.947 347.848L108.687 346.025L101.018 334.073L82.5602 346.486L90.2633 358.541L93.2095 357.164L87.329 347.951L92.911 344.203Z" fill="#056839"/>
<path d="M121.092 361.329C115.542 363.705 107.08 367.39 104.785 368.766C106.803 366.053 111.418 358.776 114.46 353.558L110.611 349.039L93.9751 363.986L96.3462 366.759L102.508 361.227C105.383 358.65 108.977 355.317 110.791 353.428C108.123 357.136 102.585 365.787 99.6106 370.593L101.844 373.229C107.943 370.577 116.233 366.756 120.172 364.554C118.289 366.135 114.935 369.056 112.025 371.701L105.487 377.542L107.995 380.452L124.632 365.506L121.092 361.329Z" fill="#056839"/>
<path d="M122.175 389.649C119.255 387.117 120.208 382.967 123.218 379.361C126.229 375.755 129.689 374.137 132.711 376.737C135.734 379.338 134.679 383.591 131.839 387.025C129 390.459 125.266 392.489 122.175 389.821L122.175 389.649ZM134.896 389.797C138.83 385.024 139.813 378.953 134.868 374.676C129.922 370.399 123.72 372.571 120.128 376.932C115.988 381.98 114.971 387.948 119.985 392.294C124.999 396.639 130.825 394.776 134.896 389.797Z" fill="#056839"/>
<path d="M152.603 396.93C150.688 400.088 148.808 403.212 147.544 405.718C147.782 404.62 147.984 402.288 149.324 385.793L145.067 383.058L133.342 402.247L136.363 404.195L140.363 397.673C142.448 394.241 144.465 390.979 145.798 388.44C145.799 389.4 145.426 391.218 143.847 409.016L147.898 411.649L159.623 392.425L156.568 390.477L152.603 396.93Z" fill="#056839"/>
<path d="M164.15 412.201L171.631 415.479L172.894 412.459L165.379 409.147L164.15 412.201Z" fill="#056839"/>
<path d="M198.375 413.749C197.864 415.704 196.562 416.324 194.024 415.677L190.422 414.724L191.851 408.927L195.693 409.948C197.854 410.493 198.851 411.862 198.375 413.749V413.749ZM196.541 423.387C196.461 423.917 196.257 424.42 195.948 424.856C195.638 425.293 195.231 425.651 194.758 425.901C194.285 426.152 193.76 426.289 193.225 426.301C192.69 426.312 192.16 426.198 191.677 425.968L187.835 424.947L189.673 417.709L193.103 418.662C195.985 419.411 197.017 421.089 196.541 423.387ZM196.922 407.065L188.895 404.955L183.381 426.944L191.237 429.021C192.141 429.382 193.111 429.546 194.083 429.503C195.056 429.46 196.008 429.21 196.876 428.771C197.745 428.331 198.51 427.712 199.12 426.954C199.731 426.196 200.173 425.317 200.417 424.375C200.757 423.233 200.729 422.015 200.34 420.89C199.95 419.765 199.218 418.791 198.246 418.104C199.216 417.994 200.124 417.568 200.829 416.891C201.534 416.214 201.997 415.325 202.147 414.359C202.93 411.169 201.347 408.223 196.922 407.065" fill="#056839"/>
<path d="M204.477 432.048L208.319 432.692L211.877 410.261L208.001 409.617L204.477 432.048Z" fill="#056839"/>
<path d="M214.491 414.233L220.629 414.736L219.191 434.009L223.134 434.31L224.539 415.037L230.677 415.506L230.945 412.18L214.759 410.907L214.491 414.233Z" fill="#056839"/>
<path d="M248.74 411.598L232.523 412.211L232.632 415.571L238.769 415.32L239.456 434.657L243.399 434.512L242.712 415.175L248.849 414.958L248.74 411.598Z" fill="#056839"/>
<path d="M256.991 423.069L266.623 421.611L266.137 418.286L256.505 419.744L255.671 413.985L265.714 412.458L265.228 409.167L251.414 411.25L254.679 433.703L268.562 431.585L268.59 428.225L257.963 429.856L256.991 423.069Z" fill="#056839"/>
<path d="M278.508 415.828L275.081 416.795L273.424 410.454L277.502 409.35C279.524 408.763 281.24 409.343 281.792 411.399C282.344 413.455 280.873 415.207 278.577 415.828L278.508 415.828ZM287.844 420.645C287.084 417.835 285.813 416.295 283.447 416.093C284.406 415.454 285.125 414.513 285.49 413.42C285.854 412.326 285.843 411.141 285.458 410.055C285.244 409.206 284.845 408.415 284.291 407.738C283.737 407.061 283.041 406.514 282.251 406.135C281.462 405.757 280.599 405.558 279.724 405.55C278.849 405.543 277.983 405.728 277.187 406.093L268.894 408.405L274.661 430.305L278.362 429.269L275.91 419.913L279.097 419.016C282.113 418.187 283.349 419.008 284.074 421.613L284.075 422.161C284.418 423.9 284.998 425.583 285.799 427.164L289.466 426.163C288.787 424.54 288.233 422.868 287.811 421.16L287.844 420.645Z" fill="#056839"/>
<path d="M311.251 413.847C307.825 415.568 304.391 413.003 302.497 408.652C300.603 404.3 300.493 400.46 304.056 398.705C307.619 396.95 310.915 399.549 312.706 403.626C314.497 407.703 314.95 412.023 311.251 413.916L311.251 413.847ZM302.816 395.793C296.684 398.856 296.457 405.405 298.866 410.544C301.655 416.471 306.564 419.856 312.594 416.93C318.623 414.005 319.194 407.797 316.406 401.905C313.618 396.013 308.777 392.867 302.919 395.793" fill="#056839"/>
<path d="M326.095 393.658L323.081 395.686L319.642 390.241L323.067 387.834C324.813 386.631 326.493 386.559 327.765 388.408C329.037 390.258 328.081 392.317 326.095 393.658V393.658ZM336.384 395.216C334.803 392.784 333.121 391.793 330.824 392.346C331.521 391.422 331.896 390.295 331.894 389.138C331.892 387.981 331.512 386.856 330.812 385.934C330.335 385.203 329.704 384.586 328.962 384.126C328.221 383.666 327.387 383.374 326.521 383.271C325.654 383.168 324.775 383.256 323.947 383.53C323.118 383.803 322.359 384.255 321.724 384.854L314.567 389.736L326.809 408.64L329.994 406.474L324.767 398.392L327.506 396.535C330.143 394.713 331.515 395.019 333.028 397.348L333.338 397.827C334.205 399.371 335.281 400.788 336.534 402.039L339.685 399.873C338.549 398.549 337.515 397.141 336.591 395.661L336.384 395.216Z" fill="#056839"/>
<path d="M342.539 385.707C340.817 381.664 339.405 378.272 338.2 375.942C339.849 377.14 342.732 378.917 347.092 381.721L342.539 385.707ZM334.393 375.195C335.392 377.628 342.727 394.861 343.589 397.02L346.498 394.443L344.088 388.79L349.839 383.704L354.988 386.918L358.103 384.169L338.193 371.828L334.393 375.195Z" fill="#056839"/>
<path d="M354.516 354.619L360.114 359.752C362.794 362.216 365.507 364.645 367.704 366.355C366.675 365.946 364.274 365.333 348.802 361.213L345.38 365.06L361.867 380.184L364.262 377.437L358.732 372.304C355.778 369.601 352.962 367 350.73 365.221C351.622 365.528 353.337 366.039 370.216 370.671L373.397 366.996L356.911 351.734L354.516 354.619Z" fill="#056839"/>
<path d="M372.606 346.733L375.387 348.648L378.156 344.391C380.834 346.272 382.518 348.601 380.399 351.862C378.279 355.123 374.232 354.479 370.592 351.88C366.953 349.281 364.546 345.788 366.837 342.321C367.311 341.347 368.137 340.589 369.148 340.199C370.158 339.809 371.279 339.816 372.285 340.219L374.405 336.958C373.518 336.515 372.553 336.253 371.564 336.187C370.575 336.121 369.583 336.253 368.646 336.574C367.709 336.894 366.844 337.398 366.103 338.056C365.363 338.714 364.76 339.512 364.33 340.405C360.912 345.864 363.049 351.757 368.336 355.382C373.623 359.007 379.349 359.27 382.563 354.361C383.388 353.394 383.913 352.208 384.075 350.947C384.237 349.686 384.029 348.406 383.476 347.262C384.272 347.745 385.097 348.179 385.947 348.56L387.554 346.088L377.426 339.249L372.606 346.733Z" fill="#056839"/>
<path d="M397.392 326.903L394.714 324.988L389.898 334.837L383.96 331.762L388.298 322.839L385.381 321.336L381.043 330.259L375.963 327.628L380.506 318.328L377.589 316.859L371.338 329.626L391.107 339.807L397.392 326.903Z" fill="#056839"/>
<path d="M96.5136 180.779L98.085 177.656C93.4471 172.83 86.9545 166.293 83.5201 163.316C85.614 164.546 89.4926 166.733 92.9247 168.51L100.613 172.61L102.321 169.178L82.7228 158.723L80.1264 163.836C84.2836 168.286 90.7424 175.029 92.8372 176.705C89.6466 175.785 81.3456 174.018 75.5148 173.034L72.8159 178.354L92.414 188.81L94.0878 185.378L86.8114 181.517C83.3792 179.706 79.1233 177.485 76.7554 176.426C81.1123 177.653 90.9914 179.829 96.3766 180.882" fill="#056839"/>
<path d="M93.9834 147.558C95.8365 148.343 99.0616 149.434 103.933 150.968L100.514 155.946C97.9358 152.522 95.8042 149.441 94.0861 147.455L93.9834 147.558ZM106.323 163.513L102.713 158.548L107.193 152.265L112.923 154.175L115.351 150.741L93.187 143.411L90.246 147.565C91.7244 149.722 102.759 164.686 103.997 166.672L106.323 163.513Z" fill="#056839"/>
<path d="M108.523 129.769C111.432 126.609 115.101 127.048 118.399 130.265C122.212 133.996 122.939 137.834 119.962 140.995L117.704 143.468L106.23 132.208L108.523 129.769ZM122.263 143.15C126.849 138.239 126.358 132.308 121.136 127.209C120.251 126.109 119.13 125.222 117.855 124.614C116.581 124.005 115.187 123.691 113.775 123.694C112.363 123.696 110.97 124.016 109.698 124.629C108.426 125.242 107.308 126.133 106.427 127.236L101.122 132.766L117.096 148.441L122.263 143.15Z" fill="#056839"/>
<path d="M143.554 123.601L141.902 120.724L133.583 127.631L129.39 122.29L136.922 116.035L134.894 113.433L127.328 119.722L123.754 115.168L131.662 108.639L129.6 106.037L118.747 115.041L132.667 132.673L143.554 123.601Z" fill="#056839"/>
<path d="M160.267 112.837C159.161 108.108 157.259 99.642 156.12 95.7009C158.423 98.7483 163.921 105.013 167.186 109.053L170.851 107.092L165.7 84.2995L162.274 86.0888C163.31 89.9614 165.488 99.2496 167.005 103.807C164.736 100.691 158.414 93.5366 155.355 89.8049L152.169 91.4909C153.551 96.9402 155.625 105.817 156.592 109.553C154.357 106.128 149.889 100.479 145.456 95.0352L141.756 96.9966L156.636 114.662L160.267 112.837Z" fill="#056839"/>
<path d="M182.604 102.509L174.884 81.2307L171.217 82.6434L178.938 103.922L182.604 102.509Z" fill="#056839"/>
<path d="M186.609 80.8659L191.65 99.4751L195.454 98.4051L190.413 79.7616L196.341 78.0704L195.478 74.8489L179.817 79.3013L180.68 82.5228L186.609 80.8659Z" fill="#056839"/>
<path d="M208.135 95.5011L206.676 85.423L215.451 84.138L216.876 94.2161L220.75 93.626L217.553 71.1731L213.68 71.7289L214.965 80.8129L206.224 82.1322L204.939 73.0482L201.065 73.6383L204.262 96.0912L208.135 95.5011Z" fill="#056839"/>
<path d="M241.631 93.6898C242.863 93.9153 244.133 93.763 245.277 93.253C246.42 92.7429 247.383 91.8989 248.038 90.8319C248.032 91.7833 248.091 92.7341 248.214 93.6775L251.095 93.8436C251.094 93.2607 251.393 87.9798 251.689 81.3274L242.842 80.8981L242.677 84.3272L247.649 84.5923C247.655 88.0211 246.426 90.6292 242.619 90.4305C238.813 90.2319 237.263 86.3602 237.46 81.8681C237.657 77.376 239.433 73.4296 243.514 73.6277C244.597 73.5702 245.663 73.916 246.507 74.5982C247.35 75.2805 247.911 76.2508 248.081 77.3222L251.888 77.6238C251.751 75.6168 250.833 73.7432 249.33 72.406C247.828 71.0688 245.86 70.3745 243.851 70.4724C237.473 70.1757 233.573 75.2235 233.414 81.7729C233.255 88.3223 235.836 93.4606 241.597 93.7242" fill="#056839"/>
<path d="M262.994 75.9916L267.178 76.7723C269.236 77.18 270.61 78.3774 270.168 80.5384C269.694 83.2481 267.774 83.5602 265.407 83.1189L261.977 82.4738L262.994 75.9916ZM261.297 85.6297L264.556 86.2408C267.643 86.818 268.434 88.0164 267.993 90.7946L267.994 91.309C267.58 93.0492 267.398 94.8367 267.455 96.6247L271.16 97.3036C271.245 95.5525 271.46 93.81 271.802 92.0905L271.801 91.542C272.178 90.45 272.18 89.2631 271.805 88.1703C271.43 87.0774 270.7 86.1414 269.732 85.511C270.869 85.3526 271.92 84.8156 272.715 83.9867C273.51 83.1579 274.002 82.0855 274.112 80.9425C274.791 77.0666 272.283 74.4655 268.27 73.7186L259.832 72.1229L255.862 94.4518L259.635 95.1649L261.297 85.6297Z" fill="#056839"/>
<path d="M288.14 82.1166C287.972 84.1742 287.979 87.6372 287.954 92.9176L282.259 91.0081C284.721 87.5747 286.807 84.3821 288.106 82.0823L288.14 82.1166ZM277.062 99.007L280.481 93.9604L287.686 96.347L287.698 102.553L291.609 103.849L291.564 79.8471L286.795 78.2445C285.291 80.3732 274.759 95.8225 273.425 97.6765L277.062 99.007Z" fill="#056839"/>
<path d="M306.017 89.2838L309.175 90.7866C311.371 91.8455 312.609 93.5233 311.447 95.7542C310.285 97.9851 308.435 98.3657 306.101 97.2386L303.046 95.7699L306.017 89.2838ZM301.715 98.6525L305.146 100.223C309.402 102.273 313.344 101.58 315.256 97.3929C315.643 96.5172 315.842 95.5702 315.84 94.613C315.839 93.6558 315.637 92.7094 315.248 91.8349C314.859 90.9603 314.291 90.1771 313.581 89.5353C312.87 88.8935 312.034 88.4075 311.124 88.1086L304.02 84.693L294.595 105.284L298.027 106.992L301.715 98.6525Z" fill="#056839"/>
<path d="M323.391 121.414L325.513 118.872L316.415 113.026L319.936 107.225L328.21 112.524L329.919 109.675L321.68 104.376L324.688 99.4325L333.304 104.971L335.014 102.122L323.17 94.5321L311.479 113.79L323.391 121.414Z" fill="#056839"/>
<path d="M329.573 126.306L335.457 118.717L342.737 124.704L344.721 122.128L337.475 116.141L341.306 111.197L349.067 117.526L351.085 114.916L340.371 106.124L326.586 123.877L329.573 126.306Z" fill="#056839"/>
<path d="M356.108 124.13L359.097 127.245C359.466 127.521 359.77 127.873 359.99 128.277C360.209 128.682 360.338 129.129 360.369 129.589C360.399 130.048 360.329 130.508 360.164 130.938C360 131.368 359.744 131.757 359.415 132.079C357.533 134.002 355.748 133.149 354.065 131.403L351.42 128.871L356.108 124.13ZM342.59 137.871L349.435 131L351.771 133.396C353.97 135.689 353.973 137.164 352.022 139.122L351.645 139.499C350.335 140.697 349.185 142.059 348.224 143.552L350.904 146.324C351.942 144.923 353.086 143.602 354.325 142.375L354.667 141.997C355.599 141.313 356.271 140.334 356.574 139.218C356.878 138.103 356.793 136.918 356.336 135.856C357.344 136.393 358.506 136.57 359.628 136.356C360.751 136.141 361.766 135.55 362.506 134.679C363.095 134.034 363.544 133.275 363.825 132.447C364.105 131.62 364.211 130.744 364.135 129.874C364.06 129.004 363.804 128.159 363.385 127.393C362.966 126.626 362.392 125.956 361.7 125.423L355.653 119.159L339.911 135.098L342.59 137.871Z" fill="#056839"/>
<path d="M358.329 156.288C362.248 161.561 366.327 160.937 370.025 158.05L381.289 149.251L378.917 146.032L367.721 154.762C365.359 156.584 363.063 157.308 360.863 154.398C358.663 151.487 360.03 149.29 362.29 147.537L373.486 138.807L371.114 135.623L359.781 144.456C358.793 145.045 357.953 145.853 357.325 146.816C356.697 147.78 356.297 148.875 356.157 150.016C356.017 151.158 356.14 152.317 356.516 153.404C356.893 154.491 357.513 155.478 358.329 156.288" fill="#056839"/>
<path d="M368.196 171.117L387.067 159.252L385.003 155.862L366.167 167.692L368.196 171.117Z" fill="#056839"/>
<path d="M389.627 170.94L372.773 179.577L374.529 183.174L391.383 174.537L394.136 180.223L397.048 178.709L389.785 163.807L386.874 165.287L389.627 170.94Z" fill="#056839"/>
<path d="M87.1577 275.398C81.6716 275.408 80.2809 265.124 80.2581 252.917C80.238 242.117 81.5902 231.759 87.0763 231.749C89.4765 231.744 91.5038 234.072 92.3377 239.968L99.1906 237.418C97.2203 228.884 92.9952 224.812 86.9947 224.823C73.9652 224.847 72.6266 242.439 72.6467 253.24C72.6862 274.396 77.3299 282.342 86.6905 282.325C95.0569 282.309 98.7815 275.444 99.8635 267.282L93.0009 264.655C92.3937 270.005 90.5523 275.391 86.7463 275.398" fill="#056839"/>
<path d="M115.628 225.901L108.564 225.914L108.667 281.152L115.731 281.139L115.628 225.901Z" fill="#056839"/>
<path d="M123.39 232.812L132.373 232.796L132.464 281.108L139.527 281.095L139.437 232.782L148.42 232.766L148.407 225.84L123.377 225.886L123.39 232.812Z" fill="#056839"/>
<path d="M162.785 249.232L162.753 232.362L165.188 232.357C166.244 232.312 167.297 232.492 168.277 232.887C169.257 233.282 170.142 233.883 170.871 234.648C171.6 235.413 172.156 236.325 172.504 237.324C172.851 238.322 172.98 239.383 172.883 240.435C172.895 246.881 169.711 249.219 162.785 249.232ZM180.291 240.936C180.273 231.712 174.776 225.79 167.096 225.805L155.678 225.826L155.781 281.064L162.844 281.051L162.797 255.781L164.443 255.778L173.851 281.031L181.943 281.016L171.607 254.598C174.335 253.539 176.653 251.635 178.221 249.164C179.79 246.694 180.527 243.786 180.325 240.867" fill="#056839"/>
<path d="M205.919 267.221C205.925 270.65 205.179 275.211 200.962 275.219C196.744 275.227 195.844 270.703 195.838 267.24L195.761 225.751L188.697 225.764L188.775 267.356C188.796 278.671 193.911 282.124 200.975 282.111C208.038 282.098 213.003 278.66 212.982 267.311L212.905 225.719L205.841 225.732L205.919 267.221Z" fill="#056839"/>
<path d="M232.522 247.078C229.688 244.564 227.967 241.028 227.738 237.247C227.732 234.195 229.407 231.483 232.15 231.478C235.579 231.471 236.991 234.898 237.308 239.115L243.647 236.634C243.427 229.125 238.995 224.573 232 224.586C226.137 224.597 220.66 229.545 220.675 237.705C220.669 240.448 221.229 243.163 222.319 245.68C223.409 248.197 225.007 250.463 227.012 252.335L232.543 258.256C235.529 260.97 237.333 264.745 237.569 268.773C237.577 273.197 235.01 275.636 232.439 275.641C229.01 275.647 227.185 271.776 226.764 266.668L219.911 269.012C220.75 277.548 225.353 282.203 232.245 282.19C240.268 282.175 244.474 275.927 244.46 268.452C244.553 265.634 244.038 262.829 242.95 260.228C241.863 257.627 240.228 255.29 238.157 253.377L232.522 247.078Z" fill="#056839"/>
<path d="M276.698 253.442L276.658 232.149C282.11 232.139 284.552 236.181 284.564 242.421C284.575 248.661 282.767 253.294 276.698 253.305L276.698 253.442ZM276.646 225.463L269.514 225.476L269.617 280.715L276.68 280.701L276.641 259.991L277.807 259.989C287.339 259.971 291.921 252.899 291.902 242.819C291.879 230.372 285.767 225.686 276.646 225.703" fill="#056839"/>
<path d="M299.209 280.797L317.758 280.762L317.746 274.247L306.26 274.269L306.223 254.759L317.71 254.737L317.698 248.188L306.211 248.21L306.181 232.094L317.668 232.073L317.655 225.524L299.105 225.558L299.209 280.797Z" fill="#056839"/>
<path d="M324.959 280.749L343.508 280.714L343.496 274.199L332.01 274.221L331.973 254.711L343.46 254.689L343.448 248.14L331.961 248.162L331.931 232.046L343.418 232.025L343.405 225.476L324.855 225.51L324.959 280.749Z" fill="#056839"/>
<path d="M358.559 225.448L351.496 225.461L351.599 280.699L369.978 280.665L369.965 273.773L358.65 273.794L358.559 225.448Z" fill="#056839"/>
<path d="M386.819 246.79C383.985 244.277 382.264 240.74 382.035 236.959C382.029 233.907 383.67 231.195 386.447 231.19C389.876 231.184 391.288 234.61 391.57 238.827L397.943 236.346C397.724 228.837 393.292 224.285 386.297 224.298C380.4 224.309 374.957 229.257 374.972 237.418C374.968 240.157 375.525 242.869 376.609 245.385C377.693 247.901 379.281 250.168 381.274 252.047L386.84 257.968C389.819 260.684 391.612 264.461 391.831 268.486C391.84 272.909 389.273 275.348 386.735 275.353C383.307 275.359 381.482 271.488 381.061 266.38L374.208 268.724C375.047 277.261 379.616 281.915 386.542 281.902C394.565 281.887 398.771 275.639 398.757 268.164C398.85 265.346 398.335 262.542 397.247 259.94C396.16 257.339 394.525 255.003 392.454 253.089L386.819 246.79Z" fill="#056839"/>
<path d="M250.655 170.547C251.992 170.545 252.679 170.955 252.682 172.464L252.701 182.75C252.704 184.362 252.019 184.774 250.682 184.777L219.822 184.835C218.451 184.837 217.798 184.427 217.795 182.815L217.776 172.529C217.773 171.02 218.424 170.607 219.796 170.605L250.655 170.547ZM264.062 152.418L237.386 152.468L237.372 144.89C237.37 143.656 236.34 142.938 234.797 142.941C233.254 142.943 232.261 143.665 232.263 144.9L232.277 152.477L206.492 152.526C205.361 152.528 204.643 153.558 204.645 154.964C204.648 156.369 205.37 157.431 206.502 157.429L232.286 157.381L232.302 165.816L218.587 165.841C214.541 165.849 212.727 167.498 212.734 171.647L212.757 183.991C212.765 188.139 214.586 189.885 218.632 189.877L252.097 189.815C256.143 189.807 257.957 188.055 257.949 183.906L257.926 171.563C257.918 167.414 256.098 165.771 252.052 165.779L237.411 165.806L237.395 157.371L264.071 157.321C265.306 157.319 265.955 156.289 265.953 154.849C265.95 153.409 265.297 152.416 264.062 152.418" fill="#056839"/>
<path d="M206.536 139.427L222.343 139.398L222.351 143.821C222.354 145.193 223.246 145.808 224.789 145.805C226.332 145.802 227.291 145.183 227.289 143.812L227.28 139.389L242.916 139.36L242.924 143.783C242.927 145.154 243.819 145.77 245.362 145.767C246.905 145.764 247.864 145.145 247.862 143.773L247.853 139.35L263.969 139.32C265.203 139.318 265.853 138.357 265.85 136.814C265.847 135.271 265.194 134.415 263.96 134.417L247.844 134.447L247.835 129.407C247.832 128.069 246.939 127.385 245.328 127.388C243.716 127.392 242.895 128.079 242.897 129.416L242.906 134.388L227.271 134.417L227.262 129.445C227.259 128.108 226.366 127.424 224.755 127.427C223.143 127.43 222.322 128.117 222.324 129.454L222.334 134.426L206.527 134.456C205.327 134.458 204.677 135.419 204.68 136.859C204.682 138.299 205.336 139.361 206.536 139.359" fill="#056839"/>
<path d="M176.981 360.128C177.388 360.098 177.778 359.957 178.111 359.721C178.443 359.484 178.703 359.161 178.865 358.787C181.764 353.424 183.79 347.633 184.867 341.632C184.328 346.433 183.96 351.611 183.965 354.32L184.006 375.887C184.008 377.087 184.729 377.772 186.101 377.769C187.472 377.767 188.294 377.079 188.292 375.879L188.244 350.335C188.239 347.763 187.75 343.101 187.505 340.049C188.361 343.349 189.683 346.51 191.431 349.437C191.59 349.726 191.824 349.967 192.108 350.135C192.391 350.303 192.715 350.393 193.044 350.394C193.502 350.364 193.936 350.182 194.278 349.878C194.487 349.699 194.655 349.478 194.773 349.23C194.891 348.981 194.955 348.711 194.961 348.436C194.917 347.786 194.676 347.165 194.272 346.654C191.774 343.173 189.782 339.356 188.353 335.316L191.782 335.31C192.845 335.308 193.461 334.484 193.458 333.249C193.456 332.015 192.837 331.159 191.774 331.161L188.037 331.168L188.017 320.436C188.014 319.236 187.293 318.551 185.887 318.554C184.482 318.556 183.728 319.244 183.731 320.444L183.751 331.176L178.025 331.186C176.927 331.188 176.312 332.013 176.314 333.281C176.317 334.55 176.935 335.337 178.032 335.335L183.21 335.326C181.862 342.741 179.168 349.846 175.26 356.291C174.964 356.79 174.8 357.357 174.783 357.937C174.768 358.254 174.826 358.569 174.951 358.86C175.077 359.151 175.266 359.409 175.506 359.616C175.872 359.927 176.331 360.107 176.81 360.128" fill="#056839"/>
<path d="M195.328 343.429C195.316 343.736 195.375 344.041 195.501 344.32C195.619 344.66 195.842 344.953 196.139 345.156C196.436 345.359 196.79 345.462 197.149 345.449C197.434 345.469 197.721 345.469 198.006 345.447C204.114 343.067 209.621 339.369 214.136 334.616L214.376 334.616L214.386 340.102C214.389 341.508 213.978 341.989 212.675 341.991C211.646 341.945 210.623 341.798 209.623 341.551L209.177 341.552C208.778 341.564 208.395 341.714 208.095 341.978C207.795 342.241 207.597 342.601 207.534 342.995C207.498 343.165 207.498 343.34 207.535 343.509C207.515 343.915 207.649 344.313 207.91 344.624C208.171 344.935 208.541 345.136 208.944 345.187C210.373 345.501 211.835 345.648 213.299 345.625C216.556 345.618 218.475 344.552 218.468 341.157L218.456 334.643L226.994 334.627C227.542 334.626 227.851 334.625 227.852 335.071C227.853 335.517 227.852 335.379 227.544 335.654C226.212 337.056 224.705 338.28 223.059 339.297C222.846 339.452 222.668 339.649 222.536 339.877C222.404 340.104 222.321 340.357 222.292 340.619C222.263 340.881 222.29 341.145 222.37 341.396C222.45 341.647 222.581 341.878 222.756 342.075C222.937 342.334 223.178 342.544 223.46 342.687C223.741 342.83 224.053 342.901 224.369 342.895C224.928 342.879 225.468 342.686 225.911 342.344C228.138 340.748 230.111 338.826 231.764 336.641C232.382 335.818 232.728 334.822 232.753 333.793C232.75 332.113 231.479 330.847 229.318 330.851L217.489 330.873C220.633 329.539 223.611 327.842 226.36 325.816C226.791 325.517 227.147 325.123 227.402 324.665C227.657 324.207 227.803 323.696 227.83 323.173C227.827 321.664 226.556 320.329 224.018 320.334L200.188 320.379C199.228 320.38 198.681 321.204 198.683 322.267C198.685 323.33 199.235 324.221 200.195 324.219L221.077 324.18C221.694 324.179 221.934 324.178 221.935 324.487C221.935 324.795 221.764 324.796 221.456 325.071C219.183 326.702 216.736 328.075 214.16 329.165C212.064 327.743 209.86 326.486 207.569 325.405C207.232 325.22 206.856 325.115 206.472 325.099C206.211 325.104 205.956 325.169 205.724 325.289C205.493 325.408 205.292 325.578 205.136 325.787C204.862 326.102 204.706 326.502 204.692 326.919C204.7 327.172 204.778 327.419 204.918 327.63C205.058 327.842 205.253 328.011 205.483 328.118C206.615 328.63 208.915 329.689 210.768 330.885L197.053 330.911C196.162 330.913 195.615 331.668 195.617 332.731C195.619 333.794 196.169 334.684 197.06 334.683L209.781 334.659C205.748 337.7 201.263 340.092 196.491 341.747C196.136 341.878 195.833 342.118 195.624 342.433C195.415 342.748 195.311 343.121 195.328 343.498" fill="#056839"/>
<path d="M218.14 367.732C218.142 368.692 217.662 368.864 216.839 368.865L209.982 368.878C209.159 368.88 208.679 368.881 208.677 367.749L208.672 365.109C208.67 364.183 209.15 363.908 209.972 363.906L216.83 363.894C217.653 363.892 218.134 364.166 218.135 365.091L218.14 367.732ZM221.947 368.307L221.94 364.467C221.935 361.484 220.938 360.491 217.955 360.497L208.972 360.514C205.92 360.52 204.928 361.516 204.933 364.499L204.94 368.339C204.946 371.288 205.942 372.315 208.994 372.309L217.977 372.292C220.96 372.287 221.953 371.256 221.947 368.307Z" fill="#056839"/>
<path d="M227.307 354.994C225.953 355.157 224.591 355.24 223.227 355.241C222.301 355.243 221.41 355.245 220.69 355.246C219.215 355.249 219.043 354.872 219.041 353.569L219.036 351.374L225.586 351.362C226.751 351.36 227.301 351.77 227.303 353.039L227.307 354.994ZM226.47 347.349L200.719 347.397C200.032 347.299 199.332 347.36 198.673 347.575C198.014 347.791 197.413 348.155 196.917 348.64C196.42 349.125 196.042 349.717 195.811 350.371C195.581 351.025 195.503 351.724 195.585 352.412L195.629 375.728C195.631 376.791 196.489 377.475 197.826 377.473C199.164 377.471 199.985 376.783 199.983 375.72L199.941 352.953C199.939 351.684 200.486 351.272 201.652 351.27L207.31 351.259C207.242 352.742 206.696 354.163 205.752 355.308C204.808 356.454 203.518 357.262 202.075 357.612C201.782 357.757 201.536 357.982 201.366 358.262C201.197 358.542 201.111 358.864 201.118 359.191C201.096 359.507 201.181 359.821 201.36 360.082C201.473 360.366 201.667 360.611 201.917 360.787C202.166 360.963 202.462 361.063 202.768 361.074C203.113 361.068 203.452 360.985 203.762 360.832C205.764 360.116 207.51 358.825 208.782 357.121C210.053 355.417 210.794 353.376 210.91 351.252L215.402 351.244L215.408 354.433C215.413 357.416 216.649 358.271 219.667 358.471C220.627 358.469 221.69 358.467 222.787 358.465C224.3 358.489 225.812 358.406 227.313 358.217L227.335 370.389C227.339 372.275 226.928 372.79 225.214 372.793C223.997 372.883 222.774 372.805 221.579 372.56C221.443 372.532 221.303 372.533 221.168 372.561C220.413 372.562 219.797 373.146 219.628 374.278C219.595 374.425 219.596 374.577 219.629 374.724C219.595 375.173 219.727 375.619 219.999 375.979C220.271 376.338 220.665 376.586 221.107 376.675C222.787 377.024 224.5 377.193 226.217 377.18C230.263 377.172 231.802 375.387 231.795 371.546L231.759 351.968C231.752 348.539 230.07 347.239 226.607 347.246" fill="#056839"/>
<path d="M250.069 334.275C250.065 332.321 250.75 331.737 252.395 331.734L266.111 331.708L266.131 342.68L250.05 342.71C250.045 340.139 250.04 337.293 250.034 334.275L250.069 334.275ZM280.232 347.077C281.055 347.075 281.501 347.315 281.502 347.829C281.453 348.197 281.35 348.555 281.195 348.893C278.599 353.565 275.112 357.684 270.931 361.015C266.503 357.099 262.853 352.383 260.173 347.114L280.232 347.077ZM241.506 376.329C241.92 376.329 242.327 376.217 242.683 376.005C243.038 375.793 243.33 375.489 243.527 375.125C247.286 368.054 249.226 360.439 249.818 347.134L255.476 347.123C256.606 349.572 257.882 351.951 259.295 354.248C261.54 357.776 264.218 361.007 267.268 363.868C261.924 367.589 256.028 370.447 249.797 372.336C249.324 372.476 248.914 372.774 248.634 373.18C248.354 373.586 248.221 374.075 248.258 374.567C248.267 374.931 248.337 375.29 248.466 375.63C248.61 376.051 248.883 376.417 249.247 376.674C249.61 376.932 250.046 377.069 250.491 377.066C250.84 377.056 251.186 376.998 251.52 376.893C258.483 374.66 265.032 371.3 270.908 366.947C276.851 371.404 283.564 374.728 290.711 376.751C291.019 376.784 291.329 376.783 291.637 376.749C292.189 376.736 292.721 376.534 293.144 376.178C293.567 375.822 293.857 375.333 293.965 374.791C293.964 374.448 293.963 374.139 293.963 373.83C293.965 373.317 293.798 372.817 293.487 372.409C293.176 372 292.739 371.706 292.244 371.571C285.961 369.945 279.982 367.317 274.537 363.786C279.195 359.744 283.098 354.907 286.065 349.501C286.634 348.518 286.95 347.41 286.985 346.276C286.981 344.013 285.332 342.507 282.315 342.513L270.623 342.535L270.602 331.562L286.786 331.532C287.438 331.531 287.815 331.736 287.816 332.182C287.793 332.448 287.711 332.706 287.577 332.937C286.663 334.626 285.511 336.175 284.157 337.538C283.886 337.879 283.742 338.303 283.748 338.738C283.758 339.075 283.856 339.403 284.031 339.692C284.205 339.98 284.452 340.218 284.745 340.383C285.164 340.713 285.688 340.882 286.221 340.86C286.573 340.845 286.917 340.755 287.231 340.594C287.544 340.434 287.819 340.208 288.036 339.931C289.782 337.958 291.244 335.751 292.379 333.373C292.794 332.516 293.025 331.581 293.059 330.629C293.055 328.366 291.338 326.929 288.252 326.935L270.559 326.968L270.547 320.419C270.545 319.219 269.652 318.535 268.178 318.537C266.703 318.54 265.882 319.227 265.884 320.428L265.896 326.977L250.878 327.005C250.094 326.912 249.299 327.002 248.556 327.268C247.813 327.534 247.141 327.968 246.594 328.538C246.047 329.107 245.639 329.795 245.403 330.548C245.166 331.301 245.108 332.099 245.231 332.878C245.271 353.863 243.952 363.74 239.236 372.424C239.038 372.69 238.898 372.995 238.827 373.318C238.756 373.642 238.755 373.978 238.824 374.302C238.892 374.626 239.03 374.932 239.226 375.2C239.422 375.467 239.673 375.689 239.962 375.851C240.393 376.09 240.876 376.219 241.369 376.226" fill="#056839"/>
<path d="M441.108 251.524C441.128 262.633 447.22 274.691 453.07 286.339C460.229 300.555 467.628 315.319 463.811 327.464C459.993 339.61 445.641 347.283 431.768 354.578C420.429 360.599 408.68 366.793 402.353 375.788C396.027 384.784 393.619 399.052 391.552 412.394C389.079 428.549 386.742 443.811 377.223 450.961C371.907 454.536 365.555 456.248 359.162 455.829C351.625 455.595 344.116 454.796 336.699 453.437C329.022 452.028 321.249 451.205 313.447 450.977C308.801 450.878 304.17 451.535 299.735 452.923C289.25 456.371 279.839 466.264 270.701 475.676C259.853 486.943 248.594 498.622 236.456 498.679L236.461 501.525L236.456 498.679C224.969 498.7 214.354 487.953 203.155 476.659C193.674 467.042 183.849 457.117 172.767 453.468C168.324 452.107 163.694 451.456 159.048 451.54C150.991 451.808 142.968 452.706 135.051 454.225C127.633 455.659 120.114 456.51 112.563 456.769C106.501 457.202 100.468 455.609 95.41 452.241C85.5214 444.922 82.9539 428.743 80.4559 413.077C78.3741 399.949 76.2228 386.375 69.7254 377.266C63.2279 368.158 51.0778 361.7 39.4085 355.653C25.6799 348.546 11.5393 341.166 7.8144 329.481C4.08946 317.796 10.8188 304.136 18.0263 289.516C23.8671 277.436 29.9815 264.943 29.9254 253.285C29.9048 242.21 23.8132 230.152 17.9625 218.505C10.804 204.255 3.40444 189.524 7.22207 177.379C11.0397 165.234 25.3922 157.561 39.2653 150.232C50.6379 144.244 62.3871 138.016 68.6794 129.021C74.9717 120.026 77.4138 105.791 79.4805 92.4494C81.9534 76.295 84.2909 61.0323 93.8097 53.8483C99.1325 50.2902 105.482 48.5909 111.871 49.0144C119.408 49.2503 126.916 50.0499 134.334 51.4068C142.011 52.8159 149.784 53.6383 157.586 53.8666C162.235 53.9733 166.869 53.3041 171.298 51.8866C181.783 48.4382 191.194 38.58 200.332 29.1679C211.214 17.9011 222.439 6.2221 234.577 6.16517C246.064 6.14375 256.644 16.8563 267.878 28.1847C277.359 37.802 287.184 47.6929 298.266 51.3754C302.709 52.7366 307.339 53.3876 311.985 53.3043C320.042 53.0357 328.065 52.1379 335.982 50.6192C343.4 49.1845 350.919 48.3336 358.47 48.0743C364.528 47.6321 370.561 49.2128 375.623 52.5684C385.546 59.8876 388.113 76.1011 390.611 91.7662C392.693 104.895 394.844 118.435 401.342 127.578C407.839 136.72 420.024 143.109 431.659 149.191C445.387 156.297 459.494 163.677 463.253 175.328C467.012 186.979 460.248 200.673 453.041 215.293C447.166 227.408 441.086 239.866 441.108 251.524V251.524ZM468.393 173.536C463.909 159.623 448.705 151.697 434.049 144.078C422.998 138.304 411.534 132.359 405.724 124.175C399.914 115.991 397.936 103.273 395.993 90.8304C393.287 74.0341 390.546 56.5521 378.769 47.9335C372.772 43.8877 365.612 41.9254 358.391 42.3484C350.541 42.5992 342.723 43.4737 335.011 44.9636C327.389 46.4305 319.664 47.3046 311.906 47.5783C307.794 47.6802 303.692 47.1088 299.765 45.8866C289.952 42.6818 280.608 33.2356 271.573 24.0975C260.065 12.461 248.144 0.413568 234.292 0.439409C219.788 0.466465 207.674 13.0043 196.004 25.1298C187.346 34.0609 178.414 43.3355 169.196 46.4729C165.345 47.6608 161.33 48.2238 157.301 48.1409C149.787 47.9047 142.301 47.105 134.906 45.7483C127.217 44.3411 119.433 43.5187 111.62 43.2886C104.027 42.8523 96.5037 44.9532 90.2351 49.2605C78.8673 57.7852 76.2248 74.9684 73.6842 91.5687C71.719 104.225 69.7206 117.327 63.8729 125.704C58.0252 134.081 47.714 139.209 36.4785 145.128C21.5778 153.008 6.19741 161.128 1.66408 175.607C-2.86926 190.085 5.14941 205.911 12.7556 221.189C18.572 232.768 24.0442 243.696 24.0966 253.399C24.1158 263.686 18.3432 275.56 12.7756 287.023C5.46592 302.055 -2.11711 317.601 2.33172 331.343C6.78054 345.084 22.0197 353.182 36.675 360.835C47.7266 366.575 59.19 372.554 65 380.704C70.8099 388.854 72.7538 401.605 74.7315 414.048C77.4031 430.879 80.1787 448.326 91.9557 456.979C97.9596 461.009 105.114 462.97 112.333 462.565C120.182 462.297 127.999 461.422 135.713 459.949C143.336 458.483 151.061 457.608 158.819 457.335C162.927 457.254 167.023 457.813 170.96 458.992C180.773 462.403 190.116 471.677 199.151 480.781C210.659 492.452 222.58 504.465 236.364 504.439C250.868 504.412 262.948 491.84 274.652 479.749C283.31 470.783 292.242 461.543 301.46 458.406C305.303 457.185 309.324 456.621 313.355 456.738C320.869 456.974 328.355 457.774 335.75 459.13C343.45 460.54 351.246 461.362 359.07 461.59C366.652 462.019 374.162 459.918 380.421 455.618C391.789 447.094 394.431 429.91 396.972 413.31C398.937 400.62 400.935 387.518 406.783 379.003C412.63 370.489 422.942 365.498 434.177 359.545C449.078 351.7 464.458 343.545 468.991 329.066C473.525 314.588 465.506 298.796 457.9 283.518C452.083 271.939 446.611 261.012 446.559 251.308C446.54 241.022 452.312 229.147 457.88 217.685C465.19 202.653 472.773 187.106 468.324 173.33" fill="#056839"/>
<path d="M318.173 62.9278C319.373 62.468 320.679 62.3548 321.94 62.601C323.202 62.8472 324.368 63.4429 325.308 64.3203C325.742 64.6466 326.155 65.0009 326.544 65.3809C325.655 66.5483 324.834 67.7502 324.014 69.0204C324.803 69.3961 325.558 69.806 326.313 70.2161C326.86 69.2893 327.475 68.3965 328.091 67.5382C328.464 68.3313 328.653 69.1984 328.644 70.0746C328.681 70.5082 328.681 70.9437 328.647 71.3774L330.946 72.642C331.162 71.7896 331.276 70.9146 331.285 70.0354C331.265 68.384 330.787 66.7703 329.904 65.3746C331.574 63.3256 333.695 61.6906 336.102 60.5971C337.415 60.0362 338.847 59.807 340.271 59.9299C341.694 60.0528 343.065 60.5239 344.264 61.3018C345.618 62.0824 346.789 63.1443 347.698 64.4158C344.375 68.4636 341.465 72.8339 339.013 77.4615L341.176 78.7947C343.389 74.6405 345.963 70.6887 348.869 66.9852C348.87 67.431 348.87 67.8766 349.111 68.3562C349.012 72.9661 347.447 77.4248 344.643 81.0855L346.738 82.5217C349.858 78.3614 351.567 73.3122 351.614 68.1117C351.528 66.9314 351.248 65.7735 350.785 64.6844C353.036 62.0243 355.888 59.9385 359.105 58.5998C360.604 58.0183 362.222 57.8127 363.818 58.001C365.414 58.1893 366.94 58.7658 368.262 59.6799C369.554 60.4075 370.643 61.4467 371.43 62.7029C372.216 63.9592 372.676 65.3924 372.767 66.872C372.707 70.9537 371.529 74.9406 369.36 78.3992C368.265 78.3162 367.163 78.4228 366.103 78.7139C361.282 80.4672 357.185 83.7816 354.463 88.1306L356.454 89.7042C358.842 85.8137 362.455 82.8275 366.725 81.2157L367.891 81.0078C365.407 84.9221 362.629 88.6412 359.579 92.1327L361.571 93.775C364.965 89.8722 368.009 85.6786 370.668 81.2427C372.262 81.7494 373.718 82.6147 374.925 83.7721C376.059 84.708 376.96 85.8946 377.558 87.2383C378.155 88.5819 378.433 90.0458 378.368 91.5148C378.129 94.174 377.315 96.7495 375.982 99.0627C374.354 98.6178 372.628 98.693 371.045 99.2777C370.341 99.5197 369.673 99.8553 369.058 100.276L370.982 102.089L371.838 101.711C372.491 101.494 373.173 101.377 373.86 101.364L374.546 101.363C374.033 102.187 373.452 102.976 372.836 103.8C373.455 104.382 374.039 104.998 374.657 105.614C375.512 104.481 376.333 103.314 377.051 102.181C377.538 102.448 378.008 102.745 378.458 103.07C379.577 103.713 380.504 104.642 381.145 105.761C381.786 106.881 382.117 108.151 382.105 109.441C381.997 110.504 381.697 111.538 381.219 112.494L383.006 114.514C383.915 113.023 384.475 111.346 384.642 109.607C384.685 107.873 384.269 106.157 383.435 104.635C382.601 103.113 381.38 101.839 379.894 100.941C379.404 100.575 378.887 100.244 378.35 99.9499C379.776 97.3828 380.635 94.5402 380.871 91.6131C380.979 89.7724 380.662 87.9314 379.946 86.2324C379.229 84.5334 378.132 83.0218 376.739 81.8142C375.394 80.5404 373.806 79.552 372.07 78.9085C374.276 75.2024 375.452 70.9742 375.476 66.6612C375.358 64.7696 374.772 62.937 373.769 61.3286C372.767 59.7202 371.379 58.3867 369.733 57.4484C368.095 56.3411 366.217 55.6409 364.254 55.406C362.292 55.1711 360.302 55.4084 358.449 56.098C355.071 57.4921 352.051 59.6307 349.614 62.3548C348.499 60.9616 347.122 59.7994 345.562 58.9335C344.045 57.9688 342.319 57.3829 340.529 57.2251C338.738 57.0674 336.936 57.3424 335.274 58.0271C332.638 59.2493 330.301 61.0322 328.426 63.2515C327.967 62.8369 327.486 62.4487 326.984 62.0885C325.697 60.9568 324.124 60.2002 322.436 59.901C320.749 59.6019 319.012 59.7716 317.414 60.392C315.777 61.1876 314.356 62.3665 313.272 63.8285L315.742 64.8868C316.482 64.0325 317.391 63.3417 318.413 62.8587" fill="#056839"/>
<path d="M195.155 48.7561C195.874 47.6882 196.868 46.8337 198.031 46.2825C199.195 45.7313 200.485 45.5037 201.767 45.6236C202.303 45.5688 202.843 45.5678 203.379 45.6206C203.381 47.1293 203.384 48.7065 203.387 50.2838L205.924 49.8676C205.922 48.7361 205.92 47.5703 205.917 46.4388C206.679 46.8593 207.327 47.4582 207.807 48.184C208.111 48.5851 208.366 49.0223 208.563 49.4855L211.134 49.1377C210.807 48.2581 210.38 47.4191 209.861 46.6371C208.922 45.3088 207.624 44.2763 206.118 43.661C206.315 40.9816 207.106 38.3795 208.435 36.0446C209.18 34.8247 210.206 33.8011 211.428 33.0591C212.649 32.3171 214.031 31.8784 215.457 31.7798C217.024 31.578 218.618 31.7273 220.121 32.2169C219.692 37.5397 219.794 42.8921 220.425 48.1948L222.962 47.9843C222.39 43.2181 222.243 38.4105 222.523 33.6183C222.869 33.9115 223.191 34.2318 223.485 34.5765C225.991 38.5039 227.199 43.1197 226.939 47.7712L229.442 47.7665C229.674 42.5113 228.21 37.3208 225.265 32.9617C224.534 32.0755 223.664 31.3129 222.689 30.7034C223.082 27.1872 224.246 23.8011 226.1 20.7876C226.994 19.4444 228.191 18.3304 229.596 17.5356C231 16.7408 232.571 16.2876 234.183 16.2124C235.639 16.0336 237.117 16.2314 238.475 16.7872C239.833 17.343 241.025 18.2381 241.938 19.3867C244.234 22.7457 245.569 26.6672 245.8 30.7289C244.858 31.328 244.015 32.0699 243.301 32.9281C240.346 37.2727 238.898 42.4671 239.18 47.714L241.545 47.7096C241.244 43.0785 242.437 38.4728 244.95 34.5708C245.196 34.2598 245.471 33.9724 245.771 33.712C245.96 38.4374 245.808 43.1703 245.317 47.874L247.855 47.8692C248.386 42.6172 248.491 37.3308 248.168 32.0618C249.745 31.5323 251.423 31.3766 253.071 31.6069C254.507 31.7106 255.898 32.1555 257.128 32.9046C258.358 33.6537 259.391 34.6854 260.142 35.914C261.454 38.2406 262.242 40.8249 262.453 43.4873C260.912 44.1937 259.606 45.3265 258.688 46.7518C258.249 47.4204 257.883 48.1337 257.595 48.8797L260.201 49.1835C260.2 48.8749 260.543 48.5656 260.748 48.2566C261.28 47.4915 261.969 46.8476 262.767 46.367C262.769 47.43 262.771 48.4929 262.773 49.5558L265.311 49.9282C265.309 48.4538 265.306 46.9795 265.303 45.5394C265.84 45.5021 266.378 45.5011 266.915 45.5364C268.184 45.3726 269.474 45.5672 270.638 46.0983C271.803 46.6294 272.795 47.4757 273.504 48.5415C274.061 49.5104 274.413 50.5834 274.538 51.694L277.145 52.2377C277.024 50.4596 276.517 48.7291 275.661 47.1659C274.728 45.7289 273.419 44.5746 271.876 43.828C270.333 43.0815 268.616 42.7712 266.91 42.9305C266.305 42.895 265.698 42.8961 265.093 42.9339C264.804 40.0128 263.899 37.1862 262.437 34.6409C261.489 33.0847 260.186 31.7749 258.635 30.8184C257.083 29.8619 255.328 29.2858 253.512 29.1372C251.687 28.8917 249.832 29.0234 248.061 29.5245C247.737 25.2422 246.247 21.1303 243.752 17.6346C242.597 16.168 241.085 15.0216 239.361 14.3045C237.637 13.5875 235.759 13.3238 233.904 13.5383C231.91 13.6621 229.973 14.2565 228.252 15.2729C226.532 16.2893 225.076 17.6987 224.006 19.3858C222.047 22.507 220.801 26.0215 220.356 29.6791C218.664 29.1906 216.89 29.0539 215.143 29.2774C213.33 29.4088 211.574 29.9741 210.024 30.9258C208.475 31.8775 207.176 33.1875 206.239 34.7457C204.745 37.2933 203.837 40.1412 203.58 43.0829C202.963 43.0481 202.345 43.0492 201.728 43.0864C200.012 42.9517 198.292 43.2876 196.753 44.0577C195.214 44.8279 193.914 46.0031 192.993 47.4572C192.103 49.1185 191.602 50.9601 191.528 52.8432L194.133 52.2212C194.234 51.0193 194.582 49.8513 195.155 48.7904" fill="#056839"/>
<path d="M53.426 297.439C46.8323 269.515 46.4855 240.48 52.4102 212.406L418.506 211.998C424.452 240.067 424.131 269.103 417.567 297.034L53.426 297.439ZM416.342 302.248L54.773 302.649C54.4623 301.518 54.1515 300.353 53.8751 299.222L417.33 298.818C417.058 299.95 416.82 301.116 416.514 302.248L416.342 302.248ZM107.933 309.681L363.723 309.41C353.323 334.798 335.64 356.539 312.902 371.891C290.164 387.243 263.39 395.52 235.954 395.678C221.44 395.701 207.014 393.413 193.219 388.9C175.533 383.111 159.181 373.85 145.121 361.659C131.062 349.467 119.578 334.592 111.343 317.904C110.001 315.164 108.761 312.389 107.59 309.614L107.933 309.681ZM413.684 310.928C388.803 390.764 317.274 444.455 235.634 444.539C216.15 444.564 196.788 441.463 178.287 435.354C154.666 427.557 132.833 415.138 114.059 398.819C95.2852 382.501 79.9463 362.61 68.9357 340.305C64.0233 330.449 59.9329 320.204 56.7063 309.674L99.8408 309.594C101.425 313.5 103.113 317.371 105.006 321.208C113.621 338.719 125.643 354.336 140.368 367.143C155.094 379.951 172.226 389.692 190.763 395.796C205.257 400.592 220.427 403.029 235.694 403.016C265.054 402.832 293.678 393.809 317.836 377.123C341.994 360.436 360.565 336.859 371.13 309.465L414.161 309.384C413.991 309.933 413.855 310.482 413.684 311.031L413.684 310.928ZM53.4629 206.918L417.09 206.514C417.4 207.714 417.677 208.913 417.953 209.941L52.6121 210.383C52.8841 209.148 53.1562 207.947 53.4626 206.747L53.4629 206.918ZM364.752 199.103L105.636 199.586C115.496 173.153 133.16 150.343 156.284 134.181C179.408 118.02 206.9 109.272 235.111 109.098C249.614 109.078 264.029 111.366 277.813 115.876C297.562 122.467 315.602 133.357 330.636 147.761C345.669 162.164 357.321 179.723 364.752 199.171L364.752 199.103ZM57.0042 193.711C81.8858 113.875 153.448 60.1491 235.054 60.0654C254.54 60.0518 273.902 63.1646 292.401 69.285C316.024 77.0694 337.859 89.4802 356.634 105.793C375.408 122.107 390.746 141.995 401.753 164.299C407.347 175.449 411.869 187.106 415.258 199.111L372.433 199.191C364.838 178.166 352.588 159.131 336.598 143.509C320.609 127.887 301.293 116.082 280.097 108.979C265.61 104.203 250.455 101.766 235.2 101.76C205.088 101.979 175.776 111.482 151.263 128.974C126.75 146.465 108.23 171.093 98.2295 199.497L55.438 199.577C55.983 197.656 56.4937 195.735 57.1072 193.779L57.0042 193.711ZM408.124 161.064C396.722 137.926 380.829 117.288 361.371 100.353C341.913 83.4173 319.279 70.5238 294.789 62.4229C275.592 56.0706 255.501 52.8434 235.281 52.8646C150.589 53.0225 76.3557 108.708 50.3826 191.563C38.7503 228.657 38.0031 268.309 48.2299 305.815C48.214 305.918 48.2142 306.022 48.2304 306.124C48.251 306.879 48.5037 307.609 48.9544 308.214C52.4458 320.446 57.0592 332.328 62.7359 343.711C74.1688 366.859 90.0923 387.501 109.579 404.435C129.066 421.37 151.727 434.26 176.243 442.353C195.447 448.672 215.534 451.899 235.751 451.911C320.408 451.753 394.676 396.067 420.649 313.213C436.487 262.824 432.068 208.248 408.33 161.064" fill="#056839"/>
<path d="M88.8797 113.759C88.1814 112.615 87.7565 111.325 87.6383 109.99C87.6232 108.691 87.9501 107.411 88.5859 106.278C89.2217 105.146 90.1443 104.2 91.2609 103.537C91.6987 103.221 92.1562 102.934 92.6308 102.677C93.5079 104.075 94.4604 105.424 95.4842 106.718L97.2981 104.897C96.5419 103.904 95.7857 102.911 95.1323 101.884C95.9791 101.795 96.8349 101.899 97.636 102.188C98.2159 102.379 98.7694 102.643 99.2833 102.973L101.166 101.187C100.336 100.572 99.4227 100.077 98.4542 99.7173C96.9266 99.2086 95.2866 99.1403 93.7221 99.5204C92.3793 97.2027 91.5666 94.6165 91.3421 91.9473C91.2721 90.4884 91.5444 89.0335 92.1373 87.6987C92.7302 86.3639 93.6273 85.1863 94.7566 84.2602C95.9085 83.1677 97.289 82.3454 98.7981 81.8526C101.493 86.5338 104.673 90.918 108.286 94.9329L110.272 93.2834C107.012 89.6527 104.09 85.7332 101.541 81.5731L102.878 81.7764C107.286 83.5164 111.001 86.653 113.456 90.7058L115.442 89.125C112.645 84.6206 108.446 81.1591 103.491 79.2722C102.37 78.9966 101.213 78.8946 100.061 78.9699C98.3479 75.875 97.3679 72.428 97.1967 68.8945C97.1549 67.2628 97.4942 65.6438 98.1878 64.1663C98.8815 62.6888 99.9104 61.3937 101.193 60.3836C102.257 59.3749 103.565 58.6599 104.989 58.3087C106.413 57.9574 107.904 57.9819 109.315 58.3797C113.068 59.7329 116.372 62.1007 118.86 65.2196C118.416 66.2555 118.14 67.3557 118.043 68.4785C118.085 73.8427 119.89 79.0444 123.18 83.2815L125.269 81.8373C122.314 78.1032 120.657 73.5085 120.547 68.7482C120.579 68.3428 120.647 67.9409 120.75 67.5476C123.652 71.3738 126.239 75.4284 128.488 79.6714L130.645 78.2957C128.125 73.5811 125.191 69.0999 121.877 64.9052C122.827 63.4774 124.107 62.2991 125.608 61.4694C126.814 60.6951 128.193 60.2294 129.621 60.1132C131.05 59.9969 132.486 60.2338 133.802 60.8029C136.183 61.9196 138.283 63.5559 139.948 65.5917C139.019 67.0454 138.534 68.7381 138.551 70.4631C138.549 71.3772 138.666 72.2877 138.899 73.1714L141.194 71.8985C141.16 71.4191 141.159 70.9377 141.191 70.4582C141.186 69.5091 141.396 68.5711 141.804 67.7141C142.457 68.6386 143.11 69.5976 143.729 70.5908L145.99 69.3863C145.164 68.0849 144.271 66.7837 143.343 65.5853C143.734 65.1955 144.158 64.8392 144.609 64.52C145.532 63.6404 146.681 63.0354 147.928 62.7726C149.175 62.5099 150.471 62.5998 151.67 63.0325C152.763 63.5536 153.725 64.3135 154.486 65.2561L156.918 64.1543C155.789 62.6938 154.329 61.5215 152.66 60.7334C151.072 60.1171 149.344 59.9527 147.668 60.2584C145.992 60.5642 144.434 61.3281 143.165 62.4655C142.657 62.8305 142.177 63.2325 141.727 63.6682C139.849 61.4511 137.504 59.6758 134.86 58.4691C133.204 57.7789 131.408 57.4923 129.62 57.6328C127.832 57.7732 126.103 58.3368 124.575 59.2771C122.949 60.119 121.515 61.2892 120.364 62.7138C117.664 59.41 114.098 56.9232 110.064 55.5323C108.278 55.0348 106.394 55.0055 104.593 55.4473C102.792 55.889 101.136 56.7871 99.7823 58.0547C98.2045 59.3137 96.9373 60.9186 96.0786 62.7455C95.2199 64.5723 94.7929 66.5722 94.8303 68.5905C95.0073 72.2862 95.985 75.8994 97.6959 79.1801C96.0313 79.8036 94.5065 80.7504 93.2093 81.9658C91.8071 83.1579 90.6987 84.6574 89.9703 86.3477C89.242 88.0379 88.9134 89.8736 89.01 91.7116C89.2638 94.6581 90.1337 97.5183 91.5631 100.107C91.0153 100.403 90.4888 100.736 89.9876 101.105C88.5139 102.031 87.3071 103.325 86.4862 104.86C85.6653 106.395 85.2587 108.117 85.3065 109.857C85.5223 111.829 86.2079 113.721 87.3055 115.374L89.0848 113.416" fill="#056839"/>
<path d="M30.7512 218.961C30.0812 220.573 29.8444 222.333 30.0642 224.064C30.2839 225.796 30.9527 227.441 32.0041 228.834C33.3912 230.39 35.1516 231.566 37.1194 232.253C37.1177 231.362 37.2874 230.47 37.3886 229.579C36.0692 229.067 34.8918 228.246 33.9553 227.185C33.1883 226.127 32.7134 224.885 32.5786 223.585C32.4437 222.285 32.6537 220.973 33.1873 219.78C33.3501 219.249 33.5555 218.733 33.8016 218.236C35.4164 218.874 37.0659 219.42 38.7422 219.872L39.1488 217.3C37.8452 216.959 36.5757 216.55 35.3405 216.107C35.9727 215.524 36.7192 215.079 37.5326 214.8C38.2229 214.587 38.9365 214.459 39.6577 214.419L40.1672 211.846C39.006 211.826 37.849 211.99 36.7393 212.333C35.1356 212.855 33.7271 213.849 32.6986 215.186C30.2704 214.13 28.1197 212.527 26.4152 210.5C25.506 209.366 24.8758 208.033 24.5754 206.61C24.2749 205.188 24.3127 203.714 24.6855 202.309C24.9709 200.727 25.6001 199.228 26.5288 197.916C31.5213 200.089 36.7313 201.723 42.0705 202.791L42.683 200.252C37.8577 199.285 33.136 197.859 28.5825 195.992C28.9717 195.745 29.3849 195.537 29.8158 195.373C34.435 194.076 39.3582 194.394 43.7727 196.273L44.4882 193.768C39.5164 191.739 34.0029 191.459 28.8512 192.975C27.7977 193.418 26.8253 194.034 25.9743 194.797C22.8075 193.332 20.0311 191.14 17.8704 188.4C16.8812 187.092 16.2124 185.571 15.9176 183.958C15.6228 182.344 15.7103 180.685 16.173 179.111C16.4476 177.656 17.0832 176.293 18.0216 175.147C18.96 174.001 20.1711 173.108 21.5439 172.552C25.3572 171.414 29.4187 171.407 33.2362 172.53C33.4873 173.627 33.9057 174.679 34.4765 175.648C37.6753 179.998 42.2475 183.143 47.4541 184.573C47.7269 183.75 48.034 182.961 48.3068 182.137C43.6451 180.916 39.5322 178.157 36.6342 174.307C36.4621 173.965 36.2556 173.588 36.1178 173.245C40.7756 174.598 45.3099 176.344 49.6714 178.466L50.5926 176.03C45.755 173.704 40.7126 171.831 35.5297 170.435C35.5297 168.736 35.9133 167.059 36.652 165.529C37.1682 164.18 38.0001 162.973 39.078 162.011C40.1559 161.048 41.4485 160.358 42.8479 159.997C45.3973 159.413 48.0454 159.408 50.597 159.983C50.6602 161.711 51.2363 163.381 52.2518 164.78C52.8414 165.607 53.5472 166.345 54.3475 166.971C54.7231 166.147 55.0988 165.358 55.4402 164.568C55.0057 164.165 54.6142 163.718 54.272 163.233C53.7451 162.467 53.3709 161.606 53.17 160.698C54.3707 161.039 55.5373 161.482 56.6011 161.926C56.9769 161.171 57.3525 160.382 57.7626 159.627C56.2523 158.99 54.7056 158.443 53.1306 157.989C53.2385 157.445 53.3749 156.907 53.539 156.377C53.7809 155.113 54.3603 153.938 55.2157 152.977C56.0711 152.015 57.1706 151.303 58.3978 150.916C59.6571 150.592 60.9777 150.589 62.2381 150.909L63.571 148.575C61.7102 147.976 59.7272 147.861 57.8099 148.243C56.1618 148.735 54.6762 149.661 53.5084 150.924C52.3405 152.187 51.5335 153.74 51.1715 155.421C50.9689 156.015 50.8095 156.623 50.6948 157.24C47.8946 156.61 44.9891 156.616 42.1913 157.255C40.4272 157.702 38.7927 158.556 37.4192 159.75C36.0457 160.944 34.9716 162.443 34.2835 164.128C33.4793 165.828 33.0167 167.67 32.9221 169.548C28.8385 168.517 24.546 168.667 20.5449 169.983C18.8022 170.688 17.2635 171.818 16.0685 173.269C14.8736 174.72 14.0604 176.447 13.7027 178.293C13.1589 180.24 13.0633 182.284 13.4234 184.273C13.7834 186.262 14.5896 188.143 15.7813 189.776C18.0407 192.655 20.9154 194.993 24.1948 196.618C23.3009 198.118 22.6881 199.77 22.3866 201.49C21.9608 203.26 21.9386 205.104 22.3218 206.883C22.705 208.663 23.4838 210.334 24.6003 211.772C26.4636 214.006 28.8125 215.784 31.4676 216.971C31.2081 217.553 30.9803 218.149 30.7852 218.756" fill="#056839"/>
<path d="M58.0234 354.109C56.7868 353.713 55.6789 352.993 54.8148 352.024C53.9507 351.055 53.3621 349.872 53.1099 348.598C52.9387 348.084 52.8115 347.557 52.7298 347.021C54.4643 346.521 56.169 345.923 57.8354 345.229L56.6995 342.899C55.4049 343.452 54.0774 343.923 52.7247 344.313C52.9116 343.459 53.2719 342.653 53.7832 341.945C54.2612 341.298 54.8255 340.72 55.4602 340.227C55.0815 339.405 54.7029 338.651 54.3585 337.829C53.3604 338.545 52.4824 339.414 51.7574 340.406C50.7887 341.756 50.2105 343.346 50.0858 345.003C47.5368 345.591 44.8879 345.596 42.3367 345.018C40.9551 344.634 39.6841 343.928 38.6274 342.959C37.5708 341.989 36.7586 340.784 36.2573 339.44C35.5759 337.968 35.222 336.366 35.2199 334.745C40.5776 333.455 45.7814 331.595 50.7422 329.195L49.8118 326.762C45.3051 328.949 40.6012 330.703 35.7633 332C35.9334 331.561 36.1391 331.137 36.3782 330.731C39.3952 326.862 43.6111 324.104 48.3645 322.89C48.0887 322.102 47.7785 321.28 47.537 320.492C42.2165 321.867 37.5201 325.007 34.2155 329.397C33.6314 330.389 33.2054 331.466 32.9528 332.589C29.5546 333.329 26.0293 333.253 22.6659 332.368C21.1158 331.889 19.7007 331.05 18.5366 329.92C17.3724 328.79 16.4922 327.401 15.9676 325.866C15.3475 324.507 15.0746 323.015 15.1736 321.524C15.2726 320.034 15.7403 318.592 16.5346 317.327C18.9054 314.078 22.1453 311.564 25.8817 310.074C26.6908 310.834 27.6336 311.436 28.6623 311.852C33.855 313.449 39.4407 313.196 44.468 311.137C44.2264 310.314 43.9848 309.458 43.7775 308.635C39.3075 310.537 34.318 310.837 29.6523 309.484C29.2801 309.325 28.9238 309.13 28.5883 308.904C33.185 307.173 37.9197 305.833 42.7419 304.9L42.12 302.363C36.7736 303.411 31.5405 304.971 26.4933 307.022C25.51 305.632 24.8508 304.04 24.5643 302.362C24.2205 300.944 24.2105 299.465 24.5351 298.043C24.8597 296.62 25.5101 295.292 26.4349 294.164C28.1919 292.17 30.3825 290.606 32.8383 289.591C33.879 290.939 35.3033 291.941 36.924 292.464C37.9672 292.794 39.054 292.965 40.148 292.972C39.9407 292.081 39.8019 291.224 39.6289 290.367C38.974 290.335 38.3272 290.209 37.7081 289.994C36.8129 289.734 35.9981 289.252 35.3395 288.592C36.5388 288.144 37.841 287.765 39.109 287.419L38.6927 284.849C37.0134 285.297 35.2657 285.815 33.7924 286.401C33.5653 285.899 33.3696 285.384 33.2066 284.859C32.6725 283.677 32.4627 282.374 32.5989 281.084C32.7351 279.794 33.2124 278.564 33.9816 277.52C34.9153 276.465 36.0901 275.651 37.406 275.147C37.4044 274.29 37.2313 273.365 37.1267 272.473C35.1648 273.155 33.4167 274.341 32.0584 275.912C31.0033 277.298 30.3322 278.937 30.1126 280.665C29.8931 282.393 30.133 284.149 30.8082 285.755C30.9962 286.353 31.2264 286.937 31.4971 287.502C28.8745 288.7 26.5392 290.447 24.649 292.624C23.5002 294.048 22.6891 295.714 22.2767 297.496C21.8643 299.278 21.8614 301.131 22.2681 302.915C22.5902 304.77 23.2814 306.54 24.3008 308.123C20.4057 309.799 17.0433 312.509 14.5776 315.959C13.5679 317.575 12.9672 319.412 12.8274 321.312C12.6876 323.212 13.0128 325.118 13.775 326.864C14.4431 328.753 15.5422 330.46 16.9851 331.85C18.4281 333.24 20.1751 334.275 22.0877 334.872C25.5766 335.822 29.2373 335.956 32.7863 335.263C32.8881 337.071 33.3094 338.846 34.0305 340.507C34.6793 342.209 35.7202 343.735 37.0689 344.96C38.4176 346.184 40.036 347.074 41.7928 347.556C44.614 348.204 47.546 348.198 50.3648 347.54C50.4821 348.164 50.632 348.782 50.814 349.391C51.2058 351.101 52.0505 352.673 53.2595 353.944C54.4685 355.215 55.9972 356.137 57.6852 356.613C58.4046 356.78 59.1417 356.859 59.8801 356.849C61.2563 356.83 62.621 356.596 63.9248 356.155L62.6176 353.861C61.2083 354.303 59.7092 354.377 58.2634 354.075" fill="#056839"/>
<path d="M152.138 442.74C150.935 443.196 149.628 443.303 148.366 443.051C147.104 442.799 145.939 442.197 145.003 441.313C144.548 441.027 144.132 440.682 143.767 440.287C144.827 438.879 145.853 437.334 146.81 435.755C146.021 435.38 145.3 434.969 144.545 434.559C143.793 435.795 143.007 436.997 142.186 437.993C141.841 437.19 141.653 436.329 141.632 435.456C141.644 434.656 141.758 433.861 141.971 433.09L139.705 431.825C139.314 432.997 139.119 434.226 139.129 435.461C139.121 437.122 139.588 438.751 140.475 440.156C138.815 442.201 136.706 443.836 134.312 444.934C132.998 445.495 131.567 445.724 130.143 445.601C128.72 445.478 127.349 445.007 126.15 444.229C124.806 443.434 123.638 442.375 122.716 441.115C126.265 436.787 129.358 432.105 131.947 427.142L129.75 425.775C127.424 430.273 124.689 434.548 121.579 438.546C121.449 438.099 121.368 437.639 121.337 437.174C121.475 432.171 123.248 427.35 126.386 423.45C125.665 423.005 124.978 422.527 124.292 422.048C120.836 426.395 118.916 431.764 118.834 437.316C118.92 438.497 119.2 439.655 119.663 440.744C117.4 443.405 114.536 445.491 111.308 446.828C109.814 447.401 108.203 447.602 106.614 447.413C105.024 447.225 103.505 446.654 102.186 445.748C100.89 445.022 99.7957 443.984 99.0029 442.728C98.2102 441.472 97.7438 440.038 97.6461 438.556C97.7065 434.474 98.885 430.487 101.053 427.029C102.206 427.127 103.367 427.021 104.482 426.714C109.627 424.782 113.953 421.143 116.738 416.404L114.746 414.865C112.259 419.106 108.428 422.395 103.86 424.212C103.49 424.314 103.111 424.384 102.729 424.42C105.383 420.18 108.405 416.181 111.759 412.471L109.732 410.828C106.066 414.977 102.781 419.447 99.9166 424.185C98.3229 423.661 96.8679 422.785 95.6601 421.621C94.5473 420.684 93.6712 419.497 93.1027 418.158C92.5343 416.819 92.2895 415.364 92.3883 413.912C92.6057 411.249 93.4214 408.669 94.7744 406.364C96.4062 406.773 98.1215 406.698 99.7116 406.15C100.755 405.753 101.735 405.209 102.623 404.533L100.734 402.753C100.168 403.155 99.5441 403.468 98.8841 403.682C98.0207 404.008 97.0906 404.115 96.1758 403.996C96.9281 402.863 97.7147 401.799 98.5696 400.563L96.7489 398.749C95.6457 400.126 94.6293 401.571 93.7054 403.075C93.2092 402.824 92.7379 402.526 92.2979 402.186C91.1755 401.545 90.2433 400.617 89.5966 399.498C88.95 398.379 88.612 397.108 88.6171 395.815C88.79 394.35 89.2915 392.943 90.0839 391.698L87.8862 389.953C86.6649 391.701 85.913 393.733 85.7027 395.855C85.6444 397.584 86.051 399.297 86.8801 400.815C87.7092 402.333 88.9304 403.601 90.4164 404.487C90.9314 404.863 91.4806 405.205 91.9955 405.512C90.5424 408.07 89.6698 410.916 89.4394 413.849C89.3291 415.685 89.6448 417.522 90.3617 419.216C91.0786 420.91 92.1774 422.415 93.5723 423.614C94.9147 424.915 96.5175 425.917 98.2752 426.554C96.0598 430.256 94.8832 434.487 94.8693 438.801C94.9891 440.688 95.5729 442.516 96.5688 444.123C97.5647 445.73 98.942 447.067 100.578 448.014C102.214 449.14 104.101 449.849 106.074 450.078C108.046 450.307 110.045 450.051 111.896 449.33C115.28 447.962 118.303 445.833 120.731 443.107C121.827 444.505 123.194 445.669 124.749 446.529C126.27 447.483 127.998 448.059 129.787 448.211C131.577 448.363 133.376 448.085 135.037 447.401C137.674 446.182 140.012 444.398 141.885 442.176C142.328 442.619 142.811 443.019 143.327 443.374C144.612 444.51 146.187 445.267 147.876 445.561C149.566 445.854 151.304 445.673 152.897 445.036C154.817 444.086 156.457 442.654 157.655 440.878L155.253 439.854C154.351 441.052 153.178 442.017 151.829 442.672" fill="#056839"/>
<path d="M275.123 456.912C274.427 457.993 273.442 458.857 272.279 459.405C271.116 459.952 269.822 460.162 268.546 460.01C267.998 460.047 267.448 460.049 266.9 460.013C266.999 458.254 266.996 456.491 266.89 454.733L264.388 455.115C264.39 456.486 264.393 457.858 264.395 459.195C263.656 458.744 263.014 458.151 262.506 457.45C262.1 456.852 261.765 456.208 261.508 455.531L258.937 455.879C259.285 456.994 259.808 458.046 260.486 458.996C261.417 460.332 262.718 461.366 264.229 461.973C264.022 464.639 263.23 467.228 261.911 469.555C261.163 470.782 260.132 471.812 258.905 472.56C257.678 473.308 256.29 473.751 254.856 473.854C253.299 474.054 251.718 473.905 250.226 473.417C250.655 467.863 250.518 462.28 249.818 456.753L247.281 456.93C247.905 461.932 248.087 466.981 247.824 472.015C247.47 471.731 247.147 471.41 246.862 471.057C244.172 466.937 242.899 462.052 243.235 457.143L240.732 457.148C240.393 462.645 241.873 468.101 244.945 472.672C245.677 473.548 246.547 474.299 247.52 474.896C247.155 478.418 245.988 481.81 244.11 484.812C243.235 486.169 242.048 487.295 240.647 488.098C239.246 488.9 237.674 489.354 236.061 489.422C234.604 489.604 233.125 489.407 231.767 488.851C230.409 488.295 229.216 487.398 228.306 486.247C225.996 482.895 224.66 478.97 224.444 474.905C225.382 474.314 226.215 473.571 226.909 472.706C229.963 468.123 231.423 462.661 231.063 457.166L228.56 457.17C228.965 462.059 227.771 466.947 225.157 471.098L224.336 471.956C224.119 466.955 224.293 461.945 224.857 456.971L222.319 456.805C221.686 462.325 221.548 467.89 221.904 473.435C220.339 473.966 218.672 474.121 217.036 473.89C215.599 473.789 214.207 473.346 212.977 472.596C211.747 471.847 210.714 470.813 209.965 469.583C208.637 467.261 207.836 464.676 207.619 462.01C209.204 461.382 210.564 460.292 211.522 458.882C212.129 457.966 212.612 456.974 212.957 455.931L210.419 455.627C210.162 456.242 209.841 456.829 209.462 457.377C208.947 458.148 208.254 458.785 207.442 459.233C207.372 457.896 207.369 456.557 207.435 455.221L204.897 454.814C204.797 456.573 204.801 458.336 204.907 460.095C204.359 460.132 203.809 460.133 203.261 460.098C201.991 460.262 200.702 460.067 199.537 459.536C198.373 459.005 197.38 458.158 196.672 457.093C195.969 455.833 195.578 454.422 195.533 452.98L192.994 452.436C192.997 454.541 193.519 456.613 194.514 458.468C195.458 459.893 196.769 461.037 198.31 461.776C199.851 462.516 201.563 462.825 203.266 462.669C203.882 462.704 204.501 462.703 205.117 462.666C205.401 465.588 206.306 468.415 207.773 470.959C208.711 472.516 210.007 473.827 211.553 474.785C213.099 475.742 214.851 476.317 216.664 476.462C218.501 476.713 220.371 476.569 222.149 476.041C222.48 480.327 223.956 484.445 226.423 487.965C227.469 489.294 228.811 490.361 230.342 491.078C231.874 491.796 233.552 492.145 235.243 492.098L236.272 492.096C238.263 492.004 240.205 491.442 241.937 490.456C243.67 489.469 245.144 488.086 246.239 486.419C248.191 483.295 249.437 479.782 249.889 476.126C251.592 476.614 253.377 476.75 255.135 476.528C256.946 476.385 258.698 475.815 260.246 474.865C261.794 473.914 263.094 472.61 264.04 471.059C265.502 468.5 266.397 465.657 266.665 462.722C267.282 462.756 267.9 462.755 268.516 462.719C270.254 462.839 271.991 462.478 273.538 461.677C275.084 460.876 276.381 459.665 277.286 458.177C278.278 456.344 278.793 454.291 278.783 452.208L276.247 452.795C276.186 454.213 275.802 455.597 275.123 456.843" fill="#056839"/>
<path d="M381.467 391.977C382.108 393.108 382.518 394.354 382.673 395.644C382.692 396.947 382.363 398.232 381.72 399.367C381.078 400.501 380.144 401.443 379.017 402.097C378.584 402.431 378.126 402.73 377.647 402.991C376.778 401.596 375.837 400.247 374.828 398.95L372.98 400.771C373.754 401.736 374.477 402.742 375.145 403.784C374.299 403.853 373.447 403.749 372.642 403.48C372.061 403.277 371.507 403.001 370.994 402.661L369.078 404.481C369.917 405.093 370.842 405.576 371.823 405.916C373.356 406.455 375.012 406.535 376.59 406.148C377.938 408.463 378.751 411.051 378.97 413.721C379.045 415.18 378.775 416.637 378.182 417.973C377.589 419.308 376.689 420.485 375.555 421.408C374.403 422.5 373.023 423.323 371.514 423.816C368.805 419.114 365.613 414.707 361.991 410.667L360.006 412.316C363.296 415.963 366.241 419.906 368.806 424.095L367.434 423.892C362.997 422.134 359.266 418.958 356.822 414.859L354.802 416.44C357.611 420.985 361.833 424.482 366.821 426.396C367.942 426.67 369.099 426.772 370.25 426.698C371.973 429.779 372.965 433.214 373.149 436.739C373.187 438.378 372.843 440.004 372.143 441.488C371.444 442.971 370.408 444.271 369.119 445.284C368.056 446.284 366.754 446.994 365.337 447.345C363.921 447.696 362.438 447.676 361.031 447.288C357.269 445.951 353.961 443.581 351.486 440.448C351.94 439.356 352.215 438.198 352.303 437.018C352.216 431.603 350.378 426.361 347.063 422.078L344.974 423.522C347.974 427.304 349.667 431.957 349.799 436.783C349.8 437.194 349.801 437.606 349.596 437.983C346.648 434.089 344.015 429.966 341.721 425.654L339.563 427.03C342.102 431.862 345.083 436.447 348.469 440.728C347.514 442.164 346.221 443.343 344.704 444.164C343.498 444.938 342.119 445.404 340.69 445.52C339.262 445.637 337.826 445.4 336.51 444.831C334.129 443.714 332.029 442.078 330.364 440.042C331.314 438.596 331.812 436.9 331.795 435.17C331.779 434.161 331.628 433.157 331.343 432.188L329.083 433.427C329.209 434.001 329.267 434.588 329.257 435.175C329.261 436.109 329.064 437.034 328.68 437.885C327.958 436.892 327.27 435.865 326.582 434.769L324.321 435.939C325.17 437.361 326.1 438.733 327.106 440.048C326.715 440.438 326.291 440.794 325.84 441.113C324.914 441.987 323.763 442.586 322.516 442.843C321.269 443.099 319.975 443.004 318.779 442.567C317.576 442.005 316.527 441.16 315.723 440.104L313.29 441.171C314.462 442.693 315.981 443.913 317.72 444.729C319.641 445.215 321.655 445.201 323.569 444.687C325.483 444.173 327.233 443.177 328.653 441.794C330.534 444.009 332.878 445.783 335.52 446.993C337.174 447.689 338.971 447.978 340.761 447.838C342.55 447.697 344.279 447.131 345.805 446.185C347.431 445.343 348.865 444.173 350.016 442.748C352.706 446.063 356.276 448.552 360.316 449.93C361.276 450.197 362.269 450.333 363.265 450.336C366.005 450.285 368.634 449.245 370.666 447.407C372.24 446.147 373.502 444.54 374.355 442.713C375.208 440.886 375.628 438.888 375.584 436.872C375.427 433.173 374.448 429.555 372.718 426.282C374.398 425.651 375.934 424.693 377.239 423.462C378.637 422.275 379.74 420.78 380.463 419.096C381.185 417.411 381.508 415.581 381.404 413.75C381.19 410.801 380.33 407.935 378.886 405.355C379.43 405.059 379.946 404.714 380.427 404.323C381.912 403.418 383.129 402.133 383.952 400.6C384.775 399.068 385.174 397.343 385.108 395.605C384.918 393.659 384.255 391.788 383.178 390.157L381.398 392.115" fill="#056839"/>
<path d="M439.525 286.707C440.199 285.095 440.438 283.335 440.218 281.603C439.998 279.87 439.327 278.226 438.273 276.834C437.084 275.453 435.575 274.384 433.878 273.722C433.88 274.613 433.641 275.505 433.574 276.431C434.63 276.921 435.576 277.619 436.356 278.483C437.119 279.549 437.593 280.794 437.734 282.098C437.875 283.401 437.676 284.718 437.158 285.922C436.986 286.438 436.781 286.943 436.544 287.432C435.125 286.886 433.685 286.409 432.221 286C432.222 286.857 431.95 287.715 431.78 288.573C432.878 288.891 433.941 289.231 434.971 289.595C434.34 290.18 433.593 290.625 432.779 290.902C432.296 291.042 431.803 291.146 431.305 291.214L430.795 293.821C431.726 293.795 432.648 293.643 433.537 293.37C435.092 292.859 436.47 291.917 437.51 290.653C439.93 291.707 442.079 293.298 443.793 295.305C444.69 296.453 445.31 297.793 445.604 299.22C445.898 300.646 445.858 302.122 445.489 303.531C445.203 305.112 444.574 306.612 443.645 307.923C438.839 305.817 433.825 304.217 428.687 303.151C428.483 304.009 428.244 304.832 428.04 305.689C432.733 306.632 437.328 308.013 441.763 309.813C441.375 310.051 440.975 310.269 440.564 310.467C436.128 311.738 431.394 311.481 427.122 309.737C426.883 310.561 426.611 311.384 426.372 312.207C431.209 314.12 436.551 314.34 441.529 312.831C442.58 312.398 443.552 311.793 444.406 311.042C447.572 312.507 450.349 314.699 452.51 317.439C453.482 318.755 454.141 320.277 454.435 321.887C454.729 323.497 454.651 325.153 454.207 326.728C453.92 328.184 453.276 329.545 452.333 330.69C451.389 331.835 450.176 332.728 448.802 333.287C444.986 334.408 440.929 334.415 437.109 333.309C436.858 332.212 436.44 331.161 435.869 330.191C432.799 325.958 428.399 322.875 423.372 321.437C423.065 322.226 422.792 323.049 422.485 323.873C426.987 325.08 430.945 327.781 433.712 331.532C433.918 331.875 434.09 332.252 434.262 332.594C429.751 331.286 425.356 329.609 421.12 327.578C420.779 328.402 420.472 329.191 420.165 330.015C424.893 332.238 429.807 334.042 434.85 335.405C434.85 337.104 434.467 338.78 433.728 340.31C433.201 341.659 432.362 342.864 431.279 343.826C430.196 344.787 428.9 345.479 427.498 345.842C424.96 346.427 422.323 346.432 419.783 345.857C419.694 344.133 419.121 342.47 418.128 341.059C417.605 340.356 417.006 339.713 416.342 339.142L415.215 341.545C415.521 341.87 415.808 342.213 416.074 342.572C416.614 343.343 416.989 344.218 417.176 345.141C416.112 344.835 415.083 344.459 414.019 344.05C413.643 344.805 413.268 345.594 412.858 346.35C414.254 346.93 415.687 347.42 417.146 347.816C417.039 348.371 416.902 348.921 416.738 349.462C416.493 350.725 415.912 351.898 415.057 352.859C414.202 353.82 413.105 354.533 411.879 354.923C410.751 355.183 409.579 355.185 408.45 354.93C408.006 355.719 407.596 356.509 407.152 357.264C408.268 357.579 409.422 357.738 410.582 357.738C411.284 357.737 411.984 357.667 412.673 357.528C414.325 357.037 415.816 356.113 416.99 354.85C418.164 353.588 418.977 352.033 419.346 350.349C419.536 349.74 419.695 349.122 419.822 348.497C422.62 349.143 425.53 349.137 428.326 348.481C430.09 348.034 431.724 347.18 433.098 345.986C434.471 344.792 435.545 343.293 436.233 341.608C437.008 339.9 437.458 338.062 437.561 336.188C441.646 337.201 445.933 337.05 449.938 335.754C451.675 335.041 453.209 333.908 454.403 332.458C455.597 331.008 456.414 329.285 456.78 327.443C457.319 325.494 457.409 323.448 457.043 321.459C456.677 319.47 455.865 317.59 454.667 315.961C452.408 313.081 449.533 310.744 446.254 309.119C447.236 307.616 447.919 305.938 448.267 304.177C448.693 302.407 448.715 300.564 448.332 298.784C447.949 297.004 447.17 295.333 446.054 293.895C444.19 291.654 441.842 289.864 439.186 288.662C439.469 288.102 439.698 287.516 439.869 286.912" fill="#056839"/>
<path d="M448.329 170.796C444.828 169.846 441.156 169.712 437.596 170.404C437.532 168.591 437.109 166.809 436.352 165.161C435.703 163.458 434.662 161.933 433.313 160.708C431.965 159.483 430.346 158.594 428.589 158.112C425.766 157.481 422.838 157.486 420.017 158.128C420.016 157.545 419.741 156.928 419.568 156.311C419.201 154.618 418.386 153.054 417.207 151.783C416.029 150.512 414.53 149.582 412.869 149.089C411.155 148.683 409.369 148.686 407.657 149.099C408.104 149.887 408.551 150.674 408.964 151.462C410.094 151.222 411.262 151.22 412.393 151.456C413.624 151.866 414.724 152.596 415.581 153.57C416.438 154.544 417.022 155.728 417.272 157.001C417.438 157.519 417.576 158.046 417.687 158.578C416.282 158.958 414.877 159.44 413.506 159.957L414.642 162.321C415.67 161.942 416.664 161.563 417.657 161.252C417.483 162.115 417.135 162.932 416.633 163.655C416.355 164.002 416.058 164.335 415.744 164.651C416.122 165.473 416.501 166.261 416.845 167.083C417.518 166.523 418.127 165.889 418.659 165.194C419.619 163.842 420.185 162.25 420.296 160.596C422.841 159.973 425.498 159.968 428.045 160.582C429.436 160.956 430.716 161.657 431.78 162.628C432.844 163.598 433.659 164.809 434.159 166.159C434.837 167.62 435.191 169.21 435.197 170.821C430.151 172.025 425.247 173.758 420.565 175.991L421.495 178.389C425.72 176.417 430.112 174.825 434.619 173.633C434.448 174.05 434.243 174.452 434.004 174.835C431.259 178.507 427.366 181.157 422.943 182.364C423.253 183.152 423.529 183.975 423.805 184.797C428.753 183.359 433.095 180.34 436.167 176.202C436.756 175.209 437.193 174.133 437.464 173.011C440.862 172.267 444.388 172.342 447.751 173.232C449.332 173.687 450.782 174.515 451.977 175.646C453.172 176.777 454.079 178.179 454.62 179.734C455.231 181.095 455.499 182.585 455.4 184.074C455.302 185.562 454.839 187.004 454.053 188.272C451.679 191.51 448.439 194.012 444.706 195.49C443.876 194.768 442.938 194.179 441.925 193.747C437.047 192.203 431.79 192.358 427.011 194.186C427.252 195.009 427.494 195.831 427.701 196.654C430.381 195.774 433.176 195.295 435.996 195.232C437.685 195.194 439.365 195.494 440.936 196.114C441.289 196.276 441.633 196.459 441.965 196.661C437.665 198.298 433.242 199.591 428.737 200.526L429.359 203.062C434.385 202.014 439.305 200.513 444.06 198.578C445.071 199.951 445.733 201.551 445.989 203.237C446.346 204.652 446.366 206.131 446.047 207.555C445.728 208.979 445.079 210.308 444.153 211.435C442.431 213.422 440.275 214.987 437.852 216.008C436.779 214.686 435.349 213.701 433.733 213.169C433.009 212.937 432.261 212.789 431.503 212.728C431.505 213.619 431.815 214.51 431.988 215.401L432.983 215.639C433.871 215.916 434.682 216.396 435.351 217.041C434.392 217.386 433.432 217.696 432.438 217.972L432.855 220.543C434.226 220.163 435.562 219.715 436.864 219.233C437.103 219.733 437.31 220.248 437.484 220.774C438.008 221.959 438.212 223.26 438.076 224.547C437.94 225.835 437.469 227.065 436.709 228.113C435.985 228.938 435.099 229.604 434.107 230.073C434.109 230.964 434.282 231.89 434.352 232.781C435.981 232.126 437.444 231.116 438.633 229.824C439.672 228.431 440.334 226.792 440.553 225.067C440.772 223.343 440.541 221.59 439.883 219.981C439.692 219.384 439.461 218.801 439.194 218.234C441.828 217.04 444.166 215.279 446.042 213.078C447.193 211.655 448.005 209.989 448.418 208.206C448.83 206.424 448.832 204.57 448.423 202.787C448.106 200.942 447.414 199.181 446.39 197.613C450.294 195.936 453.668 193.227 456.148 189.777C457.152 188.159 457.747 186.32 457.88 184.42C458.014 182.519 457.683 180.616 456.916 178.872C456.256 176.984 455.164 175.277 453.726 173.886C452.289 172.496 450.546 171.461 448.638 170.864" fill="#056839"/>
</g>
<defs>
<clipPath id="clip0_2439_439">
<rect width="469.852" height="504.037" fill="white" transform="translate(0 0.876465) rotate(-0.106883)"/>
</clipPath>
</defs>
</svg>
