<svg width="80" height="12" viewBox="0 0 80 12" fill="none" xmlns="http://www.w3.org/2000/svg">
<path d="M12.3481 2.96336C12.3481 3.28384 12.1077 3.60432 11.7071 4.00492C12.1077 4.64589 12.3481 5.1266 12.3481 5.68745C12.3481 5.84769 12.3481 5.8477 12.2679 5.8477C12.1878 5.8477 12.1878 5.76759 12.1878 5.60735C12.1878 5.12662 12.0275 4.64587 11.6269 4.08502C10.9057 4.64587 9.94418 5.04649 8.66212 5.44709C7.46019 5.8477 6.3384 6.00795 5.37685 6.00795C5.21659 6.00795 5.13645 6.00795 5.05632 6.00795C4.25503 7.12965 3.85438 8.17122 3.85438 9.2128C3.85438 9.93389 4.09481 10.4947 4.49545 10.8953C4.8961 11.2959 5.53709 11.5363 6.25825 11.5363C7.70057 11.5363 8.90252 10.8953 10.0243 9.53325C10.6654 8.73204 11.066 7.93086 11.066 7.20977C11.066 6.80916 10.9859 6.48867 10.7455 6.24831C10.5051 6.00794 10.1846 5.9278 9.78395 5.9278C9.14291 5.9278 8.50188 6.2483 7.78072 6.88927C7.05956 7.53023 6.73905 8.17119 6.73905 8.73204C6.73905 8.81216 6.73903 8.81219 6.81916 8.81219H6.89932C7.05958 8.73207 7.13971 8.65194 7.29997 8.65194C7.54035 8.65194 7.70061 8.81218 7.70061 9.05255C7.70061 9.45315 7.54034 9.6134 7.1397 9.6134C6.81918 9.6134 6.6589 9.45315 6.6589 9.05255C6.6589 8.33146 6.97945 7.61038 7.70061 6.96942C8.42177 6.24832 9.14289 5.9278 9.86405 5.9278C10.8256 5.9278 11.3064 6.48865 11.3064 7.53022C11.3064 8.65192 10.8256 9.61339 9.78395 10.4947C8.74227 11.3761 7.62047 11.8568 6.33841 11.8568C5.45699 11.8568 4.73584 11.5363 4.09481 10.9755C3.5339 10.4146 3.21336 9.69353 3.21336 8.81219C3.21336 7.93086 3.5339 7.12964 4.09481 6.24831C1.93133 5.8477 0.889648 4.96636 0.889648 3.68442C0.889648 2.88321 1.29029 2.24227 2.09158 1.76154C2.89287 1.20069 3.85438 0.960327 5.05632 0.960327C6.73902 0.960327 8.42177 1.52116 10.1045 2.64285C10.425 2.56273 10.6654 2.56275 10.9859 2.56275C11.8673 2.24227 12.3481 2.48263 12.3481 2.96336ZM9.78395 2.32235C8.2615 1.44102 6.65892 1.04043 4.97621 1.04043C3.93453 1.04043 2.97296 1.28081 2.2518 1.76154C1.45051 2.24227 1.04987 2.80308 1.04987 3.52417C1.04987 4.72598 2.09158 5.44709 4.09481 5.8477C5.29674 4.08503 7.13969 2.8832 9.78395 2.32235ZM11.4666 3.92477C11.066 3.36392 10.5852 2.88321 9.94421 2.4826C8.98267 2.72296 8.10123 3.20372 7.21981 3.76457C6.33839 4.40554 5.61722 5.12661 5.05632 5.8477C6.09799 5.8477 7.21984 5.68745 8.5019 5.28684C9.78397 4.96636 10.7455 4.48562 11.4666 3.92477ZM12.1878 2.96336C12.1878 2.56275 11.7872 2.32235 10.9859 2.32235C10.7455 2.32235 10.425 2.32238 10.1045 2.4025C10.6654 2.8031 11.1461 3.28382 11.5468 3.84467C12.0276 3.52419 12.1878 3.20372 12.1878 2.96336Z" fill="#2B2B2B"/>
<path d="M14.1906 8.89224C14.1906 8.89224 14.1906 8.97239 14.1104 8.97239L13.7899 9.4531C12.8284 10.7351 12.1072 11.3761 11.6265 11.3761C11.3861 11.3761 11.2258 11.2959 11.0656 11.1356C10.9053 10.9754 10.8252 10.735 10.8252 10.4947C10.8252 10.1742 10.9855 9.7736 11.306 9.21274L12.5079 7.20969C12.6682 7.20969 12.7483 7.2898 12.9085 7.2898C13.0688 7.2898 13.229 7.28981 13.4694 7.20969L11.7867 10.014C11.5464 10.4146 11.3861 10.7351 11.3861 10.9754C11.3861 11.2158 11.4662 11.2959 11.7066 11.2959C12.1874 11.2959 12.9085 10.4947 14.0303 8.89224C14.0303 8.89224 14.1104 8.81211 14.1906 8.89224C14.1104 8.81211 14.1906 8.89224 14.1906 8.89224ZM14.0303 5.84761C14.0303 6.00785 13.9502 6.16808 13.7899 6.32832C13.6297 6.48856 13.4694 6.56873 13.3092 6.56873C13.0688 6.56873 12.9886 6.48858 12.9886 6.24822C12.9886 6.08797 13.0688 5.92775 13.229 5.76751C13.3893 5.60726 13.5496 5.5271 13.7098 5.5271C13.9502 5.5271 14.0303 5.60724 14.0303 5.84761Z" fill="#2B2B2B"/>
<path d="M16.9149 7.20974L16.8347 7.28984H15.8731L14.1904 10.0941C13.9501 10.4146 13.8699 10.7351 13.8699 10.8953C13.8699 11.1357 13.9501 11.2158 14.1904 11.2158C14.6712 11.2158 15.3924 10.4146 16.5142 8.81218C16.5142 8.73206 16.5943 8.73203 16.5943 8.73203C16.5943 8.73203 16.6744 8.73206 16.6744 8.81218C16.6744 8.81218 16.6744 8.89228 16.5943 8.89228L16.2738 9.29289C15.3122 10.5748 14.6712 11.2158 14.1904 11.2158C13.9501 11.2158 13.7898 11.1357 13.6295 10.9755C13.4693 10.8152 13.3892 10.5748 13.3892 10.3345C13.3892 10.014 13.5494 9.69352 13.7898 9.21279L15.0718 7.12959H14.3507L14.4308 7.04949H15.152L16.0334 5.6073C16.1937 5.6073 16.3539 5.6874 16.434 5.6874C16.5943 5.6874 16.7546 5.68742 16.8347 5.6073L15.9533 7.04949H16.9149V7.20974Z" fill="#2B2B2B"/>
<path d="M20.921 8.89235C20.921 8.89235 20.7607 9.13272 20.4402 9.45321C20.0396 9.85382 19.7191 10.0942 19.3986 10.0942C18.9979 10.0942 18.8376 9.85382 18.8376 9.45321C18.8376 9.29297 18.8377 9.13271 18.9178 8.89235C18.5973 9.13271 18.3569 9.4532 18.1165 9.69356C17.9563 9.93393 17.5556 10.4948 17.0748 11.296C16.8344 11.296 16.6742 11.296 16.594 11.296C16.594 11.296 16.4338 11.296 16.1133 11.296L17.3152 9.29296C17.9563 8.3315 18.1966 7.69053 18.1966 7.45017C18.1966 7.28993 18.1165 7.20981 18.0364 7.20981C17.796 7.20981 17.2351 7.77066 16.5139 8.81225C16.4338 8.89237 16.4338 8.89235 16.4338 8.89235C16.4338 8.89235 16.4338 8.89237 16.4338 8.81225V8.73209L16.594 8.57189C17.3953 7.53031 17.8761 7.04956 18.1165 7.04956C18.5172 7.04956 18.6774 7.28993 18.6774 7.85078C18.6774 8.25138 18.437 8.73213 18.0364 9.37311C18.2767 9.05262 18.5171 8.81224 18.7575 8.65199C18.9178 8.17126 19.1582 7.85076 19.4787 7.53027C19.7992 7.20978 20.0396 7.04956 20.1999 7.04956C20.3601 7.04956 20.4402 7.12967 20.4402 7.28992C20.4402 7.53028 20.1197 7.85076 19.3986 8.33149C19.3184 8.41161 19.1582 8.49175 18.9178 8.65199L18.8376 8.73209C18.7575 8.97246 18.7575 9.13271 18.7575 9.29296C18.7575 9.69356 18.9178 9.93392 19.2383 9.93392C19.6389 9.93392 20.0396 9.61347 20.5204 8.9725C20.8409 8.89238 20.8409 8.81223 20.921 8.89235C20.921 8.81223 20.921 8.89235 20.921 8.89235Z" fill="#2B2B2B"/>
<path d="M25.7297 8.8924C25.7297 8.97252 25.329 9.45324 24.688 10.3346C24.127 11.0557 23.6463 11.3762 23.2456 11.3762C23.0052 11.3762 22.845 11.296 22.6847 11.1358C22.5245 10.9756 22.4443 10.7352 22.4443 10.4948C22.4443 10.3346 22.5245 10.0141 22.7649 9.69362L22.6046 9.93397C22.1238 10.4948 21.8033 10.8954 21.5629 11.1358C21.3225 11.3762 21.0822 11.4563 20.9219 11.4563C20.6815 11.4563 20.5212 11.3762 20.361 11.216C20.2007 11.0557 20.1206 10.8154 20.1206 10.575C20.1206 10.2545 20.2007 9.934 20.4411 9.61352L21.8033 7.37012C21.9636 7.37012 22.1238 7.45022 22.204 7.45022C22.2841 7.45022 22.4443 7.45024 22.6847 7.37012L20.9219 10.2545C20.7616 10.575 20.6815 10.8153 20.6815 11.0557C20.6815 11.2961 20.7616 11.3762 21.002 11.3762C21.4828 11.3762 22.2841 10.4147 23.4059 8.57194L24.1271 7.37012C24.2873 7.37012 24.4476 7.45022 24.5277 7.45022C24.688 7.45022 24.8482 7.45024 25.0886 7.37012L23.8867 9.29301C23.3258 10.2545 23.0053 10.8153 23.0053 11.0557C23.0053 11.2961 23.0854 11.3762 23.3258 11.3762C23.7264 11.3762 24.3674 10.7352 25.2489 9.53336L25.4892 9.21291L25.6495 9.05265C25.6495 8.89241 25.6495 8.81228 25.7297 8.8924C25.7297 8.81228 25.7297 8.8924 25.7297 8.8924Z" fill="#2B2B2B"/>
<path d="M28.2128 6.00794C28.2128 6.16818 27.8923 6.56879 27.2512 7.20977C27.2512 7.37001 27.1711 7.53026 27.1711 7.61038C27.1711 7.93087 27.3314 8.33149 27.5718 8.97247C27.732 9.29296 27.8121 9.53333 27.8121 9.77369C27.8121 10.2544 27.5718 10.5749 27.1711 10.9755C26.7705 11.296 26.2095 11.4562 25.6486 11.4562C25.3281 11.4562 25.0076 11.3761 24.8473 11.1357C24.607 10.9755 24.5269 10.655 24.5269 10.3345C24.5269 9.9339 24.6871 9.61344 24.9275 9.21283C25.1679 8.89234 25.4884 8.65196 25.7288 8.65196C25.8089 8.65196 25.8089 8.65196 25.889 8.65196L26.4499 7.93084C26.6102 7.69047 26.8506 7.45013 27.1711 7.04952C27.2512 6.72903 27.4115 6.40856 27.5718 6.16819C27.732 5.92782 27.8923 5.76758 28.0525 5.76758C28.2128 5.8477 28.2128 5.92781 28.2128 6.00794ZM27.1711 8.97247C27.1711 8.81223 27.1711 8.65195 27.1711 8.49171C27.1711 8.33146 27.1711 8.17123 27.1711 7.85074C27.1711 7.61037 27.1711 7.45012 27.1711 7.28987C26.9307 7.61036 26.5301 8.17124 25.9692 8.81222C26.0493 8.89234 26.1294 8.97243 26.1294 9.13268C26.1294 9.45316 25.889 9.61342 25.4083 9.69354C25.248 9.77366 25.0076 9.85381 24.9275 10.0141C24.7672 10.1743 24.6871 10.3345 24.6871 10.5749C24.6871 10.7352 24.7672 10.9755 24.9275 11.0556C25.0878 11.2159 25.248 11.296 25.4884 11.296C25.889 11.296 26.2897 11.0556 26.6903 10.5749C27.0108 10.0141 27.1711 9.53333 27.1711 8.97247Z" fill="#2B2B2B"/>
<path d="M45.8418 1.84159C45.8418 2.16208 45.4412 2.88317 44.5598 3.84463C43.6783 4.88621 42.877 5.68742 41.9956 6.24827C41.3546 7.61034 40.7135 8.57181 40.0725 9.21278C39.4315 9.85375 38.5501 10.3345 37.4283 10.5749C39.4315 11.1357 40.5533 11.376 40.954 11.4562C41.3546 11.5363 41.7552 11.6164 42.0757 11.6164C42.5565 11.6164 43.0373 11.4562 43.4379 11.0556C43.5181 11.0556 43.518 11.0556 43.518 11.0556C43.518 11.0556 43.5181 11.0556 43.5982 11.0556C43.5982 11.1357 43.4379 11.2959 43.1976 11.4562C42.7168 11.7767 41.9956 11.9369 41.0341 11.9369C40.393 11.9369 39.6719 11.8568 39.0308 11.7767C38.3898 11.6164 37.4283 11.3761 36.1462 10.9755C35.3449 11.1357 34.4635 11.2158 33.5821 11.2158C32.0596 11.2158 31.2583 10.9754 31.2583 10.4947C31.2583 10.014 31.8192 9.85374 33.0212 9.85374C33.9827 9.85374 35.3449 10.0941 37.1879 10.5749C37.7488 10.3345 38.2295 10.014 38.6302 9.61338C39.0308 9.21278 39.5917 8.49165 40.2328 7.5302C38.7904 8.81214 37.3481 9.45313 36.066 9.45313C35.1846 9.45313 34.4635 9.21277 33.9827 8.65192C33.5019 8.17119 33.1814 7.45011 33.1814 6.56878C33.1814 5.20671 33.8224 3.92473 35.1045 2.72291C36.3866 1.52109 37.7487 0.880127 39.1109 0.880127C39.752 0.880127 40.3129 1.0404 40.7135 1.36088C41.1142 1.68137 41.2744 2.16206 41.2744 2.72291C41.2744 3.76449 40.7937 4.80609 39.8321 5.84767C38.8706 6.96937 37.9892 7.4501 37.0276 7.4501C36.627 7.4501 36.3064 7.36995 36.066 7.12959C35.8257 6.88923 35.6654 6.56876 35.6654 6.24827C35.6654 6.00791 35.7455 5.76753 35.9058 5.52716C36.066 5.36692 36.3064 5.2067 36.4667 5.2067C36.7872 5.2067 36.9475 5.36693 36.9475 5.68741C36.9475 5.84766 36.8674 6.0079 36.7872 6.08802C36.7071 6.24826 36.5468 6.24827 36.3866 6.24827C36.1462 6.24827 36.066 6.16813 36.066 5.92777C36.066 5.76753 36.0661 5.68741 35.9859 5.68741C35.9058 5.68741 35.8257 5.84769 35.8257 6.16817C35.8257 6.48866 35.9058 6.72902 36.1462 6.96939C36.3866 7.20975 36.7071 7.28984 37.0276 7.28984C37.8289 7.28984 38.7103 6.72899 39.6719 5.68741C40.6334 4.64583 41.0341 3.60427 41.0341 2.64281C41.0341 2.16208 40.8738 1.68137 40.4731 1.36088C40.1526 1.0404 39.6718 0.880127 39.1109 0.880127C37.8289 0.880127 36.5469 1.5211 35.3449 2.88316C34.143 4.16511 33.5019 5.60732 33.5019 6.96939C33.5019 7.61036 33.7423 8.17121 34.143 8.57182C34.5436 8.97242 35.1846 9.13263 35.9058 9.13263C36.5468 9.13263 37.1879 8.9724 37.8289 8.65192C38.4699 8.33143 39.2712 7.7706 40.1527 6.96939C40.954 5.68744 41.5148 4.72597 41.8354 4.24524C42.1559 3.76451 42.5565 3.28379 43.0373 2.80306C43.9187 1.8416 44.6399 1.36088 45.1206 1.36088C45.6815 1.52113 45.8418 1.60123 45.8418 1.84159ZM35.9859 10.8953C34.2231 10.3345 33.0211 10.0941 32.4602 10.0941C31.8192 10.0941 31.4987 10.2543 31.4987 10.4947C31.4987 10.8953 32.3 11.0556 33.8224 11.0556C34.5436 11.0556 35.2648 11.0556 35.9859 10.8953ZM45.6815 1.84159C45.6815 1.76147 45.6014 1.68134 45.5213 1.68134C45.1206 1.68134 44.6399 2.08197 43.9988 2.80306C43.4379 3.44403 42.7969 4.56571 42.0757 6.08802C42.9572 5.36693 43.7584 4.56571 44.4796 3.68438C45.2809 2.72292 45.6815 2.08196 45.6815 1.84159Z" fill="#2B2B2B"/>
<path d="M45.5227 8.89223C45.5227 8.89223 45.5227 8.97238 45.4426 8.97238L45.122 9.37299C44.1605 10.6549 43.4393 11.2959 42.9585 11.2959C42.7181 11.2959 42.5579 11.2158 42.3976 11.0555C42.2373 10.8953 42.1572 10.6549 42.1572 10.4146C42.1572 10.0941 42.3175 9.69344 42.638 9.13259L43.8399 7.12954C44.0002 7.12954 44.0803 7.20969 44.2406 7.20969C44.4009 7.20969 44.5611 7.20966 44.8015 7.12954L43.1188 9.9338C42.8784 10.3344 42.7181 10.6549 42.7181 10.8953C42.7181 11.1356 42.7983 11.2158 43.0386 11.2158C43.5194 11.2158 44.2406 10.4146 45.3624 8.81213C45.4426 8.89225 45.4425 8.81211 45.5227 8.89223C45.5227 8.81211 45.5227 8.89223 45.5227 8.89223ZM45.3624 5.84761C45.3624 6.00785 45.2823 6.16807 45.122 6.32832C44.9618 6.48856 44.8015 6.56872 44.6413 6.56872C44.4009 6.56872 44.3207 6.48858 44.3207 6.24822C44.3207 6.08797 44.4009 5.92775 44.5611 5.7675C44.7214 5.60726 44.8816 5.5271 45.0419 5.5271C45.2823 5.5271 45.3624 5.60724 45.3624 5.84761Z" fill="#2B2B2B"/>
<path d="M53.7741 8.89226C53.7741 8.89226 53.7741 8.97241 53.6939 8.97241L53.3734 9.37302C52.4119 10.655 51.7708 11.2959 51.2901 11.2959C51.0497 11.2959 50.8894 11.2158 50.7291 11.0556C50.5689 10.8953 50.4888 10.655 50.4888 10.4146C50.4888 10.1742 50.5689 9.85371 50.8093 9.53323C50.8093 9.4531 51.0497 9.21274 51.3702 8.73201C51.7709 8.17115 52.0112 7.77054 52.0112 7.53018C52.0112 7.28981 51.9311 7.20972 51.6907 7.20972C51.0497 7.20972 49.9279 8.57179 48.3253 11.2158C48.2451 11.2158 48.0849 11.2158 47.9246 11.2158C47.6842 11.2158 47.524 11.2158 47.3638 11.2158L48.4054 9.53323C49.1266 8.41152 49.4471 7.77054 49.4471 7.53018C49.4471 7.28981 49.367 7.20972 49.2067 7.20972C48.9663 7.20972 48.4856 7.61033 47.8445 8.41155C47.2035 9.21277 46.6426 10.1742 46.0016 11.2959C45.9214 11.2959 45.7612 11.2959 45.6009 11.2959C45.4407 11.2959 45.2002 11.2959 45.1201 11.2959L46.1618 9.61338C46.883 8.49167 47.2836 7.77056 47.2836 7.45007C47.2836 7.28983 47.2035 7.20972 47.1233 7.20972C46.883 7.20972 46.4022 7.77057 45.6009 8.81216C45.5208 8.89228 45.5208 8.89226 45.5208 8.89226C45.5208 8.89226 45.5208 8.89228 45.5208 8.81216C45.5208 8.73203 45.7612 8.49166 46.2419 7.85068C46.7227 7.28983 47.0432 7.04946 47.2836 7.04946C47.4439 7.04946 47.6041 7.12958 47.6843 7.28982C47.7644 7.45006 47.8445 7.61032 47.8445 7.85068C47.8445 8.17117 47.6843 8.57178 47.4439 9.05251C48.3253 7.77056 48.9663 7.04946 49.4471 7.04946C49.6875 7.04946 49.8477 7.12958 49.9279 7.28982C50.0881 7.45006 50.1683 7.69042 50.1683 7.93079C50.1683 8.25127 50.008 8.5718 49.7676 8.97241C50.7292 7.69046 51.4503 6.96936 51.9311 6.96936C52.1715 6.96936 52.3317 7.04947 52.492 7.20972C52.6522 7.36996 52.7324 7.61032 52.7324 7.85068C52.7324 8.17117 52.5721 8.49165 52.3317 8.89226C52.3317 8.89226 52.0913 9.21276 51.6907 9.85373C51.4503 10.1742 51.2901 10.4947 51.2901 10.655C51.2901 10.8953 51.3702 10.9755 51.6106 10.9755C52.0112 10.9755 52.6522 10.3344 53.5337 9.13262L53.7741 8.81216L53.9343 8.6519C53.6939 8.89227 53.7741 8.81214 53.7741 8.89226C53.7741 8.81214 53.7741 8.89226 53.7741 8.89226Z" fill="#2B2B2B"/>
<path d="M58.2629 8.89234C58.2629 8.97246 58.1027 9.13271 57.8623 9.4532C57.4616 9.85381 57.061 10.0942 56.6603 10.0942C56.5001 10.0942 56.3398 10.0942 56.2597 10.0141C55.6187 10.9755 54.9776 11.3762 54.4167 11.3762C54.0962 11.3762 53.8558 11.2159 53.6155 10.9755C53.3751 10.7352 53.2949 10.4147 53.2949 10.0942C53.2949 9.29295 53.7757 8.57186 54.8174 7.85076C55.5385 7.37002 56.0995 7.12964 56.5802 7.12964C56.9809 7.12964 57.2213 7.37002 57.2213 7.85076C57.2213 8.41161 56.9007 9.13269 56.3398 9.93392C56.4199 10.014 56.5802 10.0141 56.6603 10.0141C56.9007 10.0141 57.1411 9.93393 57.4616 9.69356C57.7821 9.45319 58.0226 9.21286 58.1828 8.97249C58.1828 8.89237 58.1828 8.89234 58.2629 8.89234ZM57.061 7.85076C57.061 7.45015 56.9007 7.20979 56.5001 7.20979C56.0193 7.20979 55.4584 7.61038 54.8174 8.49173C54.1764 9.37307 53.8558 10.0942 53.8558 10.655C53.8558 10.9755 54.0161 11.1358 54.3366 11.1358C54.8975 11.1358 55.4584 10.6551 56.0994 9.77371C55.9392 9.61347 55.8591 9.45319 55.8591 9.29295C55.8591 9.05258 55.9392 8.81224 56.1796 8.57188C56.3398 8.33151 56.5802 8.17127 56.7405 8.17127C56.8206 8.17127 56.9007 8.25135 56.9007 8.33147C56.9809 8.25135 57.061 8.09113 57.061 7.85076Z" fill="#2B2B2B"/>
<path d="M64.1926 8.89235C64.1926 8.97248 63.7919 9.4532 63.1509 10.3345C62.59 11.0556 62.1092 11.3762 61.7887 11.3762C61.5483 11.3762 61.388 11.296 61.2278 11.1358C61.0675 10.9755 60.9874 10.7352 60.9874 10.4948C60.9874 10.2544 61.0675 10.0942 61.1476 9.85383C61.2277 9.69358 61.4681 9.29295 61.8688 8.7321C62.2695 8.17125 62.5098 7.77067 62.5098 7.61042C62.5098 7.37006 62.4297 7.28992 62.1893 7.28992C61.4682 7.28992 60.3463 8.65199 58.8238 11.296C58.5835 11.296 58.4232 11.296 58.4232 11.296C58.2629 11.296 58.1026 11.296 57.9424 11.296L59.1443 9.45322C59.7854 8.41163 60.1059 7.77066 60.1059 7.45017C60.1059 7.28993 60.0258 7.20981 59.9456 7.20981C59.7053 7.20981 59.2245 7.77067 58.4232 8.81225C58.3431 8.89237 58.343 8.89235 58.343 8.89235C58.343 8.89235 58.3431 8.89237 58.2629 8.81225V8.7321L58.4232 8.5719C59.2245 7.53031 59.7053 7.04956 59.9456 7.04956C60.1059 7.04956 60.2662 7.12967 60.3463 7.28992C60.4264 7.45016 60.5066 7.61041 60.5066 7.85078C60.5066 8.17127 60.3463 8.57189 59.9456 9.21286C60.5066 8.41164 60.9874 7.85076 61.3079 7.53027C61.6284 7.20978 61.949 7.04956 62.1893 7.04956C62.4297 7.04956 62.59 7.12967 62.7502 7.28992C62.9105 7.45016 62.9907 7.69052 62.9907 7.93088C62.9907 8.25137 62.7502 8.81224 62.2695 9.45322C61.7887 10.1743 61.5483 10.5749 61.5483 10.8153C61.5483 11.0557 61.6284 11.1358 61.8688 11.1358C62.3496 11.1358 63.0708 10.3345 64.1926 8.7321C64.1125 8.89234 64.1926 8.81223 64.1926 8.89235C64.1926 8.81223 64.1926 8.89235 64.1926 8.89235Z" fill="#2B2B2B"/>
<path d="M66.7561 8.89223C66.7561 8.89223 66.7561 8.97238 66.676 8.97238L66.3554 9.37299C65.3938 10.6549 64.6727 11.2959 64.1919 11.2959C63.9515 11.2959 63.7913 11.2158 63.631 11.0555C63.4707 10.8953 63.3906 10.6549 63.3906 10.4146C63.3906 10.0941 63.5509 9.69344 63.8714 9.13259L65.0733 7.12954C65.2336 7.12954 65.3137 7.20969 65.474 7.20969C65.6343 7.20969 65.7945 7.20966 66.0349 7.12954L64.3522 9.9338C64.1118 10.3344 63.9515 10.6549 63.9515 10.8953C63.9515 11.1356 64.0316 11.2158 64.272 11.2158C64.7528 11.2158 65.474 10.4146 66.5958 8.81213C66.676 8.89225 66.6759 8.81211 66.7561 8.89223C66.7561 8.81211 66.7561 8.89223 66.7561 8.89223ZM66.676 5.84761C66.676 6.00785 66.5958 6.16807 66.4356 6.32832C66.2753 6.48856 66.115 6.56872 65.9548 6.56872C65.7144 6.56872 65.6343 6.48858 65.6343 6.24822C65.6343 6.08797 65.7144 5.92775 65.8747 5.7675C66.0349 5.60726 66.1952 5.5271 66.3554 5.5271C66.5958 5.5271 66.676 5.60724 66.676 5.84761Z" fill="#2B2B2B"/>
<path d="M71.5637 8.8924C71.5637 8.97252 71.163 9.45324 70.522 10.3346C69.9611 11.0557 69.4803 11.3762 69.0797 11.3762C68.8393 11.3762 68.679 11.296 68.5187 11.1358C68.3585 10.9756 68.2784 10.7352 68.2784 10.4948C68.2784 10.3346 68.3585 10.0141 68.5989 9.69362L68.4386 9.93397C67.9579 10.4948 67.6374 10.8954 67.397 11.1358C67.1566 11.3762 66.9161 11.4563 66.7559 11.4563C66.5155 11.4563 66.3553 11.3762 66.195 11.216C66.0348 11.0557 65.9546 10.8154 65.9546 10.575C65.9546 10.2545 66.0347 9.934 66.2751 9.61352L67.6373 7.37012C67.7976 7.37012 67.9579 7.45022 68.038 7.45022C68.1181 7.45022 68.2784 7.45024 68.5187 7.37012L66.7559 10.2545C66.5956 10.575 66.5155 10.8153 66.5155 11.0557C66.5155 11.2961 66.5957 11.3762 66.836 11.3762C67.3168 11.3762 68.1181 10.4147 69.2399 8.57194L69.9611 7.37012C70.1213 7.37012 70.2816 7.45022 70.3617 7.45022C70.522 7.45022 70.6822 7.45024 70.9226 7.37012L69.7207 9.29301C69.1598 10.2545 68.8393 10.8153 68.8393 11.0557C68.8393 11.2961 68.9194 11.3762 69.1598 11.3762C69.5604 11.3762 70.2015 10.7352 71.0829 9.53336L71.3233 9.21291L71.4836 9.05265C71.4836 8.89241 71.4835 8.81228 71.5637 8.8924C71.5637 8.81228 71.5637 8.8924 71.5637 8.8924Z" fill="#2B2B2B"/>
<path d="M79.8175 8.89226C79.8175 8.89226 79.8175 8.97241 79.7374 8.97241L79.4169 9.37302C78.4553 10.655 77.8143 11.2959 77.3335 11.2959C77.0931 11.2959 76.9329 11.2158 76.7726 11.0556C76.6123 10.8953 76.5322 10.655 76.5322 10.4146C76.5322 10.1742 76.6124 9.85371 76.8528 9.53323C76.8528 9.4531 77.0932 9.21274 77.4137 8.73201C77.8143 8.17115 78.0547 7.77054 78.0547 7.53018C78.0547 7.28981 77.9745 7.20972 77.7342 7.20972C77.0931 7.20972 75.9713 8.57179 74.3687 11.2158C74.2886 11.2158 74.1283 11.2158 73.9681 11.2158C73.7277 11.2158 73.5675 11.2158 73.4072 11.2158L74.4489 9.53323C75.1701 8.41152 75.4906 7.77054 75.4906 7.53018C75.4906 7.28981 75.4104 7.20972 75.2502 7.20972C75.0098 7.20972 74.529 7.61033 73.888 8.41155C73.2469 9.21277 72.6861 10.1742 72.045 11.2959C71.9649 11.2959 71.8046 11.2959 71.6444 11.2959C71.4841 11.2959 71.2437 11.2959 71.1636 11.2959L72.2053 9.61338C72.9265 8.49167 73.3271 7.77056 73.3271 7.45007C73.3271 7.28983 73.2469 7.20972 73.1668 7.20972C72.9264 7.20972 72.4457 7.77057 71.6444 8.81216C71.5642 8.89228 71.5642 8.89226 71.5642 8.89226C71.5642 8.89226 71.5642 8.89228 71.5642 8.81216C71.5642 8.73203 71.8046 8.49166 72.2854 7.85068C72.7662 7.28983 73.0867 7.04946 73.3271 7.04946C73.4873 7.04946 73.6476 7.12958 73.7277 7.28982C73.8078 7.45006 73.888 7.61032 73.888 7.85068C73.888 8.17117 73.7277 8.57178 73.4873 9.05251C74.3688 7.77056 75.0098 7.04946 75.4906 7.04946C75.7309 7.04946 75.8912 7.12958 75.9713 7.28982C76.1316 7.45006 76.2117 7.69042 76.2117 7.93079C76.2117 8.25127 76.0515 8.5718 75.8111 8.97241C76.7726 7.69046 77.4938 6.96936 77.9745 6.96936C78.2149 6.96936 78.3752 7.04947 78.5354 7.20972C78.6957 7.36996 78.7758 7.61032 78.7758 7.85068C78.7758 8.17117 78.6156 8.49165 78.3752 8.89226C78.3752 8.89226 78.1348 9.21276 77.7342 9.85373C77.4938 10.1742 77.3335 10.4947 77.3335 10.655C77.3335 10.8953 77.4137 10.9755 77.654 10.9755C78.0547 10.9755 78.6957 10.3344 79.5771 9.13262L79.8175 8.81216L79.9778 8.6519C79.7374 8.89227 79.8175 8.81214 79.8175 8.89226C79.8175 8.81214 79.8175 8.89226 79.8175 8.89226Z" fill="#2B2B2B"/>
</svg>
